<?xml version="1.0" standalone="no"?>
<!DOCTYPE svg PUBLIC "-//W3C//DTD SVG 20010904//EN"
 "http://www.w3.org/TR/2001/REC-SVG-20010904/DTD/svg10.dtd">
<svg version="1.0" xmlns="http://www.w3.org/2000/svg"
 width="1080.000000pt" height="1080.000000pt" viewBox="0 0 1080.000000 1080.000000"
 preserveAspectRatio="xMidYMid meet">

<g transform="translate(0.000000,1080.000000) scale(0.100000,-0.100000)"
fill="#000000" stroke="none">
<path d="M8135 6508 c-38 -33 -45 -91 -15 -123 13 -14 30 -25 37 -25 17 0 130
-56 137 -69 8 -12 -7 -14 -619 -66 -291 -25 -549 -48 -572 -51 l-43 -5 0 -158
0 -158 25 5 25 4 0 -116 c0 -64 -4 -116 -8 -116 -5 0 -62 119 -127 265 -64
146 -122 265 -129 265 -6 0 -110 -9 -231 -20 -121 -11 -228 -20 -237 -20 -16
0 -18 -12 -18 -115 0 -63 -3 -115 -6 -115 -3 0 -40 26 -82 59 -137 105 -223
135 -377 134 -75 0 -116 -6 -164 -22 -63 -22 -157 -77 -181 -106 -11 -13 -19
-8 -52 30 -75 85 -171 114 -375 115 -107 0 -165 -17 -242 -74 -55 -41 -110
-117 -134 -186 l-16 -45 -1 88 0 87 -37 0 c-21 0 -135 -9 -253 -20 -118 -11
-225 -20 -237 -20 -22 0 -23 -4 -23 -72 l-1 -73 -32 35 c-18 19 -43 49 -57 66
l-25 32 -200 -19 c-110 -10 -206 -18 -212 -19 -10 0 -13 -38 -13 -155 l0 -155
35 0 35 0 0 -147 c0 -85 -4 -143 -9 -137 -5 5 -63 133 -130 284 -67 151 -126
279 -130 283 -5 5 -116 -1 -247 -12 -132 -12 -242 -21 -246 -21 -5 0 -8 -67
-8 -150 0 -127 2 -150 15 -150 22 0 19 -13 -40 -155 l-54 -130 -1 133 0 132
25 0 25 0 0 159 0 158 -23 -3 c-12 -2 -110 -10 -217 -19 -280 -23 -260 -17
-260 -70 0 -32 -9 -59 -36 -104 -20 -34 -40 -61 -44 -61 -4 0 -36 43 -69 95
-53 81 -66 95 -89 95 -15 0 -122 -9 -238 -19 -210 -20 -212 -20 -251 0 -53 26
-145 40 -273 42 -104 2 -108 1 -182 -36 -125 -61 -199 -165 -220 -308 -8 -55
-18 -83 -39 -109 -33 -40 -55 -128 -43 -168 5 -15 9 -70 10 -122 5 -236 10
-277 43 -345 55 -111 152 -169 281 -168 111 1 178 29 261 112 l65 66 103 255
c57 140 105 257 107 259 2 2 4 -48 4 -112 l0 -117 -35 0 -35 0 0 -161 0 -161
53 6 c28 3 138 12 242 21 105 8 205 18 223 21 l32 5 0 62 1 62 23 -28 23 -28
16 23 c16 22 16 22 16 -29 l1 -53 33 0 c48 0 719 60 727 65 4 2 22 43 40 89
36 94 29 89 142 99 l46 4 31 -70 c17 -39 29 -72 27 -74 -2 -2 -30 -6 -62 -9
-33 -3 -74 -7 -91 -10 l-33 -5 0 -97 c0 -86 -3 -106 -32 -175 -24 -59 -37 -79
-55 -83 -22 -6 -23 -11 -23 -96 l0 -90 68 6 c165 16 157 13 174 59 11 32 21
43 40 45 20 2 28 -4 43 -38 10 -22 22 -40 26 -40 5 0 111 9 236 20 194 17 234
24 277 45 81 38 138 101 161 177 l13 43 16 -40 c75 -181 68 -170 111 -173 22
-1 64 1 94 5 l54 8 67 175 c38 96 73 176 79 178 7 2 11 -23 11 -77 0 -65 -3
-81 -15 -81 -12 0 -15 -17 -15 -90 l0 -90 28 0 c36 0 631 50 660 56 15 3 22
12 22 27 l0 22 18 -23 c19 -25 33 -25 190 -6 l42 5 0 90 c0 53 -4 89 -10 89
-5 0 -10 18 -10 40 0 39 1 40 35 40 33 0 35 -2 35 -35 0 -19 -4 -35 -10 -35
-6 0 -10 -39 -10 -96 l0 -96 43 5 c23 4 78 9 122 12 135 10 125 2 125 105 0
75 -3 90 -16 90 -12 0 -14 9 -12 38 3 33 6 37 34 40 31 3 31 3 38 -55 4 -33
17 -76 32 -101 64 -109 257 -123 365 -25 l39 35 0 -36 c0 -20 3 -36 8 -36 16
0 810 70 860 75 43 5 52 10 52 26 0 23 3 23 55 4 50 -18 148 -18 198 -1 56 20
102 60 126 108 19 40 20 55 14 199 -6 153 -7 157 -31 171 -25 15 -25 15 23 23
85 12 172 44 232 85 l58 39 3 -41 3 -40 52 6 c29 3 133 13 232 21 281 23 265
20 265 63 l0 37 33 -36 32 -37 320 29 c175 16 322 33 326 37 3 4 21 44 38 89
33 82 33 82 74 88 23 4 59 5 80 3 37 -3 39 -5 69 -73 17 -38 34 -74 38 -79 5
-5 95 -1 214 9 l206 18 0 160 0 160 -40 -6 c-24 -3 -43 0 -48 7 -5 6 -75 162
-157 346 -81 184 -151 339 -155 343 -4 5 -111 -1 -238 -12 -126 -12 -237 -21
-246 -21 -14 0 -16 -19 -16 -150 0 -123 3 -150 15 -158 13 -7 2 -41 -70 -218
-48 -115 -91 -213 -96 -219 -7 -7 -19 0 -35 19 l-25 29 25 26 c71 75 108 215
88 333 -28 161 -121 253 -283 279 -59 9 -67 14 -108 60 -76 87 -236 179 -310
179 -17 0 -41 -10 -56 -22z m154 -96 c82 -40 174 -131 213 -210 29 -58 33 -76
32 -142 -1 -89 -21 -141 -86 -221 l-45 -55 54 7 c58 8 96 28 112 58 20 37 42
176 39 243 -2 44 1 68 8 68 29 0 104 -64 126 -108 35 -72 32 -179 -7 -251 -26
-46 -93 -112 -127 -123 -23 -8 140 -208 169 -208 8 0 13 -12 13 -29 0 -35 -5
-37 -120 -46 l-85 -6 -85 121 c-80 114 -87 120 -114 115 -16 -3 -46 -5 -67 -5
l-39 0 0 -84 c0 -83 12 -116 41 -116 6 0 9 -12 7 -27 -3 -27 -5 -28 -88 -35
-47 -3 -111 -9 -142 -13 l-58 -6 0 29 c0 23 5 31 24 36 13 3 27 13 30 22 7 19
10 173 4 180 -3 2 -42 -9 -88 -25 l-84 -30 -27 -59 c-14 -32 -43 -77 -62 -99
-98 -108 -315 -146 -452 -78 -59 29 -112 88 -122 136 -5 26 -7 27 -126 39 -67
6 -125 14 -130 17 -4 3 -1 -11 7 -31 9 -20 22 -51 30 -68 19 -45 55 -88 72
-88 9 0 14 -11 14 -29 0 -29 0 -29 -77 -36 -43 -3 -89 -7 -102 -8 -21 -2 -29
8 -59 78 -20 44 -37 82 -38 84 -4 5 -312 -22 -324 -29 -5 -3 -25 -44 -44 -91
l-34 -84 -54 -7 c-29 -4 -75 -8 -103 -9 -47 -3 -50 -2 -53 23 -2 19 2 28 17
33 34 10 56 48 116 195 55 134 69 156 81 127 5 -13 -89 -251 -108 -274 -8 -10
-6 -13 6 -13 9 0 16 5 16 11 0 11 98 260 106 268 7 7 99 -31 111 -46 9 -12 29
-13 107 -7 53 4 96 10 96 15 0 19 -34 37 -111 58 -118 32 -201 67 -416 173
-264 131 -370 163 -461 139 -56 -16 -109 -63 -124 -112 -10 -35 -9 -43 9 -67
24 -32 66 -37 71 -8 3 11 -4 26 -14 34 -18 13 -18 14 2 8 27 -8 50 12 63 54
l11 35 -5 -32 c-4 -30 -1 -33 28 -42 18 -5 24 -10 15 -10 -14 -1 -18 -10 -18
-35 l0 -33 71 -5 c54 -4 86 -13 137 -39 90 -46 125 -95 130 -184 7 -105 -45
-185 -154 -238 -27 -13 -44 -28 -44 -39 0 -9 -7 -23 -15 -30 -39 -33 -45 -41
-45 -66 0 -20 -3 -23 -10 -12 -7 12 -12 11 -32 -5 -13 -11 -17 -13 -10 -5 19
22 14 32 -10 25 -23 -7 -23 -7 -3 9 19 15 19 15 -10 16 -16 1 -23 4 -15 7 8 2
22 7 30 9 13 5 13 6 0 15 -12 8 -10 9 6 5 14 -4 27 1 40 16 19 21 19 21 -1 14
-11 -4 -65 -12 -121 -18 -94 -11 -103 -10 -139 8 -57 30 -96 83 -103 140 -5
43 -3 47 14 40 10 -4 57 -13 104 -21 47 -7 103 -20 126 -29 45 -16 110 -8 125
16 15 23 -9 33 -33 13 -13 -11 -17 -13 -10 -5 19 22 14 32 -10 25 -22 -6 -22
-6 -4 9 19 15 19 16 -10 17 -23 1 -25 3 -6 6 26 5 28 18 5 33 -15 9 -13 10 10
5 26 -5 28 -4 22 17 -7 22 -6 22 21 -4 16 -15 42 -32 58 -38 23 -8 27 -15 24
-34 -6 -28 16 -25 32 5 30 56 1 83 -120 109 -51 12 -102 25 -112 31 -15 8 -24
7 -38 -6 -9 -9 -24 -15 -31 -13 -9 2 -15 -8 -17 -25 -2 -15 -7 -25 -12 -22 -5
3 -12 -7 -16 -22 -10 -48 -12 -49 -13 -10 -1 20 -4 37 -7 37 -3 0 -22 -12 -42
-27 l-37 -27 36 40 c41 44 54 81 36 103 -10 12 -9 14 7 8 10 -4 25 -2 32 4 12
10 7 19 -25 54 -77 84 -77 191 0 278 57 66 115 91 208 90 106 -1 199 -33 425
-148 104 -53 194 -94 200 -92 14 6 66 133 66 161 0 23 -28 56 -47 56 -8 0 -13
11 -13 29 0 29 1 30 67 37 38 4 101 7 142 8 l75 1 100 -225 101 -225 70 -12
c157 -27 357 -36 506 -24 174 14 188 17 194 45 3 11 4 118 3 236 -3 212 -3
215 -25 225 -16 7 -23 18 -23 36 0 29 -14 26 213 45 l77 7 0 -27 c0 -19 -7
-29 -24 -35 -13 -5 -26 -17 -30 -26 -3 -9 -6 -111 -6 -227 l0 -210 28 5 c15 3
53 15 85 27 l57 21 0 203 c0 210 -3 226 -43 226 -14 0 -18 6 -15 28 l3 27 220
19 c121 11 222 20 224 22 2 2 -10 25 -27 51 -54 84 -144 159 -232 193 -19 7
-39 18 -45 23 -17 16 44 -2 104 -31z m1261 -488 c144 -327 169 -374 196 -374
9 0 14 -11 14 -29 0 -29 0 -29 -77 -36 -43 -3 -89 -7 -102 -8 -21 -2 -28 8
-58 78 -19 44 -36 81 -38 84 -5 4 -275 -17 -311 -24 -16 -4 -29 -26 -54 -91
-19 -47 -38 -88 -44 -90 -6 -2 -53 -7 -103 -12 l-93 -8 0 25 c0 15 13 36 35
55 29 26 53 76 149 311 62 154 117 290 120 302 8 24 -23 63 -49 63 -10 0 -15
10 -15 29 0 29 1 30 68 36 37 3 76 7 87 9 11 2 45 4 75 5 l55 1 145 -326z
m-2080 126 c0 -16 -3 -30 -7 -30 -34 -1 -38 -19 -43 -217 l-5 -198 -52 -3 -53
-3 0 190 c0 121 -4 191 -10 191 -6 0 -10 -70 -10 -191 0 -170 -2 -190 -16
-185 -9 3 -20 6 -25 6 -5 0 -10 82 -11 183 -3 178 -4 182 -25 192 -16 7 -23
18 -23 37 0 16 1 29 3 29 1 1 58 7 127 14 69 7 131 13 138 14 7 0 12 -11 12
-29z m-2221 -90 c99 -13 144 -43 178 -117 20 -43 24 -65 20 -102 -5 -45 -234
-621 -265 -670 -26 -39 -90 -79 -145 -91 -145 -33 -256 80 -238 240 4 37 2 62
-6 76 -10 16 -11 38 -3 98 8 61 7 82 -3 97 -21 29 -9 79 22 92 14 6 27 12 28
12 2 1 9 49 17 108 19 148 56 208 158 252 38 17 132 18 237 5z m-649 -151 c0
-12 -13 -34 -30 -49 l-30 -28 0 -290 c0 -165 4 -302 10 -316 6 -16 17 -26 30
-26 15 0 20 -7 20 -29 0 -29 -1 -30 -67 -36 -38 -3 -85 -8 -105 -11 -34 -5
-39 -2 -75 43 -21 27 -105 131 -188 232 l-150 184 -3 -174 c-3 -197 1 -234 28
-252 12 -7 20 -23 20 -38 l0 -26 -127 -12 c-173 -15 -163 -16 -163 19 0 23 5
30 19 30 43 0 46 19 49 304 3 306 -1 345 -41 364 -18 9 -27 21 -27 36 0 27 15
32 150 41 l85 5 180 -224 180 -224 3 154 c3 188 -5 245 -36 259 -15 7 -22 18
-22 37 0 26 2 26 78 33 42 3 84 8 92 9 8 2 39 4 68 5 47 1 52 -1 52 -20z
m1266 -24 c-11 -8 -25 -15 -30 -15 -6 1 0 7 14 15 32 19 40 18 16 0z m-2366
-387 c155 -350 162 -364 191 -373 13 -4 19 -16 19 -35 0 -28 0 -28 -83 -35
-46 -4 -92 -5 -102 -4 -13 3 -30 30 -51 79 -39 89 -30 87 -232 68 l-134 -13
-34 -85 c-19 -46 -37 -87 -42 -91 -4 -4 -51 -11 -104 -15 -97 -7 -98 -7 -98
16 0 14 14 36 35 54 30 26 54 76 156 325 129 317 133 332 74 347 -19 5 -25 13
-25 34 0 27 3 29 53 34 28 3 66 8 82 9 17 2 57 5 91 6 l61 1 143 -322z m-710
250 c0 -15 -11 -29 -30 -40 l-30 -17 2 -318 3 -318 28 -13 c20 -10 27 -20 25
-35 -4 -26 -29 -31 -190 -42 l-108 -7 0 26 c0 19 7 29 25 36 13 5 27 20 30 32
3 13 4 111 3 218 l-3 194 -99 -159 c-54 -88 -104 -166 -111 -173 -9 -10 -33
19 -116 140 l-104 152 -3 -209 c-2 -203 -2 -211 18 -227 13 -11 20 -26 18 -40
-3 -21 -10 -24 -78 -30 -41 -3 -105 -9 -142 -13 l-68 -6 0 30 c0 21 5 31 15
31 8 0 24 9 35 20 19 19 20 33 20 324 0 264 -2 307 -16 320 -8 9 -24 16 -35
16 -14 0 -19 7 -19 29 l0 28 108 7 c59 4 117 10 129 13 20 4 35 -14 123 -148
55 -85 104 -155 108 -157 4 -1 52 73 106 165 54 93 101 170 103 173 6 6 110
17 191 18 58 2 62 1 62 -20z m-1285 -13 c127 -12 190 -58 216 -158 17 -63 14
-76 -130 -427 -130 -319 -151 -353 -238 -386 -66 -25 -153 -16 -200 22 -58 48
-76 92 -74 186 0 43 -3 87 -9 97 -6 12 -6 48 0 97 6 54 5 83 -2 92 -14 17 -13
69 3 88 6 8 20 14 30 14 14 0 19 11 24 58 18 163 41 222 107 275 43 35 118 58
168 52 19 -2 67 -7 105 -10z m5293 -435 l31 -69 -35 -7 c-30 -5 -34 -10 -34
-36 l0 -30 -37 24 c-30 18 -52 23 -105 23 -76 0 -74 -7 -33 92 26 65 36 70
126 72 l56 1 31 -70z m-1313 -93 c28 -20 77 -47 110 -60 59 -22 60 -22 25 -25
-170 -16 -326 -28 -329 -25 -3 2 5 20 16 41 19 32 37 74 74 171 9 23 10 23 32
-20 13 -25 43 -60 72 -82z m1850 79 c18 -7 17 -9 -10 -20 -16 -7 -45 -25 -62
-40 -30 -26 -33 -26 -33 -8 0 11 7 22 15 26 10 3 15 19 15 46 l0 41 28 -19
c15 -10 36 -22 47 -26z m174 -99 c22 -10 26 -20 29 -60 3 -52 -9 -61 -36 -27
-30 37 -132 39 -146 4 -8 -20 10 -44 33 -44 34 0 123 -32 142 -51 27 -27 26
-98 -2 -133 -11 -14 -34 -33 -49 -41 -43 -22 -135 -19 -187 6 -41 20 -43 23
-43 64 0 50 17 62 43 29 11 -14 38 -27 72 -35 47 -10 57 -10 80 5 44 29 29 49
-55 69 -53 12 -82 25 -97 43 -39 43 -26 119 27 161 40 33 131 38 189 10z
m-1394 -17 c-3 -5 -16 -10 -28 -10 -18 0 -19 2 -7 10 20 13 43 13 35 0z m1043
-44 c4 -60 -12 -81 -36 -49 -16 20 -22 21 -92 15 l-75 -7 -3 -38 -3 -38 48 6
c26 4 52 11 58 16 5 5 15 9 22 9 11 0 13 -14 11 -57 -2 -46 -6 -57 -18 -53 -8
2 -37 4 -65 5 l-50 0 -3 -39 -3 -38 73 7 c86 8 108 13 108 26 0 5 7 9 15 9 20
0 22 -100 3 -100 -7 -1 -78 -7 -158 -14 -80 -8 -148 -11 -153 -7 -4 4 2 16 13
26 18 17 20 30 20 161 0 135 -1 144 -21 155 -38 20 -4 32 128 44 185 18 177
20 181 -39z m-2898 -61 c38 -46 69 -75 81 -75 22 0 23 -11 4 -60 l-13 -35 -11
30 c-33 86 -27 80 -81 77 l-50 -4 0 71 c0 39 2 71 4 71 3 0 32 -34 66 -75z
m2441 27 c22 -24 29 -42 29 -73 0 -47 -22 -94 -50 -109 -29 -15 -25 -32 20
-83 53 -60 52 -69 -12 -65 -51 3 -54 5 -88 55 -34 50 -51 60 -84 47 -19 -7
-22 -74 -4 -92 18 -18 -1 -29 -64 -35 -59 -6 -86 7 -54 25 14 8 16 30 16 160
0 132 -2 152 -17 164 -10 7 -15 15 -11 19 10 11 145 23 222 21 63 -2 70 -4 97
-34z m-397 -1 c3 -5 -1 -14 -9 -21 -12 -10 -15 -37 -15 -124 0 -96 -3 -118
-22 -156 -57 -113 -249 -123 -294 -15 -9 23 -14 71 -14 143 0 87 -3 112 -15
122 -23 19 -8 27 63 35 53 6 62 5 62 -9 0 -9 -4 -16 -10 -16 -6 0 -10 -46 -10
-117 0 -94 3 -120 17 -135 24 -27 78 -24 108 7 24 23 25 30 25 140 0 70 -4
115 -10 115 -5 0 -10 6 -10 14 0 14 26 21 97 24 17 1 34 -2 37 -7z m-466 -88
c-2 -34 -8 -58 -15 -61 -7 -2 -13 3 -13 12 0 17 -41 31 -65 22 -12 -4 -15 -29
-15 -135 0 -90 4 -131 12 -133 6 -2 9 -12 5 -21 -5 -14 -20 -17 -72 -17 -66 0
-78 7 -50 30 12 10 15 39 15 139 l0 127 -35 -4 c-22 -3 -40 -12 -46 -23 -5
-11 -16 -19 -24 -19 -20 0 -22 108 -2 115 15 5 195 22 260 24 l48 1 -3 -57z
m-398 13 c0 -8 -7 -16 -15 -20 -12 -4 -15 -31 -15 -156 0 -125 3 -152 15 -156
32 -13 14 -32 -37 -39 -40 -6 -54 -4 -62 7 -6 8 -45 56 -86 107 l-75 93 -3
-93 c-2 -59 1 -95 8 -97 16 -6 12 -29 -6 -36 -26 -10 -124 -7 -124 4 0 6 7 13
15 16 23 9 22 302 -2 319 -27 20 -5 35 50 35 l52 0 80 -100 80 -99 3 86 c2 50
-1 90 -8 97 -22 22 -9 35 38 39 26 2 57 4 70 5 13 1 22 -4 22 -12z m-500 -86
c0 -47 -3 -60 -15 -60 -8 0 -15 7 -15 15 0 11 -13 15 -54 15 -29 0 -68 -3 -85
-6 -28 -6 -31 -10 -31 -42 l0 -35 52 6 c29 4 54 11 56 17 2 5 10 10 18 10 10
0 14 -15 14 -60 0 -61 -11 -75 -37 -49 -7 7 -28 9 -57 5 -45 -7 -46 -8 -46
-43 l0 -36 81 6 c59 5 85 11 94 23 19 26 35 7 35 -41 0 -53 9 -50 -173 -65
-161 -13 -157 -13 -157 5 0 8 6 15 14 15 20 0 26 33 26 160 0 127 -6 160 -26
160 -28 0 -14 30 14 31 28 1 285 25 290 28 1 0 2 -26 2 -59z m-900 14 c0 -14
-3 -15 -17 -3 -10 7 -20 15 -22 16 -2 2 5 3 17 3 14 0 22 -6 22 -16z m500 -5
c0 -6 -9 -18 -20 -27 -11 -10 -48 -89 -82 -177 -33 -88 -65 -166 -71 -172 -5
-7 -24 -13 -42 -13 -32 0 -35 3 -63 73 -87 209 -104 243 -124 258 -31 24 -14
39 46 39 l53 0 43 -115 c23 -63 45 -117 49 -119 4 -3 27 52 52 122 38 107 49
127 69 133 40 11 90 10 90 -2z m-930 -99 c0 -64 3 -80 15 -80 12 0 15 -16 15
-82 0 -45 -2 -79 -4 -77 -13 14 -135 303 -130 310 3 5 27 9 55 9 l49 0 0 -80z
m3180 55 c0 -16 -6 -25 -15 -25 -18 0 -19 4 -3 30 16 26 18 25 18 -5z m-2805
-28 c119 -66 108 -248 -20 -323 -38 -22 -66 -28 -160 -37 -119 -11 -146 -6
-107 20 21 15 22 21 22 164 0 140 -1 148 -21 154 -35 12 -14 30 42 36 128 14
202 10 244 -14z m-482 -172 c38 -85 75 -159 83 -166 23 -19 16 -36 -17 -43
-52 -10 -58 -8 -80 35 l-21 42 -51 -7 c-29 -3 -64 -6 -78 -6 -21 0 -28 -7 -39
-41 -16 -47 -12 -45 -72 -53 -53 -8 -64 6 -30 35 10 8 44 80 77 158 54 131 57
145 42 156 -38 28 -16 42 68 44 l50 1 68 -155z"/>
<path d="M8155 5745 c0 -173 3 -315 8 -315 4 0 7 142 7 315 0 173 -3 315 -7
315 -5 0 -8 -142 -8 -315z"/>
<path d="M8338 6003 l-58 -4 0 -114 0 -114 33 6 c58 10 187 158 187 216 0 18
-15 19 -162 10z"/>
<path d="M6549 5790 c-22 -55 -31 -90 -24 -90 6 0 28 41 47 90 23 56 32 90 24
90 -6 0 -28 -40 -47 -90z"/>
<path d="M6666 5733 c-10 -32 -20 -63 -23 -68 -3 -10 96 -49 104 -41 4 4 -46
149 -55 158 -5 5 -16 -18 -26 -49z"/>
<path d="M7555 5485 l-100 -12 37 -16 c21 -9 57 -17 80 -17 43 0 120 29 132
49 8 13 -10 13 -149 -4z"/>
<path d="M7310 5470 c0 -18 60 -78 93 -93 17 -8 57 -17 87 -20 l55 -6 -60 17
c-72 21 -103 41 -130 82 -19 29 -45 41 -45 20z"/>
<path d="M9120 5877 c-52 -133 -107 -268 -122 -300 -32 -68 -34 -77 -13 -77 8
0 15 5 15 11 0 6 52 141 116 300 67 166 113 294 108 299 -5 4 -50 -96 -104
-233z"/>
<path d="M9289 5953 c-15 -38 -36 -92 -48 -121 l-21 -54 97 7 c54 4 99 9 101
10 5 4 -90 225 -97 225 -3 0 -18 -30 -32 -67z"/>
<path d="M4962 5898 c-42 -30 -81 -110 -87 -179 l-4 -54 14 67 c21 102 43 136
110 171 17 9 23 16 15 17 -8 0 -30 -10 -48 -22z"/>
<path d="M5029 5847 c-46 -30 -66 -77 -74 -172 -7 -80 -7 -81 19 -93 32 -14
36 -62 7 -91 -14 -14 -21 -41 -26 -101 -5 -60 -12 -87 -26 -101 -24 -24 -35
-110 -19 -148 15 -38 50 -61 91 -61 34 0 80 23 96 49 6 10 63 146 127 302 123
301 132 337 95 382 -24 31 -64 43 -175 51 -73 6 -84 4 -115 -17z"/>
<path d="M3870 5370 c0 -289 2 -319 16 -313 12 5 15 14 10 42 -3 20 -6 161 -6
314 0 178 -4 277 -10 277 -6 0 -10 -113 -10 -320z"/>
<path d="M3163 5563 c-17 -51 -208 -523 -224 -555 -14 -28 -16 -37 -6 -41 9
-3 51 87 135 297 67 166 122 305 122 309 0 15 -21 6 -27 -10z"/>
<path d="M3261 5479 c-5 -13 -18 -46 -29 -74 -11 -27 -30 -74 -41 -103 l-21
-54 97 7 c54 4 100 9 102 11 3 3 -87 224 -95 233 -2 2 -8 -7 -13 -20z"/>
<path d="M1980 5528 c0 -2 -1 -146 -3 -321 -1 -248 1 -317 11 -317 15 0 18
625 2 635 -5 3 -10 5 -10 3z"/>
<path d="M1268 5589 c-64 -33 -98 -98 -112 -214 -5 -36 -4 -46 3 -35 6 8 11
27 11 41 0 92 66 192 141 216 21 7 26 11 14 12 -11 0 -37 -9 -57 -20z"/>
<path d="M1304 5521 c-43 -26 -61 -72 -69 -171 -7 -83 -6 -85 16 -95 32 -13
38 -66 11 -93 -15 -15 -22 -41 -27 -96 -5 -52 -14 -84 -27 -101 -25 -32 -35
-115 -18 -155 13 -33 55 -60 90 -60 26 0 70 22 91 46 28 33 249 590 249 628 0
25 -8 45 -28 67 -24 27 -37 32 -102 39 -114 14 -152 12 -186 -9z"/>
<path d="M6513 4943 c-8 -3 -13 -24 -13 -55 l0 -50 53 7 c28 4 60 11 70 17 20
10 23 58 5 76 -12 12 -91 15 -115 5z"/>
<path d="M3810 4600 l0 -110 36 0 c110 0 174 111 108 189 -23 28 -31 31 -85
31 l-59 0 0 -110z"/>
<path d="M3376 4600 c-10 -25 -20 -51 -23 -57 -4 -9 8 -13 41 -13 25 0 46 3
45 8 0 4 -10 29 -23 57 l-22 49 -18 -44z"/>
</g>
</svg>
