<?xml version="1.0" encoding="UTF-8" standalone="no"?>
<svg
   xmlns:dc="http://purl.org/dc/elements/1.1/"
   xmlns:cc="http://creativecommons.org/ns#"
   xmlns:rdf="http://www.w3.org/1999/02/22-rdf-syntax-ns#"
   xmlns:svg="http://www.w3.org/2000/svg"
   xmlns="http://www.w3.org/2000/svg"
   xmlns:sodipodi="http://sodipodi.sourceforge.net/DTD/sodipodi-0.dtd"
   xmlns:inkscape="http://www.inkscape.org/namespaces/inkscape"
   version="1.1"
   id="svg2"
   xml:space="preserve"
   width="8457.9336"
   height="4919.48"
   viewBox="0 0 8457.9336 4919.48"
   sodipodi:docname="404_nothing_found_illustration_concept_vector_.eps"><metadata
     id="metadata8"><rdf:RDF><cc:Work
         rdf:about=""><dc:format>image/svg+xml</dc:format><dc:type
           rdf:resource="http://purl.org/dc/dcmitype/StillImage" /></cc:Work></rdf:RDF></metadata><defs
     id="defs6" /><sodipodi:namedview
     pagecolor="#e1eced"
     bordercolor="#e1eced"
     borderopacity="1"
     objecttolerance="10"
     gridtolerance="10"
     guidetolerance="10"
     inkscape:pageopacity="0"
     inkscape:pageshadow="2"
     inkscape:window-width="640"
     inkscape:window-height="480"
     id="namedview4" /><g
     id="g10"
     inkscape:groupmode="layer"
     inkscape:label="ink_ext_XXXXXX"
     transform="matrix(1.3333333,0,0,-1.3333333,0,4919.48)"><g
       id="g12"
       transform="scale(0.1)"><path
         d="M 63277.2,0 H 0 V 36896.1 H 63277.2 V 0"
         style="fill:#e1eced;fill-opacity:1;fill-rule:nonzero;stroke:none"
         id="path14" /><path
         d="m 13804,17225.4 v 4023.1 c 0,670.5 26.9,1643.8 81.1,2920.1 54,1276 97.4,2016.9 129.8,2222.4 h -129.8 c -400.2,-886.9 -881.5,-1752 -1443.7,-2595.6 l -4347.65,-6570 z M 21558.3,13332 H 18703.2 V 8416.7 H 13804 V 13332 H 3681.28 v 3487.9 L 14079.8,32133.7 h 4623.4 V 17225.4 h 2855.1 V 13332"
         style="fill:#043c6c;fill-opacity:1;fill-rule:nonzero;stroke:none"
         id="path16" /><path
         d="m 28258.1,20275.2 c 0,-2909.4 251.5,-4993.9 754.4,-6253.7 502.9,-1260 1349,-1889.9 2538.7,-1889.9 1168.1,0 2011.6,638 2530.8,1914.2 519.1,1276 778.6,3352.4 778.6,6229.4 0,2909.1 -262.3,4999 -786.7,6269.9 -524.8,1270.7 -1365.5,1906.2 -2522.7,1906.2 -1178.8,0 -2022.4,-635.5 -2530.6,-1906.2 -508.5,-1270.9 -762.5,-3360.8 -762.5,-6269.9 z m 11599,0 c 0,-4142.3 -678.8,-7208.3 -2035.9,-9198.1 -1357.4,-1990 -3447.2,-2984.9 -6270,-2984.9 -2736.2,0 -4799.2,1027.3 -6188.7,3082.3 -1389.8,2054.6 -2084.6,5088.2 -2084.6,9100.7 0,4185.4 675.7,7270.1 2027.8,9254.8 1351.7,1984.5 3433.5,2976.8 6245.5,2976.8 2736.1,0 4804.4,-1038.2 6205.1,-3114.7 1400.5,-2076.4 2100.8,-5115.6 2100.8,-9116.9"
         style="fill:#043c6c;fill-opacity:1;fill-rule:nonzero;stroke:none"
         id="path18" /><path
         d="m 51731.9,17225.4 v 4023.1 c 0,670.5 26.8,1643.8 81.1,2920.1 54,1276 97.3,2016.9 129.8,2222.4 H 51813 c -400.3,-886.9 -881.6,-1752 -1443.8,-2595.6 l -4347.6,-6570 z M 59486.1,13332 H 56631 V 8416.7 H 51731.9 V 13332 H 41609.1 v 3487.9 L 52007.7,32133.7 H 56631 V 17225.4 h 2855.1 V 13332"
         style="fill:#043c6c;fill-opacity:1;fill-rule:nonzero;stroke:none"
         id="path20" /><path
         d="m 63343.5,7416.9 c 315.4,-288.2 -315.4,-576.4 0,-864.5 -555.8,-30.5 -1124.3,180.6 -1308.3,485.8 -474.9,-323 -1352.3,-656.6 -1831.7,-335.9 -121.7,81.5 -176,189.4 -209.5,295.4 -307.3,974.9 779.4,2169.7 -425.1,2873.7 -28.3,-773.6 -56.6,-1547.3 -84.9,-2320.9 48.2,632.5 -650.4,1261.4 -1664.2,1498.3 654.7,-684.2 738.5,-1542.1 221.3,-2264.7 -824.4,415.9 -2094.7,153.4 -3075.6,-126.3 362,766.6 727.3,1548.4 666.8,2342.4 -60.4,793.9 -617.1,1616.6 -1754.8,2061.1 157.6,-692 455.6,-1373.2 885.9,-2025.1 -502.8,332.8 -1328.4,490.1 -2074.3,395.1 1151.7,-213.7 1945.5,-942.1 1782.6,-1636.1 -29.1,-124.4 -98.4,-257.7 -278.7,-327.4 -329.1,-127.2 -747.2,31.4 -1104,130.4 -1402.9,389.2 -3047.9,-198.4 -4595.1,-104.4 -183.6,11.1 -380.2,36.7 -500.4,117.9 -138.8,93.8 -133.2,231.2 -114,354.2 181.2,1160.4 894.6,2375.3 118.2,3450.1 -477.8,-619.2 -421.7,-1324.9 -554.2,-1998.8 -132.5,-673.9 -560.2,-1406.8 -1601.4,-1717.4 391,734.9 611.3,1500.2 653.1,2268.8 30.5,558.9 -318.2,1292.9 -1283.8,1303.1 1018.4,-1152.4 -12.4,-2531 -1034.1,-3682.4 -136.4,-153.8 -311.5,-324.9 -605.2,-355.9 -302.4,-31.8 -573.8,100.3 -810.4,213.9 -783.6,376.2 -1928.2,641.3 -2798.6,335.7 288.6,899.6 885.9,1765.5 1746.9,2532.7 -2333.5,-394.5 -3975.7,-1852.9 -3657.8,-3248.5 -804.7,371.8 -1972.1,321.4 -2953.3,140.8 -981.1,-180.6 -1915.1,-472.9 -2939.4,-532.7 -1138.2,-66.6 -2259.7,160.7 -3336.5,384.5 -910.6,189.2 -1966.3,477 -2096.2,1032.1 -549.9,-308.4 -895.1,-736.4 -950.5,-1178.6 -651.7,685.9 -743.5,1499.7 -1189.8,2238.7 -446.3,738.9 -1499.9,1475.5 -2849.9,1434.5 824.5,-670 1649,-1340 2473.5,-2010 -808,365.5 -1861.2,544.1 -2882,488.5 1392.6,-242.3 2422.3,-1057.7 2398.8,-1899.7 -1293.9,-653.6 -3537.3,240.3 -4969.2,-308.5 -86.4,1263.5 -1220.2,2489.5 -2988.5,3231.5 362.5,-653.4 725,-1306.8 1087.6,-1960.2 -296.6,37.6 -593.1,75.3 -889.7,113 598.5,-458.7 669.3,-1127.1 172,-1624.6 -192.3,256 -384.5,512.1 -576.8,768.1 -279.8,-288.2 -669.4,-540.4 -1132.9,-733.4 181.4,977.8 -443.3,1936.2 -796.2,2898.1 -352.9,961.9 -365.3,2078.7 794.1,2797.3 -1103.8,-48.8 -1975,-636.2 -2182.3,-1265.9 -207.3,-629.6 126,-1279.9 611.2,-1856.1 -432.4,507.7 -1393.5,848.5 -2371,840.7 897.7,-601.9 1559,-1321.3 1919.8,-2088.6 -1228,13.4 -1774.2,-875.1 -1964,-1577.8 -30.4,622.6 -307.1,1240.7 -802.67,1793.4 -354.37,395.3 -818.41,757.2 -1121.47,1166.5 -477.18,644.5 -526.68,1363.9 -569.26,2064.7 -1391.17,-820.9 -1379.09,-2297.2 25.45,-3110.4 -908.61,355.9 -2124.72,432.5 -3144.2,197.9 1507.05,-65.6 2899.44,-684.6 3398.16,-1510.8 98.38,-162.9 160.42,-351.6 13.29,-501.8 -354.01,-361.3 -1382.65,-129 -1983.48,-356 C 5973.39,6035.3 5828.86,5839.8 5575.57,5709.8 5066.59,5448.7 4295.55,5515.5 3615.64,5521.5 2381.18,5532.3 1144.96,5278.4 0,4843.6 V 24 l 63277.2,-24 66.3,7416.9"
         style="fill:#043c6c;fill-opacity:1;fill-rule:nonzero;stroke:none"
         id="path22" /><path
         d="m 24355.2,27970.8 c -2199.1,-513.3 -3611.4,2574.3 -3012.2,4015.9 599.1,1441.7 3495.1,2280.5 4732.4,1511.5 1237.2,-768.9 1317.2,-4248.8 -705.6,-5168.5 l 580.2,-1613.9 -1594.8,1255"
         style="fill:#ffffff;fill-opacity:1;fill-rule:nonzero;stroke:none"
         id="path24" /><path
         d="M 24359.9,27992.2 25908,26774 l -563,1566.2 16.6,7.5 c 899.3,408.9 1484.7,1402.1 1566,2656.7 71.1,1098.6 -283.6,2117.1 -862.7,2477 -590.5,367 -1604.5,387.4 -2646.2,53.2 -1019.4,-327 -1788.6,-908.5 -2057.4,-1555.5 -345.5,-831.1 -3.2,-2242.6 762.9,-3146.4 621.7,-733.4 1412.3,-1032.6 2226.5,-842.6 z m 1632,-1334.7 -1641.5,1291.8 c -825.9,-189.2 -1627,115.2 -2256.4,857.8 -787.9,929.5 -1125.8,2329.5 -769.3,3187.3 273.2,657.5 1051.5,1247.4 2081.9,1577.9 1052.5,337.7 2079.1,315.7 2679.2,-57.2 600.3,-373.1 954.5,-1383.1 881.3,-2513.2 -81.7,-1261.9 -669,-2263 -1572.5,-2682.6 l 597.3,-1661.8"
         style="fill:#100f0d;fill-opacity:1;fill-rule:nonzero;stroke:none"
         id="path26" /><path
         d="m 22011,31887.7 405.3,300.9 c 116.2,86.2 282.1,45.8 345.6,-84.2 l 710.4,-1454.1 c 49.5,-101.2 18.9,-223.2 -72.4,-289.1 v 0 c -93.2,-67.2 -221.6,-55.8 -301.5,26.8 l -1115.8,1153.2 c -97.1,100.4 -83.7,263.2 28.4,346.5"
         style="fill:#587ac6;fill-opacity:1;fill-rule:nonzero;stroke:none"
         id="path28" /><path
         d="m 23593.5,30030.4 140.1,103.2 c 82.9,61.1 201.4,48.3 257.3,-27.8 l 256.1,-348.3 c 47.8,-65 33.4,-154.9 -33.8,-211 l -126.7,-105.7 c -81.1,-67.7 -205.1,-59.1 -264.5,18.2 l -269.4,350.9 c -52.4,68.2 -34.5,164.9 40.9,220.5"
         style="fill:#587ac6;fill-opacity:1;fill-rule:nonzero;stroke:none"
         id="path30" /><path
         d="m 24515.9,33110.4 583.3,104.6 c 167.2,29.9 320.6,-99.2 319.4,-269.1 l -12.8,-1900.1 c -0.9,-132.1 -96.9,-244.5 -227.3,-266 v 0 c -133.1,-22 -262.1,57.1 -303,185.7 L 24305,32761 c -49.6,156.2 49.5,320.5 210.9,349.4"
         style="fill:#587ac6;fill-opacity:1;fill-rule:nonzero;stroke:none"
         id="path32" /><path
         d="m 25075.3,30537.6 170.4,27.4 c 100.8,16.3 201.8,-44.9 219.3,-132.8 l 80.3,-402.4 c 15,-75.1 -36.7,-144.7 -121.2,-163.4 l -159.4,-35.2 c -102.1,-22.5 -209.9,37.3 -230,127.8 l -91.2,410.2 c -17.7,79.7 40.1,153.6 131.8,168.4"
         style="fill:#587ac6;fill-opacity:1;fill-rule:nonzero;stroke:none"
         id="path34" /><path
         d="m 3467.05,3893.1 c 0,0 4550.28,1162.1 6927.25,527.7 2377.1,-634.5 4527.5,-48.8 6930.9,0 2403.3,48.7 4641.1,637.3 5544.7,374.9 903.6,-262.4 21413.8,908.5 26643.3,-84.4 5229.4,-992.9 8421.4,-419.5 10187.2,-1011.9 0,0 -8394.1,-302.5 -11228.6,-1004.2 -2834.5,-701.7 -5815.1,264.5 -9230.7,0 -3415.6,-264.5 -2587.5,845.2 -7499.5,-118.5 -4911.9,-963.7 -5966.8,-1303.3 -10566.9,-624.1 -4600.1,679.1 -3988.9,-407.5 -6977.1,0 -2988.3,407.5 -5704.86,1727.9 -7198.99,1746.8 -1494.12,19 -3531.56,193.7 -3531.56,193.7"
         style="fill:#b5caec;fill-opacity:1;fill-rule:nonzero;stroke:none"
         id="path36" /><path
         d="m 45116.5,6779.7 c 20.7,376.1 45,755.2 153.3,1123.3 106.8,363.1 292.8,706.8 472.3,1049.8 416.7,796.4 809.1,1618.9 915.4,2478.6 167.3,1352.7 -386.2,2676.5 -278.6,4031.2 -557.7,-1368.1 -1394.4,-2647.9 -1960.6,-4013.6 -566.1,-1365.6 -847,-2893.2 -259.6,-4201.6 178.3,-397.2 433,-765.7 566.5,-1178 212.1,-654.8 -249.9,-1553 31.8,-2123.7 135.2,25.5 263.6,68.5 395.8,109.4 -108.8,315.1 -101.4,655.7 -93.1,989.8 7,279.3 14,558.6 20.9,837.9 7.5,297.4 19.6,599.2 35.9,896.9"
         style="fill:#587ac6;fill-opacity:1;fill-rule:nonzero;stroke:none"
         id="path38" /><path
         d="m 46972.3,6007.1 c 250.3,729.6 304.3,1492.2 302.4,2243.8 -2.2,849.3 -54.1,1762 479.4,2493.4 -620.5,-672.8 -1216,-1373.3 -1633.3,-2153 -417.3,-779.8 -649,-1650.3 -508.5,-2480.4 61.6,-363.9 193.4,-717.5 196.4,-1087.9 3,-370.4 -153.4,-743.6 -512.6,-969.8 627,-274 1539.9,1556.6 1676.2,1953.9"
         style="fill:#587ac6;fill-opacity:1;fill-rule:nonzero;stroke:none"
         id="path40" /><path
         d="m 50736.3,6222.9 c 317.7,104.7 636.6,230.1 886.5,436 307.6,253.5 481.2,603.7 643.1,943.3 239.7,502.5 473.3,1007 701.1,1513.3 -657.6,-594.4 -1481.2,-1045.6 -2368.7,-1297.4 -831.6,-236 -1803.3,-348.1 -2333.7,-968.8 -252.8,-295.7 -358.3,-662.6 -547,-991.7 -438.7,-765.1 -1291.3,-1277.3 -2105.2,-1752.2 138.9,81.1 512.4,62.4 691.2,123.4 235.6,80.4 452,194.6 635.3,350.4 311.3,264.5 486.4,505.4 886.6,704.4 909,452 1946.2,621.4 2910.8,939.3"
         style="fill:#587ac6;fill-opacity:1;fill-rule:nonzero;stroke:none"
         id="path42" /><path
         d="m 47542.4,6589.7 c -320.9,-367.9 -754.6,-670.8 -972.2,-1090.5 -117.4,162.6 -86,385.4 14.2,565.8 100.2,180.4 259.6,330.5 404.4,487 475.2,513.6 804.9,1113.5 1182.8,1684.3 372.8,563 814.7,1120 1443.2,1485.6 -378.5,-434 -749,-840.9 -1034.3,-1331.3 -348.6,-599 -564.8,-1258.2 -1038.1,-1800.9"
         style="fill:#587ac6;fill-opacity:1;fill-rule:nonzero;stroke:none"
         id="path44" /><path
         d="m 46030.5,12155.6 c 20.1,-411.5 25.3,-830.2 -93,-1234.7 -100.4,-343.2 -286.3,-664.7 -445,-992.7 -419.6,-867.3 -653.5,-1797.1 -685.2,-2723.9 -225.2,687.3 -197.6,1446.9 77.8,2141.9 155.3,392 386.2,761.7 530,1156.7 123.9,340.1 181.1,693.2 237.8,1044.2 92.2,571 178.4,1142.9 277.7,1713.3 75.2,-346.2 82.2,-740.8 99.9,-1104.8"
         style="fill:#ffffff;fill-opacity:1;fill-rule:nonzero;stroke:none"
         id="path46" /><path
         d="m 46193.3,4846.4 c 295.3,505.6 185.1,1417.8 233.6,1967.1 58.3,659 133.4,1322.3 364.6,1962 -383.5,-1299 135.1,-2673.7 -598.2,-3929.1"
         style="fill:#ffffff;fill-opacity:1;fill-rule:nonzero;stroke:none"
         id="path48" /><path
         d="m 51554.3,7940.7 c -145.9,-303.3 -299.1,-616.1 -569.1,-847.5 -311.1,-266.6 -735.8,-391.1 -1133.6,-537 -628,-230.4 -1224.6,-534.5 -1768.2,-901.2 653.2,568.8 1433.1,1024.1 2276.5,1329.2 171.5,62 347.8,118.9 499.8,214.1 469.1,293.7 667.6,919.8 1219.9,1038.8"
         style="fill:#ffffff;fill-opacity:1;fill-rule:nonzero;stroke:none"
         id="path50" /><path
         d="m 49694.2,9709.5 c 417.5,-291.4 481.2,-901.8 134.4,-1287.8 -34.4,-38.3 -73.4,-75.3 -123,-96.6 -103.5,-44.7 -230.3,-7.6 -304.4,64.4 -74.1,72.1 -105.1,171.3 -122.9,268.8 -54.2,296.5 -3.9,611.6 142.5,891.8 -244.4,-239 -668.6,-317.7 -982.3,-182.1 -66.5,28.7 -130.5,68.4 -161.3,127.7 -21,40.4 -24.9,86.8 -22.1,132 14.3,237.9 220.5,465.4 483.1,532.9 262.6,67.5 559.8,-30.5 696.3,-229.7 -80.3,216 -87.3,455.5 -19.9,681.3 44.7,149.6 124.9,297 257.1,402 132.2,104.9 322.5,160.5 485.8,115.4 257.1,-71 353.3,-362.1 275.2,-595.9 -78.1,-233.9 -280.3,-421.7 -475.2,-598.9 346,0.5 678.2,-158.8 857.9,-411.3 20.7,-29 39.9,-60.8 39.4,-95.8 -1.6,-114.8 -185.2,-149.9 -312.9,-131.8 -294.1,41.7 -570.6,155.7 -790.8,326 -20.9,16.1 -42.8,41.1 -28.2,63.2 14.6,22.1 59.2,-13.5 31.3,-19.4"
         style="fill:#b5caec;fill-opacity:1;fill-rule:nonzero;stroke:none"
         id="path52" /><path
         d="m 49507.9,9689.4 c -41.8,-120.3 131.7,-227.2 263.9,-178.1 132.2,49 191.9,197.2 161.2,316.9 -13.4,52.2 -41.8,102.4 -89.5,134.4 -127,85.4 -344.6,-13.2 -377.5,-155.7 -32.8,-142.4 88.8,-281.8 243.9,-321.2"
         style="fill:#587ac6;fill-opacity:1;fill-rule:nonzero;stroke:none"
         id="path54" /><path
         d="m 19290.9,6255.2 c -43.5,426.7 -90.8,856.5 -221.5,1265.1 -128.8,403 -335.7,775.7 -536,1148.4 -465.1,865.2 -907.4,1762.8 -1066,2732.1 -249.5,1525.2 223.7,3091.7 33.8,4625.4 640.7,-1502.5 1555.2,-2875.7 2204.3,-4374.6 649.1,-1499 1022.8,-3211.9 514.8,-4764.4 -154.2,-471.4 -386.5,-917.8 -495,-1401.7 -172.3,-768.5 344.3,-1745.1 97.3,-2424.9 -136.8,15.2 -267.8,50.9 -402.5,83.9 89.7,370.6 61.6,758.2 33,1138.4 -24,317.7 -47.9,635.4 -71.8,953.2 -25.5,338.3 -56,681.2 -90.4,1019.1"
         style="fill:#587ac6;fill-opacity:1;fill-rule:nonzero;stroke:none"
         id="path56" /><path
         d="m 17482.1,5183 c -294.7,806.2 -395,1670.2 -438.7,2527.4 -49.4,968.8 -53,2014.8 -630.8,2793.9 661.3,-703.3 1299.4,-1440.7 1764,-2286.9 464.7,-846.1 749.2,-1814.8 659.2,-2776 -39.5,-421.2 -149.8,-838 -130.4,-1260.7 19.5,-422.7 198.5,-832.1 571.6,-1053 C 18666.5,2750.6 17642.5,4744 17482.1,5183"
         style="fill:#587ac6;fill-opacity:1;fill-rule:nonzero;stroke:none"
         id="path58" /><path
         d="m 13705,5041.3 c -324,86.7 -650.6,196.8 -912.9,405.8 -323.1,257.4 -518,638.8 -700.5,1009.4 -270.1,548.3 -534.5,1099.5 -792.9,1653.4 693.6,-610.1 1544.7,-1039.7 2447.4,-1235.4 846,-183.5 1824.4,-211.2 2392.5,-864.2 270.7,-311.3 398.6,-718.7 607.2,-1074.5 485.2,-827.3 1368.9,-1323.5 2211.7,-1781.2 -143.8,78.1 -516.2,18.3 -698.7,69.5 -240.5,67.4 -463.9,175.3 -656.7,334 -327.3,269.6 -517,526.2 -929.3,712 -936.4,421.8 -1983.9,508.1 -2967.8,771.2"
         style="fill:#587ac6;fill-opacity:1;fill-rule:nonzero;stroke:none"
         id="path60" /><path
         d="m 16876.6,5788.6 c 343.2,-386.5 795.3,-687.2 1038.4,-1143.3 107.5,197.4 62.6,448.3 -48.5,643.7 -111.2,195.4 -279.8,350.2 -434.1,513.7 -506.3,536.7 -872.4,1186.8 -1285,1798.7 -407,603.6 -882.7,1193.2 -1533.4,1545.4 404.8,-455.9 800,-881.7 1115.2,-1411.6 384.9,-647.1 641.1,-1376.5 1147.4,-1946.6"
         style="fill:#587ac6;fill-opacity:1;fill-rule:nonzero;stroke:none"
         id="path62" /><path
         d="m 18050.4,12291.2 c 5,-471.3 25.2,-949.3 168,-1398.4 121.2,-381 326.7,-728.4 505.3,-1086.1 472.3,-945.8 762.7,-1982 850.6,-3035.5 183.5,806.9 109.8,1670.2 -207.8,2434.3 -179.2,431 -432.5,828.9 -600.3,1264.4 -144.6,375.2 -223.2,771.9 -301.2,1166.2 -126.9,641.7 -247.9,1285 -381.8,1925.2 -54.2,-402.6 -37.2,-853.3 -32.8,-1270.1"
         style="fill:#ffffff;fill-opacity:1;fill-rule:nonzero;stroke:none"
         id="path64" /><path
         d="m 18331.5,3939.6 c -326,546.2 -271.2,1597.8 -353.1,2219.2 -98.2,745.3 -213.6,1494 -483.7,2199.6 462.5,-1441.8 27.3,-3062.7 836.8,-4418.8"
         style="fill:#ffffff;fill-opacity:1;fill-rule:nonzero;stroke:none"
         id="path66" /><path
         d="m 12782.7,6915.8 c 164.3,-330.8 336.5,-671.7 620.6,-907.7 327.2,-272 759.5,-370.1 1166.1,-495.6 642,-198 1257.1,-483.3 1823,-845.5 -687.8,581.3 -1495.4,1020.2 -2357.2,1281.1 -175.3,53.1 -355.1,99.9 -512.9,192.7 -486.9,286.6 -723.4,980.2 -1282.9,1058.9"
         style="fill:#ffffff;fill-opacity:1;fill-rule:nonzero;stroke:none"
         id="path68" /><path
         d="m 14535.3,9124.5 c -399.7,-375.3 -426.3,-1078 -56.1,-1482.4 36.7,-40.1 77.9,-78.3 128.8,-97.5 106.3,-40.3 230.8,15.1 300.5,104.9 69.7,89.7 94.7,206.1 106.6,319.1 36.2,343.7 -33.3,697.8 -196.7,1002.3 259,-247.4 687.9,-293.4 993.4,-106.6 64.7,39.6 126.3,91.5 153.5,162.3 18.5,48.2 19.6,101.5 14.1,152.9 -28.7,269.7 -248.8,507.9 -515.5,557.8 -266.6,49.9 -557.9,-92.5 -682.3,-333.6 67.2,254.6 59.6,528.4 -21.5,778.9 -53.8,166 -142.9,325.8 -281.5,431.9 -138.6,106 -332.2,149.8 -492.8,81.5 -252.8,-107.4 -331.4,-449.2 -239.1,-707.9 92.3,-258.6 305.9,-451.9 511.6,-633.8 -345.9,-35.1 -668.5,-251 -832.9,-557.5 -18.9,-35.2 -36.2,-73.4 -33.5,-113.2 8.6,-130.8 194.3,-151.9 320.9,-118.1 291.5,77.9 561.1,236.3 771,453.2 19.8,20.5 40.2,51.3 24.3,75 -16,23.6 -58.3,-21.5 -30.1,-25.4"
         style="fill:#ffffff;fill-opacity:1;fill-rule:nonzero;stroke:none"
         id="path70" /><path
         d="m 14722.9,9120.7 c 49,-132.9 -117.9,-272.6 -253.1,-230.3 -135.2,42.3 -203.9,205.2 -180.5,344.8 10.2,60.9 35.6,121 81.3,162.5 121.8,110.4 345.5,20.4 387,-138.6 41.5,-159.1 -71.7,-330.6 -224.4,-391.5"
         style="fill:#587ac6;fill-opacity:1;fill-rule:nonzero;stroke:none"
         id="path72" /><path
         d="m 15199.3,3041 c -532.3,-233.4 2653.1,162.2 5019.4,-250.9 2366.3,-413.1 3454.4,655.9 6374,656.2 2919.6,0.4 4273.8,-654.6 6017,-346.3 1743.1,308.2 7572.6,350.6 11987.6,302.9 2131.3,-23 2533.2,810.2 4115,554.3 0,0 -539.9,684 -2798.6,408.2 -2258.7,-275.9 -5238.8,-229 -8431.4,-276 -3192.7,-47 -3148.2,261.5 -7522.9,237.3 -4374.7,-24.2 -5167.5,-27.8 -6665.5,-627.3 -1498,-599.4 -6029.3,247.3 -8094.6,-658.4"
         style="fill:#100f0d;fill-opacity:1;fill-rule:nonzero;stroke:none"
         id="path74" /><path
         d="m 37843.3,3751.7 c -1032,-131.9 -2068,-231.5 -3106.2,-298.6 -135.5,-8.7 -275.2,-16.4 -403.8,27.2 -128.6,43.7 -245.1,151.7 -256.5,287.1 -17,201.3 189.2,347 379.9,413.7 221,77.2 455.8,110.2 674.9,192.7 219,82.4 431.3,228.8 511.1,448.8 170.4,470.3 67.3,718.6 661.7,774.2 306.8,28.7 961.4,160.6 1241.6,9 364.1,-197 839.9,-1785.3 297.3,-1854.1"
         style="fill:#587ac6;fill-opacity:1;fill-rule:nonzero;stroke:none"
         id="path76" /><path
         d="m 37143.9,5657.9 c -202.6,0 -431,-29.9 -620,-54.6 -84.1,-11 -156.7,-20.5 -217.6,-26.2 -447.4,-41.8 -485.1,-187.1 -560.2,-476.4 -21.7,-83.7 -46.3,-178.6 -84.8,-284.8 -96.3,-265.9 -368.9,-402.8 -522.8,-460.7 -116.7,-43.9 -239.3,-74.3 -357.9,-103.6 -105.2,-26.1 -213.9,-53 -317.4,-89.2 -179.1,-62.6 -382.7,-203.2 -366.6,-393.3 11.2,-133.3 130.1,-231.7 243.1,-270 128.1,-43.6 270.6,-34.3 396.2,-26.2 1033.2,66.8 2077.8,167.2 3104.8,298.4 h 0.1 c 112.4,14.3 184.3,100.7 213.5,256.9 89.6,479.1 -258.1,1419.7 -517.7,1560.2 -95.5,51.7 -236.4,69.5 -392.7,69.5 z m -2569,-2231.5 c -82.6,0 -167.2,7.7 -248,35.2 -125.2,42.5 -257.1,153 -269.8,304.1 -18,212.5 191.3,363.5 393.1,434.1 105.2,36.8 214.8,63.9 320.9,90.2 117.5,29.1 238.9,59.2 353.5,102.3 147.5,55.5 408.5,186.1 499.5,437 37.8,104.6 62.2,198.5 83.7,281.3 74.7,287.8 119.7,461.5 594.8,505.9 60.2,5.6 132.5,15.1 216.2,26.1 340.1,44.5 806.1,105.4 1036.7,-19.4 298.5,-161.5 625.2,-1134.8 537.8,-1602.3 -32.3,-172.5 -117.9,-272.4 -247.6,-288.9 -1027.8,-131.3 -2073.2,-231.8 -3107.3,-298.6 -52.3,-3.4 -107.4,-7 -163.5,-7"
         style="fill:#100f0d;fill-opacity:1;fill-rule:nonzero;stroke:none"
         id="path78" /><path
         d="m 23878.2,3426.9 c 0,0 5071,1109.3 9904.2,0 l -635.4,4750.8 -1464.3,7094.6 -831.9,2297.8 -4437.1,-198.1 -1188.5,-4278.6 -1347,-9666.5"
         style="fill:#100f0d;fill-opacity:1;fill-rule:nonzero;stroke:none"
         id="path80" /><path
         d="m 27879.5,9012.9 792.4,-5110.6 5345.2,-484.5 -1145.8,6268.6 -3842.9,356.5 -1148.9,-1030"
         style="fill:#f5b05d;fill-opacity:1;fill-rule:nonzero;stroke:none"
         id="path82" /><path
         d="m 27846.3,10860.7 c 24.6,-36.4 55.5,-76.5 99.4,-78.9 43,-2.3 79.4,33.4 122.2,38.5 122.9,14.8 153.3,-201.1 274.9,-224.1 74.7,-14.1 148.1,54.4 222,36.3 39,-9.6 68,-41.3 94.3,-71.6 137.5,-158 270.4,-319.9 398.6,-485.4 -236.8,-511.1 -761.8,-876.4 -1323.3,-920.7 -16.4,142.3 -223.7,232.2 -187.1,370.7 9.9,37.5 37.1,67.7 55.1,102 85.5,162.4 -47.5,350 -171.9,485 40,48.9 80,97.9 120,146.8 -383.6,528.3 -767.3,1056.6 -1150.9,1584.8 172.5,151.2 300.6,331.8 447.3,502.5 345.3,-484.3 665,-990.6 999.4,-1485.9"
         style="fill:#587ac6;fill-opacity:1;fill-rule:nonzero;stroke:none"
         id="path84" /><path
         d="m 27456.7,10113.2 c 180,-199.5 233.5,-361.5 163.3,-494.9 -6.6,-12.6 -14.3,-24.5 -22.1,-36.5 -13.3,-20.6 -25.8,-40 -31.4,-61.3 -17.4,-65.8 31.7,-122.5 83.6,-182.4 42.8,-49.4 86.9,-100.3 100.8,-162 547.4,49.9 1048.6,399.8 1283.7,896.8 -125,161.1 -256.3,320.9 -390.4,475 -27,31.1 -52,57.4 -84.1,65.4 -32,7.8 -65.9,-4.2 -101.8,-17 -38,-13.5 -77.3,-27.4 -119.2,-19.5 -65.3,12.3 -104.8,69.5 -143,124.9 -39,56.6 -72.8,104.8 -125.8,99 -16,-1.9 -32,-9.5 -48.8,-17.5 -23.7,-11.2 -48.2,-22.9 -76.9,-21.1 -50.7,2.7 -85.1,43.6 -114.7,87.5 h -0.1 c -118,174.9 -236.1,354 -350.3,527.2 -204.6,310.2 -416,630.8 -634.1,937.6 -35.1,-41.5 -69.4,-83.4 -103.5,-125.3 -96.6,-118.5 -196.3,-240.8 -315.7,-347.8 l 1149.3,-1582.7 z m 260.2,-979.7 -2.2,19 c -6.7,58.3 -51.3,109.8 -94.5,159.6 -56.4,65.2 -114.7,132.5 -92,218.5 7.2,27.4 22.1,50.4 36.5,72.7 7,11 14.2,21.9 20.2,33.4 62.9,119.6 7.6,270.8 -169,462.3 l -11.6,12.7 121.3,148.3 -1152.7,1587.1 13.6,12 c 123,107.6 225.5,233.4 324.7,355 39.7,48.7 79.4,97.4 120.6,145.4 l 16.5,19.1 14.7,-20.5 c 223.7,-313.7 440.2,-642 649.6,-959.5 114.1,-173.1 232.2,-352.1 350.1,-526.8 v 0 c 23.9,-35.4 50.6,-68.4 84.1,-70.2 18.6,-0.6 37.6,7.9 57.7,17.4 19,9 38.6,18.3 61,21 77,9.6 120.8,-54.3 163.2,-115.8 33.7,-48.8 68.5,-99.2 117.8,-108.5 31.2,-5.8 63.9,5.7 98.6,18 39.8,14.1 81,28.8 124.4,18 43.4,-10.7 74.2,-42.9 104.6,-77.8 137.2,-157.8 271.5,-321.4 399.3,-486.3 l 7.4,-9.5 -5.1,-10.9 c -241.4,-521 -767.3,-886.9 -1339.7,-932.1 l -19.1,-1.6"
         style="fill:#100f0d;fill-opacity:1;fill-rule:nonzero;stroke:none"
         id="path86" /><path
         d="m 29044.7,10037.2 c -76.5,-494.6 -495,-916.8 -988.8,-997.7 -61.2,-10 -123.2,-6.6 -183.8,6.7 -388.7,85.5 1197,1148.7 1172.6,991"
         style="fill:#ffffff;fill-opacity:1;fill-rule:nonzero;stroke:none"
         id="path88" /><path
         d="m 29025.2,10040.2 19.5,-3.1 -19.6,3.5 c 0,-0.2 0,-0.3 0.1,-0.4 z m -1.2,-6.6 c -95.7,-4.5 -749.7,-412.1 -1061.1,-729.6 -128.8,-131.4 -137.3,-187.3 -130.9,-208.8 1.6,-5.3 6.4,-21.3 44.4,-29.6 61.1,-13.5 120.5,-15.6 176.3,-6.5 485.7,79.5 893.2,488.8 971.3,974.5 z M 27983.5,9013.9 c -37.7,0 -76.3,4.4 -115.6,13 -78.9,17.3 -80.8,70 -74.9,99.9 31.5,159.1 424.4,456.3 591.8,576.8 261.8,188.3 579.6,381.9 652.5,368.5 19.1,-3.3 29.9,-18.6 26.9,-38 l -19.5,3 19.5,-3 c -78,-505 -500.8,-931.5 -1005.1,-1014.1 -24.7,-4.1 -49.9,-6.1 -75.6,-6.1"
         style="fill:#100f0d;fill-opacity:1;fill-rule:nonzero;stroke:none"
         id="path90" /><path
         d="m 25467.9,15112.3 c -161.4,-519 -365.5,-1043.4 -332.3,-1585.8 178.5,-10.6 356.9,-21.3 535.4,-31.9 48.7,-2.9 101.3,-4.8 142.1,22 39.2,25.9 58.5,72.6 75.3,116.6 414.9,1084.2 720.2,2210.4 909.7,3355.7 -215.1,14.3 -430.1,28.7 -645.2,43 -434.5,28.9 -329.2,-406.3 -389.4,-727.8 -75.2,-402.6 -174,-800.8 -295.6,-1191.8"
         style="fill:#587ac6;fill-opacity:1;fill-rule:nonzero;stroke:none"
         id="path92" /><path
         d="m 25154.4,13545.2 517.8,-30.8 c 50.8,-3 95.7,-3.7 130,18.8 33,21.8 50.2,61.3 67.7,107 411.3,1074.9 715.8,2195.2 905,3330.4 l -623.3,41.5 c -102,6.8 -177.1,-12.2 -229.3,-58.1 -94.3,-82.9 -104.4,-244.5 -115,-415.5 -5,-79.6 -10.1,-162 -24.3,-238 -75.1,-401.8 -174.8,-803.5 -296.2,-1194.1 l -18.9,5.8 18.9,-5.8 c -23.3,-75 -47.5,-150.1 -71.8,-225.4 -139.7,-433.4 -284.1,-881.4 -260.6,-1335.8 z m 559.4,-72.1 c -15.6,0 -30.5,0.9 -44,1.7 l -552.9,32.9 -1.1,17.5 c -28.6,467.9 118.9,925.4 261.5,1368 24.2,75.1 48.4,150.1 71.7,224.9 v 0 c 120.9,389.1 220.2,789.4 295.1,1189.7 13.7,73.6 18.8,154.7 23.6,233.2 11.2,179.4 21.8,349 128.5,442.8 60.5,53.2 145,75.2 258,67.9 l 667,-44.5 -3.6,-21.6 c -189.4,-1145.1 -495.8,-2275.4 -910.7,-3359.5 -15.5,-40.3 -36.6,-95.5 -83,-126 -33.5,-22.1 -73.7,-27 -110.1,-27"
         style="fill:#100f0d;fill-opacity:1;fill-rule:nonzero;stroke:none"
         id="path94" /><path
         d="m 25836,13470.2 c 8.5,60.1 11.7,133.4 -37.9,168.3 -27.8,19.5 -64.1,20.2 -98,20.2 -187.3,-0.3 -374.7,-0.5 -562,-0.7 -43.3,0 -89.4,-0.9 -125.3,-25 -43.6,-29.3 -60.4,-84.3 -74,-135.1 -152.8,-569.5 -292.2,-1142.6 -418,-1718.7 -106.6,-488.3 -374.3,-1178.6 -309.2,-1676.7 22.8,-174.3 107.9,-269.2 267.8,-335.8 86.5,-36.1 184.7,-41.2 276.5,-51.2 200.9,-21.8 199.3,-27.7 299.8,128.1 283.6,439.6 362.1,1178.5 465.1,1684.3 130.8,643 223.1,1292.9 315.2,1942.3"
         style="fill:#587ac6;fill-opacity:1;fill-rule:nonzero;stroke:none"
         id="path96" /><path
         d="m 25701.6,13638.8 c -0.5,0 -1,0 -1.5,0 l -562,-0.6 c -36.6,-0.1 -82.2,-0.1 -114.3,-21.6 -36.8,-24.7 -52.1,-72.7 -65.9,-123.8 -152.2,-567.3 -292.7,-1145.2 -417.7,-1717.8 -29.2,-134 -70.3,-282 -113.7,-438.7 -113.5,-409.3 -242.1,-873.3 -195.3,-1231.3 21,-160.4 95.1,-253.1 255.8,-320 71.2,-29.7 152.1,-37.8 230.4,-45.6 l 61,-6.4 c 170.3,-18.8 170.3,-18.7 260.7,121.4 223.9,347 317.8,877 400.6,1344.7 20.9,118.2 40.7,229.9 61.7,332.8 131.1,644.4 224.6,1303.6 315,1941.1 v 0 c 7.7,54.4 11.3,120.5 -29.7,149.3 -21.5,15.1 -51.3,16.5 -85.1,16.5 z m -813.9,-3954.1 c -29.2,0 -65.6,3.6 -113.6,8.9 l -60.7,6.4 c -81.1,8.1 -165,16.5 -241.6,48.4 -173.4,72.2 -257.1,177.3 -279.8,351.5 -47.9,366 81.8,834 196.3,1247 43.3,156.1 84.2,303.6 113.2,436.6 125.1,573.1 265.8,1151.7 418.2,1719.6 15.1,56.3 33.9,114.1 82.1,146.3 42,28.3 94.3,28.4 136.3,28.4 l 562,0.6 c 32.3,-0.1 75.5,0.1 109.4,-23.7 58.6,-41.2 55.4,-121.7 46.1,-187.3 v 0 c -90.5,-638 -184,-1297.8 -315.4,-1943.4 -20.9,-102.4 -40.6,-213.9 -61.5,-331.9 -83.5,-471.3 -178.1,-1005.5 -406.4,-1359.2 -75.1,-116.5 -98.9,-148.2 -184.6,-148.2"
         style="fill:#100f0d;fill-opacity:1;fill-rule:nonzero;stroke:none"
         id="path98" /><path
         d="m 26308,12094.2 c -103.4,-199.1 -95,-485.8 95.7,-603.9 -77.7,-29.6 -87.6,-139.9 -54.1,-216 33.6,-76.1 95.4,-138.3 120.9,-217.5 19,-58.8 16.2,-122.2 25.3,-183.4 25.3,-169.6 150,-320.7 311.7,-377.7 107.3,184.3 -44.9,417.3 -11.5,627.9 17.9,113.3 88.3,210.3 157.8,301.5 135.2,177.4 275.3,350.9 420.1,520.5 91.9,-135.4 44.9,-315.9 40.7,-479.5 -4.2,-163.6 97.2,-369.2 258.4,-341.1 57.6,356.1 115.4,713.9 119.4,1074.7 2.6,231.3 -17,463.3 4.3,693.7 26,281.5 112.5,554.1 217,816.6 624.9,1568.9 1898.4,2838.7 2375.9,4458.5 -627.2,168.8 -1265.9,294.9 -1910.2,377.1 -86,11 -566.9,-1196.9 -622.8,-1326 -197,-455.3 -375.8,-919.2 -517.2,-1394.9 -141.8,-477.5 -246.4,-967 -290.7,-1463.6 -31.6,-354.8 56.1,-721.6 10.1,-1069.2 -69.1,-523.3 -527.4,-767.5 -750.8,-1197.7"
         style="fill:#fbc589;fill-opacity:1;fill-rule:nonzero;stroke:none"
         id="path100" /><path
         d="m 28476.9,18526 c -48,-20.7 -234.7,-421.9 -551.4,-1192 -24.5,-59.7 -42.4,-103 -50.7,-122.3 -220.4,-509.4 -389.3,-965 -516.4,-1392.7 -153.6,-517 -248.5,-994.5 -289.9,-1459.6 -14.8,-166.1 -3.1,-338.2 8.4,-504.6 12.8,-186.9 26,-380.2 1.6,-565.5 -43.3,-327.4 -238.9,-550.8 -428.1,-766.8 -117.9,-134.5 -239.7,-273.7 -324.8,-437.5 v 0 c -98.9,-190.3 -93.1,-465.4 88.5,-577.9 l 34.1,-21.1 -37.5,-14.2 c -21.9,-8.4 -38.2,-25 -48.4,-49.5 -16.7,-39.8 -14.5,-94.7 5.4,-139.9 14.2,-32.1 33.4,-61.4 53.8,-92.3 25.9,-39.5 52.8,-80.4 67.9,-127.2 13,-40.3 16.3,-82.2 19.5,-122.7 1.7,-21.4 3.4,-42.8 6.5,-63.9 23.3,-156.5 136,-297.4 282.9,-356 48.2,97 25.5,209 1.5,327.1 -18.7,92.1 -38,187.2 -23.4,279.3 18.2,114.7 86.8,212.3 161.7,310.4 134.6,176.7 276.2,352.1 420.7,521.3 l 16.9,19.8 14.6,-21.5 c 74.3,-109.5 62.8,-244.6 51.7,-375.2 -3.2,-38.5 -6.6,-78.1 -7.6,-115.9 -2.7,-109.1 42.2,-225.8 109.3,-283.7 34,-29.4 71.7,-42.7 112.1,-39.2 55.9,345.4 112.8,702.1 116.8,1057.2 0.9,81 -1,163.5 -2.8,243.4 -3.3,148.1 -6.7,301.4 7.2,451.9 22.4,243.2 91.8,504.5 218.3,822.2 282.9,710.3 704.5,1368.9 1112.2,2005.8 489,763.9 994.6,1553.7 1257.3,2431.5 -618.1,165.3 -1253.2,290.2 -1887.9,371.3 z m -1660.5,-8054.4 -15.5,5.4 c -167.9,59.2 -298.4,217.3 -324.7,393.5 -3.2,22 -5,44.2 -6.8,66.5 -3.2,40 -6.2,77.8 -17.7,113.7 -13.5,41.7 -37.7,78.6 -63.3,117.6 -20.4,31 -41.5,63 -56.9,98.1 -24.1,54.7 -26.4,121.9 -5.8,171.2 9.5,22.6 23.3,41 40.7,54.3 -174.7,133.7 -178,415 -76,611.4 87.3,168 210.8,309 330.2,445.3 193.8,221.3 376.9,430.3 418.6,745.9 23.9,181.4 10.8,372.6 -1.9,557.6 -11.5,167.9 -23.4,341.6 -8.3,510.8 41.7,467.8 137,947.8 291.4,1467.4 127.6,429.2 297,886.3 518,1397.2 8.3,19.1 26,62.2 50.5,121.5 420.3,1022.2 538.7,1223.3 593,1216.3 643.2,-82.1 1286.7,-209.2 1912.9,-377.6 l 19.6,-5.3 -5.8,-19.5 C 30146,17272 29635,16473.8 29140.9,15701.8 c -406.7,-635.3 -827.3,-1292.3 -1108.8,-1999.1 -125,-314.1 -193.6,-571.8 -215.7,-811.1 -13.7,-148.3 -10.3,-300.4 -7,-447.5 1.8,-80.1 3.7,-163 2.8,-244.7 -4,-363 -62.8,-726.3 -119.6,-1077.6 l -2.3,-13.9 -13.9,-2.4 c -57.1,-10 -111.9,6.1 -158.6,46.4 -75.5,65.1 -126,194.5 -123,314.7 1,39 4.5,79.2 7.8,118.2 9.7,114.5 19.7,232.6 -31.4,327.1 -137.9,-162.3 -272.9,-330 -401.7,-498.8 -71.6,-93.9 -137.2,-187 -154,-292.6 -13.4,-85 5.1,-176.6 23.1,-265.2 25.6,-125.9 52,-256.2 -14,-369.5 l -8.2,-14.2"
         style="fill:#100f0d;fill-opacity:1;fill-rule:nonzero;stroke:none"
         id="path102" /><path
         d="m 28367.7,18780.6 c -61.9,224.6 4.5,466.9 114.4,672.4 77.1,144.1 231.5,294.5 381.2,228.8 103,366.6 256.1,716.8 408.8,1065.6 515.2,1177 1061.4,2396.8 2040.8,3228.5 710.9,-584 1421.9,-1168 2132.9,-1752.1 -1138.5,-763 -1882.7,-1974.2 -2591.3,-3147.3 -38.6,-64 -78.2,-130.5 -87.1,-204.8 -8.2,-68.5 10.4,-136.9 19.1,-205.4 31.3,-245.1 -75.1,-503.2 -269.9,-655.1 -23.2,-18.1 -567.5,221 -640,240.4 -226.5,60.6 -463.2,103.4 -697.9,112.6 -333.8,13.1 -700.5,15.5 -811,416.4"
         style="fill:#ffffff;fill-opacity:1;fill-rule:nonzero;stroke:none"
         id="path104" /><path
         d="m 28788.7,19677.7 c -112.1,0 -223.7,-111.7 -289.1,-234.1 -88.6,-165.4 -180,-413.9 -112.8,-657.7 v 0 c 103.4,-375.5 439.3,-388.4 764,-400.7 l 28.7,-1.1 c 216.6,-8.5 452.8,-46.6 702.2,-113.3 28.7,-7.7 123.5,-46.5 233.4,-91.3 141.7,-57.9 353.7,-144.5 393.7,-149.3 187.1,148.6 288.3,396.6 258.1,633.6 -2.3,18.2 -5.4,36.4 -8.4,54.6 -8.4,50.5 -17.1,102.8 -10.8,155.7 9.6,79.8 52.3,150.4 89.9,212.6 667.8,1105.7 1424.2,2358 2575.1,3138.7 l -2099.6,1724.7 c -987.6,-845.4 -1537.5,-2101.7 -2022.9,-3210.7 -150,-342.7 -305.1,-697 -407.8,-1063 l -6.2,-21.9 -20.8,9.1 c -22,9.6 -44.4,14.1 -66.7,14.1 z m 1724.2,-1686.8 c -32.1,0 -118.1,31.5 -412.8,151.9 -104.1,42.5 -202.4,82.7 -228.6,89.7 -246.6,65.9 -479.9,103.6 -693.6,112 l -28.6,1.1 c -323.2,12.3 -689.5,26.3 -800.7,429.7 -70.6,256.5 24.1,515.2 116,687 82.9,154.9 236.5,292.9 385.5,245.6 103.5,361.2 256.1,709.9 403.9,1047.4 489.1,1117.6 1043.6,2384.3 2046,3235.7 l 12.7,10.7 2166.2,-1779.5 -22.1,-14.8 c -1156,-774.7 -1915.3,-2031.9 -2585.3,-3141.2 -35.5,-58.8 -75.8,-125.5 -84.4,-196.8 -5.7,-47.3 2.2,-94.5 10.5,-144.5 3.1,-18.7 6.2,-37.4 8.6,-56.1 32.1,-252.4 -76.7,-516.7 -277.4,-673.2 -3.6,-2.9 -8.2,-4.7 -15.9,-4.7"
         style="fill:#100f0d;fill-opacity:1;fill-rule:nonzero;stroke:none"
         id="path106" /><path
         d="m 23320.1,6483.2 c -26.8,-100.7 -49.5,-220.6 19.4,-298.9 29.2,-33.2 70.8,-52.7 111.9,-69.3 244.3,-98.8 516.4,-128 776.2,-83.3 589.3,1261.9 936,2636.6 1015.7,4027 -221,9.7 -772.3,142.6 -952.9,-19 -198.7,-177.7 -249.7,-848.3 -318.2,-1105.6 -217.3,-817 -434.7,-1634 -652.1,-2450.9"
         style="fill:#acc6ea;fill-opacity:1;fill-rule:nonzero;stroke:none"
         id="path108" /><path
         d="m 23339.3,6478 c -28,-105.1 -45.5,-211.8 15,-280.6 27.5,-31.2 68.4,-49.4 104.5,-64 236.1,-95.5 503.8,-125.1 755.2,-83.9 579,1242.8 927.4,2621.9 1008.4,3990.6 -52.3,3.5 -118.2,12.2 -193.2,22.2 -251.5,33.2 -596,78.6 -725.6,-37.3 -138.8,-124.1 -206.4,-518.4 -255.8,-806.3 -20,-117 -37.3,-217.9 -56.4,-289.7 z m 650,-486.2 c -186.5,0 -374,35.6 -545.3,104.9 -40.4,16.3 -86.2,36.8 -119.4,74.6 -72.9,82.7 -54.4,201.2 -23.6,317 l 652.1,2450.9 c 18.6,70 35.8,170.2 55.7,286.1 53.2,310.1 119.3,695.9 268.4,829.2 143.1,128.1 498,81.3 757.2,47 84,-11.1 156.5,-20.6 209.8,-23 l 20,-0.9 -1.1,-20 C 25183.8,8674 24832,7279 24245.5,6023.3 l -4.4,-9.3 -10.2,-1.8 c -79.3,-13.7 -160.4,-20.4 -241.6,-20.4"
         style="fill:#100f0d;fill-opacity:1;fill-rule:nonzero;stroke:none"
         id="path110" /><path
         d="m 23849.3,3456.8 c 264.4,939 435.1,1904.3 508.5,2877 -370.9,142.1 -777.7,189.8 -1171.4,137.3 -38.5,0 -239.2,-2019.2 -261.4,-2206.6 -24.9,-209.4 -130.1,-553.7 39.4,-731.1 189.8,-198.7 650.7,-123.6 884.9,-76.6"
         style="fill:#587ac6;fill-opacity:1;fill-rule:nonzero;stroke:none"
         id="path112" /><path
         d="m 23192,6451.9 c -1,-0.2 -2,-0.3 -3,-0.5 1.1,0.1 2,0.2 3,0.5 z m 6.7,0.8 c -36.9,-116.1 -164.7,-1340.4 -220.1,-1870.1 -17,-163 -29.4,-281.4 -34,-320.4 -4.7,-40.1 -12.4,-84.9 -20.4,-132.2 -33.9,-198.8 -76.1,-446.3 54.5,-582.9 129,-135.2 416.6,-159.8 854.8,-73.2 260.5,928 429.9,1885.6 503.5,2846.7 -361.9,135.9 -754.9,181.5 -1138.3,132.1 z m 189.2,-3069.6 c -206.1,0 -350.7,45.4 -437.9,136.6 -144.3,151 -100.2,409.4 -64.9,616.9 8,46.9 15.5,91.1 20.2,130.2 4.6,39 16.9,157.2 33.9,319.9 198.9,1904.2 216,1904.2 247.2,1904.2 395.2,52.8 803.6,5.1 1178.5,-138.5 l 13.8,-5.3 -1.1,-14.8 c -73.5,-972.7 -244.8,-1941.9 -509.2,-2880.9 l -3.3,-11.6 -11.9,-2.4 c -180.3,-36.2 -335,-54.3 -465.3,-54.3"
         style="fill:#100f0d;fill-opacity:1;fill-rule:nonzero;stroke:none"
         id="path114" /><path
         d="m 32163.1,15112.3 c 161.3,-519 365.4,-1043.4 332.2,-1585.8 -178.4,-10.6 -356.9,-21.3 -535.3,-31.9 -48.8,-2.9 -101.3,-4.8 -142.1,22 -39.3,25.9 -58.5,72.6 -75.3,116.6 -415,1084.2 -720.3,2210.4 -909.7,3355.7 215,14.3 430,28.7 645.2,43 434.4,28.9 329.2,-406.3 389.3,-727.8 75.3,-402.6 174.1,-800.8 295.7,-1191.8"
         style="fill:#acc6ea;fill-opacity:1;fill-rule:nonzero;stroke:none"
         id="path116" /><path
         d="m 30856,16970.6 c 189.3,-1135.2 493.7,-2255.5 905.1,-3330.4 17.5,-45.7 34.7,-85.2 67.7,-107 34.2,-22.5 78.9,-21.8 130,-18.8 l 517.8,30.8 c 23.4,454.3 -120.9,902.3 -260.6,1335.7 -24.3,75.3 -48.5,150.4 -71.9,225.5 -121.4,390.4 -221,792.1 -296.2,1194.1 -14.2,76 -19.3,158.4 -24.2,238 -10.7,171 -20.7,332.6 -115.1,415.5 -52.2,45.9 -127.2,65 -229.2,58.1 z m 1061.2,-3497.5 c -36.4,0 -76.6,4.9 -110.2,27 -46.4,30.5 -67.5,85.7 -82.9,126 -414.9,1084.1 -721.3,2214.4 -910.8,3359.5 l -3.5,21.6 667,44.5 c 113,7.4 197.4,-14.7 258,-67.9 106.7,-93.8 117.2,-263.4 128.4,-442.8 4.9,-78.5 9.9,-159.6 23.7,-233.2 74.9,-400.5 174.1,-800.7 295.1,-1189.7 v 0 c 23.3,-74.9 47.5,-149.9 71.7,-225 142.6,-442.5 290.1,-900 261.4,-1367.9 l -1.1,-17.5 -552.9,-32.9 c -13.4,-0.8 -28.3,-1.7 -43.9,-1.7"
         style="fill:#100f0d;fill-opacity:1;fill-rule:nonzero;stroke:none"
         id="path118" /><path
         d="m 31795,13470.2 c -8.6,60.1 -11.8,133.4 37.9,168.3 27.7,19.5 64,20.2 97.9,20.2 187.4,-0.3 374.7,-0.5 562,-0.7 43.3,0 89.4,-0.9 125.3,-25 43.7,-29.3 60.4,-84.3 74,-135.1 152.8,-569.5 292.2,-1142.6 418,-1718.7 106.6,-488.3 374.4,-1178.6 309.3,-1676.7 -22.8,-174.3 -107.9,-269.2 -267.9,-335.8 -86.5,-36.1 -184.6,-41.2 -276.4,-51.2 -200.9,-21.8 -199.3,-27.7 -299.8,128.1 -283.7,439.6 -362.2,1178.5 -465.1,1684.3 -130.9,643 -223.2,1292.9 -315.2,1942.3"
         style="fill:#587ac6;fill-opacity:1;fill-rule:nonzero;stroke:none"
         id="path120" /><path
         d="m 31814.6,13473 c 90.3,-637.3 183.8,-1296.3 315,-1941.1 20.9,-103 40.7,-214.7 61.7,-333 82.8,-467.6 176.7,-997.5 400.6,-1344.5 90.3,-140 90.2,-140 260.6,-121.4 l 61.1,6.4 c 78.2,7.8 159.1,15.9 230.3,45.6 160.7,66.9 234.8,159.6 255.8,320 46.8,358 -81.8,821.9 -195.3,1231.3 -43.4,156.7 -84.4,304.7 -113.7,438.7 -124.9,572.6 -265.5,1150.5 -417.7,1717.8 -13.7,51.1 -29.1,99.1 -65.9,123.8 -32.1,21.5 -77.7,21.5 -114.3,21.6 l -562,0.6 c -0.4,0 -1,0 -1.4,0 -33.9,0 -63.6,-1.4 -85.1,-16.5 -41,-28.8 -37.4,-94.9 -29.7,-149.3 z m 928.6,-3788.3 c -85.7,0 -109.5,31.7 -184.6,148.2 -228.2,353.7 -322.8,887.8 -406.3,1359.1 -20.9,118 -40.7,229.5 -61.5,332 -131.5,645.9 -225,1305.5 -315.5,1943.4 v 0 c -9.3,65.6 -12.4,146.2 46.2,187.3 33.8,23.8 76.6,23.4 109.4,23.7 l 562,-0.6 c 42,0 94.2,-0.1 136.3,-28.4 48.1,-32.2 66.9,-90 82,-146.3 152.4,-567.9 293.1,-1146.5 418.2,-1719.6 29,-133 69.9,-280.5 113.2,-436.6 114.5,-413 244.3,-881 196.4,-1247 -22.8,-174.1 -106.5,-279.3 -279.8,-351.5 -76.7,-31.9 -160.6,-40.3 -241.7,-48.4 l -60.7,-6.4 c -48,-5.3 -84.4,-8.9 -113.6,-8.9"
         style="fill:#100f0d;fill-opacity:1;fill-rule:nonzero;stroke:none"
         id="path122" /><path
         d="m 34310.8,6483.2 c 26.8,-100.7 49.6,-220.6 -19.3,-298.9 -29.3,-33.2 -70.9,-52.7 -112,-69.3 -244.3,-98.8 -516.4,-128 -776.1,-83.3 -589.4,1261.9 -936.1,2636.6 -1015.7,4027 220.9,9.7 772.2,142.6 952.9,-19 198.6,-177.7 249.6,-848.3 318.1,-1105.6 217.4,-817 434.8,-1634 652.1,-2450.9"
         style="fill:#587ac6;fill-opacity:1;fill-rule:nonzero;stroke:none"
         id="path124" /><path
         d="m 33416.9,6049.5 c 251.4,-41.2 519.1,-11.6 755.2,83.9 36.1,14.6 77,32.8 104.5,64 60.6,68.8 43.1,175.6 15.1,280.6 l -652.1,2451 c -19.1,71.8 -36.4,172.7 -56.5,289.7 -49.4,287.9 -117,682.2 -255.8,806.3 -129.6,115.9 -474,70.5 -725.5,37.3 -75,-10 -141,-18.7 -193.2,-22.2 81,-1368.7 429.4,-2747.8 1008.3,-3990.6 z m 228.5,-58.3 c -81.9,0 -163.9,7 -245.4,21 l -10.2,1.8 -4.4,9.3 C 32799,7279 32447.2,8674 32367.9,10057.6 l -1.2,20 20.1,0.9 c 53.2,2.4 125.8,11.9 209.7,23 259.2,34.3 614.1,81 757.2,-47 149.1,-133.3 215.3,-519.1 268.5,-829.1 19.8,-116 37,-216.2 55.7,-286.2 L 34330,6488.3 c 29.3,-110.3 49.4,-234.1 -23.7,-317 -33.1,-37.8 -79,-58.3 -119.3,-74.6 -173,-70 -356.7,-105.5 -541.6,-105.5"
         style="fill:#100f0d;fill-opacity:1;fill-rule:nonzero;stroke:none"
         id="path126" /><path
         d="m 33781.7,3456.8 c -264.5,939 -435.1,1904.3 -508.6,2877 371,142.1 777.7,189.8 1171.5,137.3 38.4,0 239.2,-2019.2 261.4,-2206.6 24.8,-209.4 130,-553.7 -39.4,-731.1 -189.8,-198.7 -650.8,-123.6 -884.9,-76.6"
         style="fill:#587ac6;fill-opacity:1;fill-rule:nonzero;stroke:none"
         id="path128" /><path
         d="m 34439.8,6451.9 c 1.4,-0.4 3.1,-0.6 4.8,-0.6 -1.6,0.2 -3.2,0.4 -4.8,0.6 z m -642.3,-2978 c 438.1,-86.6 725.7,-61.9 854.8,73.2 130.5,136.6 88.3,384.1 54.4,582.9 -8,47.4 -15.7,92.1 -20.4,132.2 -4.6,38.9 -16.9,156.9 -33.9,319.3 -55.4,530.3 -183.4,1756.3 -220.2,1871.4 -385,49.1 -777.2,3.4 -1138.2,-132.3 73.6,-961.1 242.9,-1918.6 503.5,-2846.7 z m 445.5,-90.8 c -130.2,0 -284.9,18.1 -465.2,54.3 l -11.9,2.4 -3.3,11.6 c -264.4,939 -435.8,1908.3 -509.3,2880.9 l -1,14.8 13.7,5.3 c 374.9,143.6 783.4,191.3 1181.2,138.3 28.6,-0.1 45.7,0.4 244.6,-1905.1 17,-162.2 29.2,-279.9 33.8,-318.8 4.7,-39.1 12.2,-83.3 20.2,-130.1 35.4,-207.6 79.4,-465.9 -64.9,-617 -87.1,-91.2 -231.8,-136.6 -437.9,-136.6"
         style="fill:#100f0d;fill-opacity:1;fill-rule:nonzero;stroke:none"
         id="path130" /><path
         d="m 23941,19130 c -23.2,143.6 612.1,118.4 921.8,151.5 31.1,3.3 64.6,6 91.5,-10 22.7,-13.5 36.3,-37.9 48.9,-61.1 36,-66.5 71.9,-133 107.9,-199.4 19.3,-35.8 39.1,-72.9 42.7,-113.4 4.5,-51 -17,-100.2 -38,-146.9 -48.9,-108.5 -109.2,-227.8 -221.9,-266.1 -51.7,-17.6 -107.9,-15.1 -162.4,-12.4 -144.4,7.1 -676,-51.4 -786.1,41.2 -64.9,54.5 3.7,616.6 -4.4,616.6"
         style="fill:#acc6ea;fill-opacity:1;fill-rule:nonzero;stroke:none"
         id="path132" /><path
         d="m 23960.2,19136.4 c 2.6,-8.5 1.1,-27.8 -4.7,-99.8 -9.4,-117.3 -37.9,-474 2.6,-508.1 74.5,-62.6 383,-49.5 587.1,-40.8 79.1,3.4 147.4,6.4 187.2,4.3 52.3,-2.5 106.3,-5.2 155.1,11.4 103.7,35.2 160.7,145.5 210.3,255.4 18.9,42.2 40.4,89.9 36.3,137 -3.3,37.2 -23.1,73.6 -40.4,105.7 l -107.9,199.4 c -10.7,19.9 -22.9,42.5 -41.6,53.6 -20.9,12.3 -49.4,10.4 -79.2,7.3 -83.8,-8.9 -189.9,-13.6 -302.2,-18.5 -241.8,-10.6 -542.8,-23.8 -596.1,-89.4 -4.7,-5.7 -6.7,-11.2 -6.5,-17.5 z m 322.3,-695.8 c -153.4,0 -295.3,11.8 -349.9,57.6 -46.7,39.3 -41,236.4 -16.6,541.5 3,37.7 5.9,73.5 5.9,84.4 l -0.4,2.8 c -3,18.7 2,36.7 14.5,52.1 64.5,79.2 349.5,91.8 625.1,103.8 111.6,5 217.1,9.6 299.6,18.4 36.8,3.9 72.4,5.9 103.7,-12.7 28.1,-16.6 43.7,-45.5 56.3,-68.7 l 107.8,-199.4 c 19.2,-35.5 41,-75.8 45,-121.1 5.1,-57.4 -19.7,-112.5 -39.6,-156.7 -53.1,-117.9 -114.9,-236.4 -233.6,-276.7 -55.9,-19 -116.4,-16.1 -169.8,-13.5 -38.1,1.9 -105.5,-1 -183.6,-4.3 -82,-3.5 -175.1,-7.5 -264.4,-7.5"
         style="fill:#100f0d;fill-opacity:1;fill-rule:nonzero;stroke:none"
         id="path134" /><path
         d="m 24041.6,19194.9 c 55,-34.9 123.6,-38.6 188.7,-39.2 278.4,-2.8 557.3,31.8 826.6,102.6 10.4,159.3 20.8,318.7 31.2,478 7.3,111 13.5,227.6 -34.5,327.9 -152.3,318.2 -759.8,279.6 -995,85.9 -193.9,-159.8 -243.1,-811.7 -17,-955.2"
         style="fill:#587ac6;fill-opacity:1;fill-rule:nonzero;stroke:none"
         id="path136" /><path
         d="m 24052.2,19211.7 c 50.8,-32.3 115.9,-35.6 178.3,-36.2 271.9,-3 543.9,30.4 807.6,98.4 l 30.3,463.7 c 6.7,103 14.3,219.9 -32.7,318.1 -61.8,129 -196.2,183 -298.1,205.5 -226.9,50.3 -519.5,-5.4 -666.4,-126.4 -103.3,-85.2 -172.7,-339.9 -157.8,-579.8 10.4,-168.9 61,-294 138.8,-343.3 z m 208.9,-76 c -10.3,0 -20.7,0.1 -31,0.2 -68.1,0.7 -139.5,4.5 -199.1,42.3 v 0 c -89.9,57.1 -145.8,190 -157.2,374.3 -13.4,217.3 42.4,505.9 172.2,612.9 155.3,127.9 462.7,187 700.1,134.5 158.5,-35 271,-113.6 325.4,-227.1 51.4,-107.6 43.1,-235.2 36.4,-337.8 l -32.2,-492.2 -13.8,-3.6 c -261.4,-68.7 -530.6,-103.5 -800.8,-103.5"
         style="fill:#100f0d;fill-opacity:1;fill-rule:nonzero;stroke:none"
         id="path138" /><path
         d="m 31854.3,19188.6 c 0.2,19.6 0.8,40.6 12.2,56.6 16.7,23.3 49.2,27.1 77.7,28.9 360.1,22.4 720.2,44.8 1080.3,67.2 28,1.8 58.1,3 81.8,-12.1 38.1,-24.4 41.4,-77.8 40.6,-123 -5.1,-302.7 -10.2,-605.3 -15.4,-908 -201.7,-7.9 -403.5,-15.7 -605.3,-23.6 -124.3,-4.9 -461.2,-80 -566.5,-20 -188.6,107.3 -105.4,725.1 -105.4,934"
         style="fill:#587ac6;fill-opacity:1;fill-rule:nonzero;stroke:none"
         id="path140" /><path
         d="m 31874.1,19188.6 c 0,-42 -3.3,-99.5 -7.1,-166.2 -14.2,-250.8 -38.1,-670.6 102.5,-750.6 69.5,-39.5 263.8,-13.3 405.7,5.8 61,8.3 113.8,15.4 150.3,16.8 l 586.5,22.9 15.1,889.3 c 0.8,41.9 -2.4,87.3 -31.5,105.9 -17.6,11.2 -42,10.8 -69.9,9 l -1080.2,-67.2 c -24.4,-1.5 -51.3,-4.5 -62.8,-20.7 -7.6,-10.6 -8.4,-26.7 -8.6,-45 z m 221.3,-976.9 c -60.5,0 -112.4,6.8 -145.5,25.6 -161.9,92.2 -138.1,510.6 -122.4,787.4 3.7,66.1 7,123.1 7,163.9 v 0.2 c 0.2,19.5 0.4,46.2 16,67.9 23.4,32.8 68.4,35.6 92.5,37.1 l 1080.3,67.3 c 26.9,1.6 63.7,3.9 93.7,-15.3 45.5,-29.1 50.7,-87.1 49.8,-139.9 l -15.8,-926.8 -624,-24.3 c -34.6,-1.4 -86.5,-8.3 -146.5,-16.5 -92.1,-12.4 -197.5,-26.6 -285.1,-26.6"
         style="fill:#100f0d;fill-opacity:1;fill-rule:nonzero;stroke:none"
         id="path142" /><path
         d="m 31880.6,19206.7 c 271.5,21.6 545.5,10.9 814.4,-31.6 120.6,-19.1 263.1,-37.7 347.3,50.6 104,109.2 37.3,284.9 -8.9,428.4 -47.8,148.4 -66.6,306 -55.1,461.4 1.8,24.9 4.2,51.1 -6.2,73.7 -18.9,41 -70.1,53.5 -114.7,60.4 -189.4,29.1 -910.8,163.4 -1039.8,-7.9 -113.8,-151.2 49.4,-838.5 63,-1035"
         style="fill:#acc6ea;fill-opacity:1;fill-rule:nonzero;stroke:none"
         id="path144" /><path
         d="m 32154.2,19237.3 c 182.1,0 364.1,-14.2 543.9,-42.6 131.5,-20.8 255.8,-33.1 329.9,44.7 89.3,93.7 39.4,246.4 -4.5,381 l -8.9,27.6 c -48.3,149.8 -67.7,311.9 -56.1,469 1.9,25.1 3.5,46.7 -4.4,64 -14.7,31.9 -58.7,42.7 -99.7,49 -15.8,2.4 -35.2,5.6 -57.7,9.2 -233.1,37.7 -852.1,138.1 -963.2,-9.4 -78.2,-103.9 -12.1,-508.1 31.7,-775.6 14.9,-91.4 28.1,-171.8 33.5,-226.3 85,6.3 170.3,9.4 255.5,9.4 z m 696.4,-97.9 c -56.6,0 -112.6,8.8 -158.7,16.1 -267.4,42.3 -539.8,52.8 -809.7,31.5 l -20,-1.6 -1.4,20 c -3.5,51.8 -18,140.1 -34.7,242.3 -47.6,290.6 -112.6,688.5 -24.3,805.9 111.2,147.6 593.5,90.8 1001.2,24.7 22.4,-3.6 41.7,-6.7 57.4,-9.2 48.4,-7.4 106.9,-22.3 129.7,-71.6 12.2,-26.6 10,-55.6 8.1,-81.1 -11.4,-154.3 7.4,-311.3 54,-456.2 l 9,-27.5 c 45,-138 101.1,-309.8 -4.5,-420.6 -54.1,-56.8 -130.5,-72.7 -206.1,-72.7"
         style="fill:#100f0d;fill-opacity:1;fill-rule:nonzero;stroke:none"
         id="path146" /><path
         d="m 28130.3,19188.6 c 0.2,19.6 0.9,40.6 12.3,56.6 16.6,23.3 49.1,27.1 77.7,28.9 360,22.4 720.1,44.8 1080.2,67.2 28,1.8 58.2,3 81.8,-12.1 38.1,-24.4 41.4,-77.8 40.7,-123 -5.2,-302.7 -10.3,-605.3 -15.5,-908 -201.7,-7.9 -403.5,-15.7 -605.3,-23.6 -124.3,-4.9 -461.2,-80 -566.5,-20 -188.6,107.3 -105.4,725.1 -105.4,934"
         style="fill:#587ac6;fill-opacity:1;fill-rule:nonzero;stroke:none"
         id="path148" /><path
         d="m 28150.1,19188.6 c 0,-42 -3.3,-99.5 -7.1,-166.2 -14.2,-250.8 -38.1,-670.6 102.5,-750.6 69.4,-39.5 263.8,-13.3 405.7,5.8 61.1,8.3 113.8,15.4 150.3,16.8 l 586.6,22.9 15,889.3 c 0.8,41.9 -2.4,87.3 -31.5,105.9 -17.6,11.2 -42,10.8 -69.8,9 l -1080.3,-67.2 c -24.3,-1.5 -51.3,-4.5 -62.8,-20.7 -7.6,-10.6 -8.4,-26.7 -8.6,-45 z m 221.3,-976.9 c -60.5,0 -112.4,6.8 -145.5,25.6 -161.9,92.2 -138.1,510.6 -122.4,787.4 3.7,66.1 7,123.1 7,163.9 v 0.2 c 0.2,19.5 0.4,46.2 15.9,67.9 23.5,32.8 68.5,35.6 92.6,37.1 l 1080.3,67.3 c 26.8,1.6 63.7,3.9 93.7,-15.3 45.4,-29.1 50.7,-87.1 49.8,-139.9 l -15.8,-926.8 -624,-24.3 c -34.6,-1.4 -86.4,-8.3 -146.5,-16.5 -92.1,-12.4 -197.6,-26.6 -285.1,-26.6"
         style="fill:#100f0d;fill-opacity:1;fill-rule:nonzero;stroke:none"
         id="path150" /><path
         d="m 28156.6,19206.7 c 271.5,21.6 545.5,10.9 814.4,-31.6 120.6,-19.1 263.1,-37.7 347.3,50.6 104,109.2 37.3,284.9 -8.9,428.4 -47.7,148.4 -66.6,306 -55.1,461.4 1.8,24.9 4.2,51.1 -6.2,73.7 -18.9,41 -70.1,53.5 -114.7,60.4 -189.4,29.1 -910.8,163.4 -1039.7,-7.9 -113.9,-151.2 49.4,-838.5 62.9,-1035"
         style="fill:#587ac6;fill-opacity:1;fill-rule:nonzero;stroke:none"
         id="path152" /><path
         d="m 28430.2,19237.3 c 182.1,0 364.1,-14.2 543.9,-42.6 131.6,-20.8 255.8,-33.1 329.9,44.7 89.3,93.7 39.5,246.4 -4.5,381 l -8.9,27.6 c -48.3,149.9 -67.7,312 -56.1,469 1.9,25.3 3.5,46.7 -4.4,63.9 -14.8,32 -58.7,42.8 -99.7,49.1 -15.8,2.4 -35.2,5.6 -57.7,9.2 -233.1,37.8 -852.2,138.1 -963.2,-9.4 -78.2,-103.9 -12.1,-508.1 31.7,-775.6 14.9,-91.4 28.1,-171.8 33.5,-226.3 85,6.3 170.3,9.4 255.5,9.4 z m 696.4,-97.9 c -56.6,0 -112.6,8.8 -158.7,16.1 -267.4,42.3 -539.8,52.8 -809.7,31.5 l -20,-1.6 -1.4,20 c -3.5,51.8 -18,140.1 -34.7,242.3 -47.6,290.6 -112.7,688.5 -24.3,805.9 111.2,147.7 593.5,90.8 1001.2,24.7 22.4,-3.6 41.8,-6.7 57.4,-9.2 48.5,-7.4 107,-22.3 129.7,-71.6 12.2,-26.5 10,-55.3 8.1,-80.8 -11.4,-154.5 7.4,-311.5 54.1,-456.5 l 8.9,-27.5 c 45,-138 101.1,-309.8 -4.5,-420.6 -54.2,-56.8 -130.6,-72.7 -206.1,-72.7"
         style="fill:#100f0d;fill-opacity:1;fill-rule:nonzero;stroke:none"
         id="path154" /><path
         d="m 23825.8,18307.8 c 3.3,56.3 7.7,115.8 39.8,162.2 35.2,51 96.7,76.1 156,93.9 315.5,95.1 653.3,59.7 981.4,29.4 1194.2,-110.3 2394.1,-141.5 3593,-172.6 398.4,-10.3 796.8,-20.7 1195.2,-31 947.5,-24.6 1898.6,-49.1 2840.3,58.6 202.3,23.1 434.8,43 581.8,-97.9 127,-121.7 139.2,-323.3 97.5,-494.3 -41.7,-171 77.5,-313.1 35.9,-484.1 -46,-188.5 135,-494.5 0,-633.8 -148.8,-153.5 -777.4,-69 -990.9,-60.1 -1304.9,54 -2340.6,-214.4 -3644.3,-138 -361.5,21.1 -909.5,66.4 -1267.8,118.8 -903.2,132.3 -1879.1,72.2 -2791.2,110.8 -303.8,12.8 -818.1,-117.5 -899.2,244.6 -83.5,372.8 49.7,911 72.5,1293.5"
         style="fill:#587ac6;fill-opacity:1;fill-rule:nonzero;stroke:none"
         id="path156" /><path
         d="m 24604.8,16790.4 c 16.6,0 32.8,-0.3 48.5,-0.9 309.1,-13.1 632,-14.9 944.3,-16.6 614.9,-3.3 1250.8,-6.8 1849,-94.4 350.2,-51.3 888.2,-96.5 1266,-118.7 670.7,-39.3 1282.1,14 1873.3,65.4 559.1,48.7 1137.2,98.8 1770.7,72.7 38.3,-1.6 89.6,-5.6 149,-10.2 265.9,-20.6 711,-55.2 826.8,64.2 71.3,73.6 44.7,202.3 16.6,338.6 -20.6,99.8 -41.8,203 -21.6,286.2 19.7,80.8 1.4,154.5 -17.9,232.5 -19.6,79.3 -39.9,161.4 -17.9,251.6 47.9,196.5 13.5,374.2 -92,475.3 -135.4,129.7 -344.9,117.8 -565.9,92.5 -944.8,-108 -1909.8,-83 -2843,-58.8 l -1195.3,31.1 c -1178.9,30.6 -2398,62.2 -3594.2,172.7 l -30.6,2.8 c -315.4,29.3 -641.3,59.6 -943.3,-31.4 -53.6,-16.2 -112.8,-39.1 -145.4,-86.2 -29.9,-43.3 -33.3,-101.2 -36.4,-152.2 v 0 c -7.2,-121.3 -25.2,-256.5 -44.3,-399.5 -39.8,-298.5 -85,-636.7 -28.6,-888.5 59.6,-266.2 376,-249.4 655.2,-234.7 62.3,3.3 122,6.5 177,6.5 z m 4585.5,-283.8 c -156.8,0 -316.6,4.2 -480,13.7 -378.7,22.2 -918.1,67.6 -1269.4,119 -595.5,87.2 -1230,90.7 -1843.5,94 -312.7,1.7 -635.9,3.5 -945.7,16.5 -65.7,2.9 -141.5,-1.2 -221.8,-5.5 -280.3,-14.8 -629,-33.3 -695.9,265.6 -58,258.8 -12.4,600.7 27.9,902.4 19,142.3 36.9,276.8 44.1,396.6 3.2,53.5 7.1,120 43.3,172.4 39.5,57.2 106.4,83.5 166.6,101.6 309.3,93.2 639.2,62.6 958.3,33 l 30.6,-2.9 c 1194.9,-110.3 2413.4,-141.9 3591.7,-172.5 l 1195.2,-31 c 931.9,-24.2 1895.4,-49.3 2837.5,58.5 230.6,26.4 450,38.3 597.8,-103.3 115.9,-111 154.4,-302.9 103.1,-513.3 -19.7,-80.8 -1.5,-154.5 17.8,-232.7 19.7,-79.2 40,-161.2 18,-251.4 -18.2,-74.5 2.2,-173.3 21.9,-268.8 29,-140.4 58.9,-285.6 -26.9,-374.1 -128.8,-132.9 -567.9,-98.7 -858.4,-76.2 -59,4.6 -109.9,8.5 -147.5,10.1 -630.9,26.2 -1207.8,-24 -1765.6,-72.6 -448.9,-39 -909.4,-79 -1399.1,-79.1"
         style="fill:#100f0d;fill-opacity:1;fill-rule:nonzero;stroke:none"
         id="path158" /><path
         d="m 39578.2,4619.9 c 278.1,121.5 552.5,368 523.9,670 502.1,189.6 1021.6,333.2 1549.8,428.3 48.7,8.7 100.8,16.8 146.4,-2.6 54.2,-23 85.9,-78.6 112.7,-131 290.3,-568 464.3,-1195 508.2,-1831.3 18,-260.3 -2867.4,-338.2 -3146.3,-314.8 -316.8,26.5 -768.6,65.6 -724.1,479.4 48.8,453.5 702,558.9 1029.4,702"
         style="fill:#587ac6;fill-opacity:1;fill-rule:nonzero;stroke:none"
         id="path160" /><path
         d="m 40123,5276.6 c 20,-315.8 -274.8,-560.3 -536.8,-674.9 v 0 c -70.1,-30.6 -154.8,-59.5 -244.4,-90 -328,-111.8 -736.2,-251 -773.3,-595.9 -11.5,-106.5 9.9,-190.8 65.1,-257.7 129.7,-157.1 425.2,-181.8 640.9,-199.9 308.3,-25.8 2894.7,56.9 3114.2,273.2 7.5,7.5 11.2,14.4 10.8,20.6 -43.5,630.3 -218.5,1260.9 -506.1,1823.5 -25.9,50.6 -55.1,101.7 -102.9,121.9 -39.2,16.6 -84.4,10.4 -135.1,1.3 -521.2,-93.8 -1036.7,-235.8 -1532.4,-422.1 z m -645.8,-1862.4 c -98.6,0 -170.1,1.5 -206,4.5 -222.7,18.7 -527.8,44.2 -668.1,214.1 -61.6,74.6 -86.4,171.2 -74,287.2 39.8,370.1 461.3,513.8 799.9,629.2 88.8,30.3 172.7,58.9 241.3,88.8 254.1,111.1 540.7,348 512.1,650 l -1.5,15.1 14.2,5.3 c 502.2,189.7 1024.8,334.1 1553.3,429.3 55,9.9 108.4,17.1 157.6,-3.9 60,-25.4 93.5,-83.2 122.7,-140.2 290,-567.4 466.5,-1203.3 510.3,-1838.9 1.2,-18.2 -6.3,-35.6 -22.6,-51.5 -213.6,-210.6 -2244.2,-289 -2939.2,-289"
         style="fill:#100f0d;fill-opacity:1;fill-rule:nonzero;stroke:none"
         id="path162" /><path
         d="m 28194.2,16823.4 c 214.5,17 431,8.6 643.6,-25 95.3,-15.1 207.9,-29.8 274.4,40 82.2,86.2 29.5,225.1 -7,338.5 -37.8,117.3 -52.6,241.8 -43.6,364.6 1.5,19.7 3.4,40.4 -4.9,58.3 -14.9,32.4 -55.4,42.3 -90.6,47.7 -149.7,23 -719.8,129.1 -821.7,-6.3 -89.9,-119.4 39.1,-662.5 49.8,-817.8"
         style="fill:#587ac6;fill-opacity:1;fill-rule:nonzero;stroke:none"
         id="path164" /><path
         d="m 28410.4,16851.7 c 144.1,0 288.2,-11.2 430.5,-33.7 102.8,-16.3 199.8,-25.9 257,34.1 68.8,72.2 29.9,191.6 -4.5,297 l -7.1,21.8 c -38.2,118.8 -53.6,247.5 -44.4,372.1 1.4,19.5 2.6,35.9 -3.2,48.5 -10.8,23.5 -44.3,31.6 -75.6,36.4 l -45.5,7.3 c -166,26.8 -671,108.7 -757.3,-5.9 -60.8,-80.7 -8.7,-399 25.8,-609.7 11.5,-70.1 21.6,-131.9 26.1,-175 66,4.8 132.1,7.1 198.2,7.1 z m 550.4,-85.7 c -45,0 -89.5,7.1 -126.1,12.8 -210.9,33.4 -425.9,41.7 -638.9,24.9 l -20,-1.6 -1.4,19.9 c -2.8,40.8 -14.2,110.5 -27.4,191.2 -48.8,298.6 -84,552.9 -18.4,640 89.3,118.4 471.9,73.4 795.3,21.1 l 45.2,-7.2 c 39.3,-6.1 86.8,-18.3 105.6,-59 10.1,-21.9 8.4,-45.3 6.8,-65.9 -8.9,-121.7 5.8,-245.1 42.5,-359.2 l 7.1,-21.6 c 35.9,-110.2 80.6,-247.3 -4.5,-336.7 -43.8,-45.9 -105.2,-58.7 -165.8,-58.7"
         style="fill:#100f0d;fill-opacity:1;fill-rule:nonzero;stroke:none"
         id="path166" /><path
         d="m 32314.3,17338.4 c 214.6,17 431.1,8.6 643.6,-25 95.3,-15 208,-29.8 274.5,40 82.2,86.3 29.4,225.1 -7.1,338.5 -37.7,117.3 -52.6,241.8 -43.5,364.7 1.4,19.6 3.3,40.3 -4.9,58.2 -15,32.4 -55.4,42.3 -90.6,47.7 -149.7,23 -719.8,129.1 -821.7,-6.2 -89.9,-119.5 39,-662.6 49.7,-817.9"
         style="fill:#587ac6;fill-opacity:1;fill-rule:nonzero;stroke:none"
         id="path168" /><path
         d="m 32530.6,17366.8 c 144.1,0 288.2,-11.3 430.4,-33.8 102.9,-16.3 200,-25.9 257,34.1 68.9,72.2 29.9,191.7 -4.5,297.1 l -7,21.7 c -38.3,118.8 -53.7,247.5 -44.5,372.1 1.5,19.3 2.7,35.8 -3.1,48.5 -10.9,23.5 -44.3,31.6 -75.7,36.4 l -45.4,7.3 c -166,26.9 -671.1,108.8 -757.4,-5.8 -60.7,-80.7 -8.6,-399 25.9,-609.7 11.4,-70.1 21.5,-132 26,-175.1 66,4.8 132.1,7.2 198.3,7.2 z m 550.3,-85.8 c -44.9,0 -89.5,7.1 -126,12.8 -211,33.4 -425.9,41.7 -639,24.9 l -19.9,-1.6 -1.4,20 c -2.8,40.7 -14.2,110.5 -27.5,191.2 -48.8,298.6 -83.9,552.8 -18.3,639.9 89.2,118.5 471.9,73.5 795.3,21.1 l 45.2,-7.2 c 39.3,-6.1 86.8,-18.2 105.5,-59 10.2,-22 8.4,-45.5 6.9,-66.2 -9,-121.4 5.8,-244.9 42.5,-358.9 l 7,-21.5 c 36,-110.2 80.7,-247.4 -4.5,-336.7 -43.7,-46 -105.1,-58.8 -165.8,-58.8"
         style="fill:#100f0d;fill-opacity:1;fill-rule:nonzero;stroke:none"
         id="path170" /><path
         d="m 25698.3,17140.3 c 214.5,17 431.1,8.6 643.6,-25 95.3,-15 207.9,-29.8 274.5,40 82.2,86.3 29.4,225.2 -7.1,338.6 -37.7,117.2 -52.6,241.7 -43.5,364.6 1.4,19.6 3.3,40.3 -5,58.2 -14.9,32.4 -55.3,42.3 -90.6,47.7 -149.6,23 -719.7,129.1 -821.6,-6.2 -90,-119.5 39,-662.6 49.7,-817.9"
         style="fill:#acc6ea;fill-opacity:1;fill-rule:nonzero;stroke:none"
         id="path172" /><path
         d="m 25914.5,17168.7 c 144.1,0 288.2,-11.3 430.5,-33.8 102.9,-16.3 199.9,-25.9 257,34.1 68.9,72.3 29.9,191.7 -4.5,297 l -7,21.8 c -38.3,118.9 -53.7,247.6 -44.5,372.1 1.5,19.5 2.7,35.9 -3.2,48.5 -10.8,23.5 -44.3,31.6 -75.6,36.4 l -45.4,7.3 c -166,26.9 -671.1,108.7 -757.4,-5.8 -60.7,-80.7 -8.6,-399.1 25.8,-609.8 11.5,-70.1 21.6,-131.9 26.1,-174.9 66,4.7 132.1,7.1 198.2,7.1 z m 550.4,-85.7 c -45,0 -89.5,7 -126.1,12.8 -210.9,33.4 -425.9,41.7 -638.9,24.8 l -20,-1.6 -1.4,20 c -2.8,40.7 -14.1,110.4 -27.4,191.1 -48.8,298.6 -83.9,552.9 -18.3,640 89.2,118.4 471.9,73.5 795.3,21.1 l 45.1,-7.2 c 39.3,-6 86.8,-18.2 105.6,-59 10.1,-21.9 8.4,-45.3 6.9,-65.9 -9,-121.6 5.7,-245.1 42.5,-359.2 l 7,-21.6 c 35.9,-110.2 80.7,-247.3 -4.5,-336.6 -43.7,-45.9 -105.2,-58.7 -165.8,-58.7"
         style="fill:#100f0d;fill-opacity:1;fill-rule:nonzero;stroke:none"
         id="path174" /><path
         d="m 24628.7,16823.4 c 214.5,17 431,8.6 643.6,-25 95.2,-15.1 207.9,-29.8 274.4,40 82.2,86.2 29.5,225.1 -7,338.5 -37.8,117.3 -52.7,241.8 -43.6,364.6 1.5,19.7 3.3,40.4 -4.9,58.3 -14.9,32.4 -55.4,42.3 -90.6,47.7 -149.7,23 -719.8,129.1 -821.7,-6.3 -89.9,-119.4 39.1,-662.5 49.8,-817.8"
         style="fill:#acc6ea;fill-opacity:1;fill-rule:nonzero;stroke:none"
         id="path176" /><path
         d="m 24844.9,16851.7 c 144.1,0 288.2,-11.2 430.5,-33.7 102.8,-16.3 199.8,-25.9 257,34.1 68.8,72.2 29.9,191.6 -4.5,297 l -7.1,21.8 c -38.3,118.8 -53.6,247.5 -44.5,372.1 1.5,19.5 2.7,35.9 -3.1,48.5 -10.8,23.5 -44.3,31.6 -75.6,36.4 l -45.5,7.3 c -166,26.8 -671.1,108.7 -757.3,-5.9 -60.8,-80.7 -8.7,-399 25.8,-609.7 11.5,-70.1 21.6,-131.9 26.1,-175 65.9,4.8 132.1,7.1 198.2,7.1 z m 550.3,-85.7 c -44.9,0 -89.4,7.1 -126,12.8 -211,33.4 -425.9,41.7 -639,24.9 l -19.9,-1.6 -1.4,19.9 c -2.8,40.8 -14.2,110.5 -27.4,191.2 -48.9,298.6 -84,552.9 -18.4,640 89.3,118.4 471.9,73.4 795.3,21.1 l 45.2,-7.2 c 39.3,-6.1 86.8,-18.3 105.6,-59 10.1,-21.9 8.3,-45.3 6.8,-65.9 -9,-121.7 5.8,-245.1 42.5,-359.2 l 7,-21.6 c 36,-110.2 80.7,-247.3 -4.4,-336.7 -43.8,-45.9 -105.2,-58.7 -165.9,-58.7"
         style="fill:#100f0d;fill-opacity:1;fill-rule:nonzero;stroke:none"
         id="path178" /><path
         d="m 31323.9,17100.7 c 214.5,17 431.1,8.6 643.6,-25 95.3,-15 207.9,-29.8 274.5,40 82.1,86.3 29.4,225.1 -7.1,338.5 -37.7,117.3 -52.6,241.8 -43.5,364.7 1.4,19.6 3.3,40.3 -5,58.2 -14.9,32.4 -55.3,42.3 -90.6,47.7 -149.7,23 -719.7,129.1 -821.6,-6.2 -90,-119.5 39,-662.6 49.7,-817.9"
         style="fill:#acc6ea;fill-opacity:1;fill-rule:nonzero;stroke:none"
         id="path180" /><path
         d="m 31540.1,17129.1 c 144.2,0 288.2,-11.3 430.5,-33.8 102.9,-16.3 200,-25.9 257,34.1 68.9,72.2 29.9,191.7 -4.5,297.1 l -7,21.7 c -38.3,118.8 -53.7,247.5 -44.5,372.1 1.5,19.3 2.7,35.8 -3.2,48.5 -10.8,23.5 -44.3,31.6 -75.6,36.4 l -45.5,7.3 c -166,26.9 -671,108.7 -757.3,-5.8 -60.7,-80.7 -8.6,-399.1 25.8,-609.8 11.5,-70.1 21.6,-131.9 26.1,-175 66,4.8 132.1,7.2 198.2,7.2 z m 550.4,-85.8 c -45,0 -89.5,7.1 -126.1,12.8 -210.9,33.5 -425.9,41.7 -638.9,24.9 l -20,-1.6 -1.4,20 c -2.8,40.7 -14.2,110.4 -27.4,191.1 -48.8,298.6 -83.9,552.9 -18.3,640 89.2,118.5 471.9,73.5 795.3,21.1 l 45.1,-7.2 c 39.3,-6 86.9,-18.2 105.6,-59 10.2,-22 8.4,-45.5 6.8,-66.2 -8.9,-121.4 5.8,-244.9 42.6,-358.9 l 7,-21.5 c 35.9,-110.2 80.7,-247.4 -4.5,-336.7 -43.8,-46 -105.2,-58.8 -165.8,-58.8"
         style="fill:#100f0d;fill-opacity:1;fill-rule:nonzero;stroke:none"
         id="path182" /><path
         d="m 33786.4,12994.3 c -345.5,-1569.1 602.1,-3302 887.7,-4873 531.1,-1750.3 1003.1,-3069.6 1003.1,-3069.6 0,0 819.5,104.3 2461,117.8 -280.1,2128.9 -307.6,5084.7 -866.8,7177.1 2729.9,6577.8 6540,7281.8 2604,9646.5 -1438.7,-1120.4 -4465.2,-2270.4 -4027.5,-1537.1 -317.1,-2733.1 -1362,-5155.1 -2061.5,-7461.7"
         style="fill:#100f0d;fill-opacity:1;fill-rule:nonzero;stroke:none"
         id="path184" /><path
         d="m 42309.2,21614.4 c 1022.6,-2569.4 241,-5368.7 -572.3,-7955.7 -254.3,-1018.3 -664.5,-2101.9 -585.5,-2869.5 336.7,-2091.3 1352.2,-3964.4 1410.5,-6060.2 -996.2,-17.7 -1792.7,-17.7 -2900.4,105.7 -44.5,701.9 -1429.5,5210.9 -1573.1,6303.3 -322.3,2452.6 209.3,3851.6 -152.4,6392.3 -601,2494.4 -817.8,3607.7 903.7,5147.5 1679.6,1669.3 2619.6,337.8 3469.5,-1063.4"
         style="fill:#100f0d;fill-opacity:1;fill-rule:nonzero;stroke:none"
         id="path186" /><path
         d="m 40636.2,20303.7 c 36.3,57.6 524.9,895.4 557.3,955.3 43.5,80.8 135.2,121 220.3,155.4 430.4,174.2 860.9,348.3 1291.3,522.5 -379.5,785.7 -1092.4,1403.5 -1924,1667.4 -435.9,-762.7 -942.9,-1489.2 -1556.2,-2118.2 -409,-419.5 -862.4,-792.9 -1314.8,-1165.4 -520.8,-428.9 -873.1,451.4 -1394.1,22.6 -266.8,-219.6 -1129.9,-1037.4 -1069.6,-1386.6 42.6,-247.3 2088.5,-3568.4 5189.8,1347"
         style="fill:#ffffff;fill-opacity:1;fill-rule:nonzero;stroke:none"
         id="path188" /><path
         d="m 36820.3,20444.9 c -92.4,0 -188.3,-31.8 -291.7,-116.9 -303.6,-249.9 -1119.6,-1038.4 -1062.7,-1367.9 23.6,-137.2 588.8,-1083.6 1555.8,-1275.6 505.1,-100.2 1035.2,24 1575.3,369.4 663.3,424.2 1343.7,1184.6 2022.4,2260.3 v 0.1 c 35.1,55.6 524.1,893.8 556.6,954.1 45.4,84 134.8,125.7 230.4,164.4 l 1271.6,514.5 c -375.3,763 -1078.6,1371.7 -1887.7,1633.3 -483.4,-843.9 -990.9,-1533.7 -1551.2,-2108.3 -410.1,-420.7 -870.9,-800 -1316.4,-1166.9 -270.4,-222.7 -498.3,-104.9 -718.7,9 -128.3,66.3 -252.4,130.5 -383.7,130.5 z m 544.2,-2833.7 c -117.9,0 -234.8,11.5 -350.5,34.5 -985.7,195.6 -1562.9,1166.8 -1587.2,1307.6 -64.5,373.7 847.4,1216.7 1076.6,1405.3 270.5,222.5 498.4,104.9 718.8,-9 218.5,-113 424.9,-219.8 675.4,-13.6 444.7,366.2 904.5,744.8 1313.1,1164 561,575.3 1069.1,1266.9 1553.2,2114.2 l 7.9,13.9 15.3,-4.9 c 832.3,-264.2 1556,-891.3 1935.8,-1677.7 l 9.2,-19.1 -1310.8,-530.4 c -88.6,-35.8 -171.4,-74 -210.4,-146.4 -32.6,-60.4 -522.8,-900.8 -558,-956.5 -681.8,-1080.7 -1366.3,-1845.3 -2034.6,-2272.6 -425.7,-272.3 -846,-409.3 -1253.8,-409.3"
         style="fill:#100f0d;fill-opacity:1;fill-rule:nonzero;stroke:none"
         id="path190" /><path
         d="m 31658.8,22051.9 c 1443.5,-809.5 3044.3,-1601.3 3798,-3074.7 151,-295 5470.9,1848.2 5963,4280.8 21.7,106.9 39.5,223.2 -8.9,321 -26.3,53 -69.7,95.3 -112.7,136 -1362.3,1289 -3087.9,2114.7 -4793.8,2893.9 -462.1,211.1 -1472.9,1253.5 -2840.8,944.7 -2456.3,-554.7 -3407.1,-4635.2 -3407.1,-4635.2 0,0 813.9,-536.6 1402.3,-866.5"
         style="fill:#acc6ea;fill-opacity:1;fill-rule:nonzero;stroke:none"
         id="path192" /><path
         d="m 30279.1,22927.3 c 101.7,-66.7 846.3,-553.6 1389.3,-858.1 120.6,-67.6 242.2,-135.1 364.3,-202.8 1351.1,-749.5 2748.2,-1524.5 3441.8,-2880.2 1.4,-2.9 18.4,-27.9 148.9,-10 455,62.6 1775.7,573.1 3071.7,1369 1101.9,676.6 2465.7,1731.9 2705.3,2916.7 21.4,105.4 38.4,216 -7.3,308.3 -23.8,48.2 -63.3,87.6 -108.5,130.4 -1328.2,1256.8 -2954.4,2052.5 -4788.5,2890.3 -104.8,47.9 -238.3,138.5 -393,243.5 -550.1,373.4 -1381.4,937.8 -2435.1,699.8 -1261.1,-284.7 -2115.9,-1524.5 -2611,-2514.4 -504.1,-1008.1 -747.6,-1968.5 -777.9,-2092.5 z m 5263.5,-3997.2 c -56.9,0 -90.3,12.5 -103.4,38.1 -688.1,1344.9 -2079.8,2117 -3425.7,2863.5 -122.2,67.8 -243.9,135.3 -364.4,202.9 -582.3,326.5 -1395.3,861.9 -1403.5,867.3 l -11.5,7.6 3.2,13.4 c 2.3,10.2 244.4,1034.9 784,2113.9 498.9,997.9 1361.6,2247.9 2637.9,2536.1 1070.4,241.6 1910.4,-328.5 2466.2,-705.7 153.1,-104 285.4,-193.8 387.2,-240.3 1837.3,-839.2 3466.6,-1636.6 4799.2,-2897.5 48.1,-45.5 90.1,-87.5 116.8,-141.6 51.2,-103.5 32.4,-226.5 10.7,-333.7 -242.5,-1198.8 -1614.9,-2261.9 -2723.5,-2942.7 -1300.6,-798.7 -2628.5,-1311.4 -3087,-1374.5 -33.2,-4.5 -61.9,-6.8 -86.2,-6.8"
         style="fill:#100f0d;fill-opacity:1;fill-rule:nonzero;stroke:none"
         id="path194" /><path
         d="m 31142.3,25162.4 c 0,0 186.7,-1218.4 933.8,-1186.5 0,0 147.9,673.8 727.6,768.9 0,0 51.6,876.5 595.8,808.4 0,0 -653.8,741.3 -1184.7,727.6 -530.8,-13.6 -1072.5,-1118.4 -1072.5,-1118.4"
         style="fill:#587ac6;fill-opacity:1;fill-rule:nonzero;stroke:none"
         id="path196" /><path
         d="m 29393.8,25292.3 c 122,-146.4 272,-295.9 462.2,-308 232,-14.8 421.4,179.2 551.8,371.7 37.9,55.9 83.9,119.3 151.3,123.2 39.4,2.3 76.4,-17.1 111.1,-36 319,-173.4 1369.1,-940.1 2121.8,-702.4 -277.3,515 -362.2,951 -475.4,1386.6 -633.9,118.8 -797.3,227.6 -1103.7,580.7 -147.1,169.6 -281.7,350.6 -441,508.8 -368.4,365.8 -867.2,597.4 -1384.4,642.9 -173.6,15.2 -356.6,8.2 -509.9,-74.6 -203.6,-109.9 -322,-341.1 -340.9,-571.6 -57.3,-694.8 437,-1417.2 857.1,-1921.3"
         style="fill:#fbc589;fill-opacity:1;fill-rule:nonzero;stroke:none"
         id="path198" /><path
         d="m 30565.5,25499.2 c 43.3,0 82.4,-21.3 114.2,-38.6 48.4,-26.3 114.5,-66.8 191,-113.6 443.5,-271.6 1264.5,-774.3 1892.5,-594.2 -231.2,435.7 -326.7,816.8 -419.1,1185.5 -14.4,57.5 -28.7,114.7 -43.5,171.9 -627.9,118.7 -791.6,226.4 -1102.6,584.9 -49.6,57.1 -98.5,116.5 -145.8,173.8 -93,112.9 -189.1,229.6 -294.2,333.9 -362.8,360.2 -862.9,592.5 -1372.2,637.2 -214.2,18.8 -372.7,-4.1 -498.8,-72.2 -183.9,-99.3 -310.5,-312.2 -330.6,-555.8 -44.6,-541.3 234.3,-1165.1 852.6,-1907 118.6,-142.3 264.5,-289.2 448.3,-300.9 183.1,-11.6 363,110.4 534.1,363 34.3,50.7 86.2,127.2 166.6,131.8 2.5,0.2 5,0.3 7.5,0.3 z m 1912.1,-824 c -585.7,0 -1245.2,403.9 -1627.6,638 -76,46.5 -141.7,86.8 -189.2,112.6 -37.2,20.2 -67.9,35.4 -100.5,33.6 -56.3,-3.2 -96.5,-56 -136.1,-114.5 -179.5,-265 -370.9,-392.9 -569.5,-380.4 -198.7,12.7 -352.2,166.4 -476.1,315.1 -625.3,750.3 -907.1,1383.5 -861.7,1935.6 21.2,256.8 155.8,481.9 351.3,587.4 133.2,72 298.8,96.5 521.1,76.9 518.3,-45.5 1027.4,-281.9 1396.6,-648.6 106.5,-105.7 203.3,-223.2 296.9,-336.8 47.1,-57.2 95.8,-116.3 145.1,-173.1 305.8,-352.4 466.3,-456.8 1092.4,-574.2 l 12.3,-2.3 3.2,-12.2 c 16,-61.3 31.3,-122.7 46.7,-184.3 93.4,-372.4 189.8,-757.5 427,-1197.9 l 11.3,-21 -22.8,-7.2 c -102.6,-32.4 -210.2,-46.7 -320.4,-46.7"
         style="fill:#100f0d;fill-opacity:1;fill-rule:nonzero;stroke:none"
         id="path200" /><path
         d="m 28016.7,26323.3 c 269.6,-56.7 559.5,33.7 769.5,212 127.1,107.9 237.4,251.4 399,292.9 159.5,40.9 326.3,-30.4 463.8,-120.8 36.6,-24.1 74.5,-50.5 118.2,-53.8 119.3,-9 181.9,146.1 292.8,191.1 -97.5,103.3 -178.7,221.8 -239.8,350 394.2,161.6 893.8,0.4 1119,-361.2 152.1,514.3 -192.5,1044.8 -590,1404.9 -96.5,87.4 -200.4,172.1 -324.1,212.7 -123.7,40.6 -272,29.1 -367.5,-59.5 -46.3,-42.9 -83.7,-104.6 -146,-115.3 -102.8,-17.7 -163.2,109.4 -248.4,169.5 -53.9,38 -121.7,49.3 -187.3,56.4 -774.8,84.8 -1030.3,-344.7 -1387.3,-922.5 -284,-459.7 -366.1,-1110.2 328.1,-1256.4"
         style="fill:#100f0d;fill-opacity:1;fill-rule:nonzero;stroke:none"
         id="path202" /><path
         d="m 34313.6,29274.2 c -57.9,536 -150,1068.2 -275.5,1592.4 -4.6,19.2 -10.5,40.3 -27,51.3 -19.4,13 -45.3,6.8 -67.7,0.2 -715.9,-212.4 -1422.7,-455.3 -2117.9,-727.9 -509.8,-199.8 -1101.8,-480 -1668.3,-400.8 -287.4,40.1 -596,-12 -864.7,-115.4 -31.6,-12.3 -64.1,-26.5 -85.9,-52.4 -27.3,-32.5 -33,-77.6 -35.3,-120 -21.6,-395 170.9,-795.3 492.9,-1025.1 73.3,-52.3 185.7,-91.7 244,-22.9 64.5,76.2 -12.4,187.3 -82,259 -90.1,93.1 -177.8,200.6 -192.2,329.3 -14.4,128.7 77.9,276.1 207.4,273 -79,-120 -53.6,-285.7 23.7,-406.9 77.4,-121.1 197.3,-207.5 314.3,-290.9 30.8,-22 65.7,-45.1 103.2,-40.2 54.5,7 83.1,66 107.8,115.2 254.1,505.8 1037.4,683.8 1549.6,667 187.3,-6.1 2387.5,-213.1 2373.6,-84.9"
         style="fill:#fbc589;fill-opacity:1;fill-rule:nonzero;stroke:none"
         id="path204" /><path
         d="m 29957.6,29783 c -212.4,0 -439.9,-43.6 -658,-127.5 -29.1,-11.3 -59.1,-24.4 -77.8,-46.7 -23.4,-27.8 -28.6,-68.5 -30.8,-108.3 -21.1,-387.1 169.1,-782.7 484.7,-1007.9 71.9,-51.3 170.7,-81.4 217.3,-26.2 60.7,71.6 -36.4,186.4 -81,232.5 -89.2,92.1 -182.4,204.5 -197.7,340.8 -8.9,79.4 19.4,165.6 73.8,225 42.6,46.5 97.3,71.6 153.8,70 l 35.7,-0.9 -19.7,-29.8 c -77.8,-118.3 -44.1,-278.8 23.9,-385.3 76.4,-119.7 200,-207.8 309.1,-285.5 30.1,-21.5 59.5,-40.6 89.2,-36.7 42.9,5.5 68.6,56.5 91.1,101.5 266,529.4 1084.6,696.9 1569.4,680.9 39.3,-1.3 165,-11.2 339,-25 527.1,-41.6 1920.4,-151.7 2013.8,-77.7 -57.6,532.1 -150,1065.6 -274.6,1585.8 -4.1,16.9 -8.5,32.7 -18.7,39.4 -12.3,8.3 -32.8,3.1 -51.1,-2.3 -712.4,-211.4 -1424.4,-456.1 -2116.3,-727.3 -60.6,-23.8 -122.4,-48.7 -185.2,-74 -463.4,-186.8 -988.8,-398.6 -1493.1,-328.1 -63.5,8.9 -129.4,13.3 -196.8,13.3 z m -134.9,-1386 c -55.4,0 -117.7,26 -170,63.4 -326.4,232.9 -523.1,642 -501.2,1042.3 2.5,46.6 9.1,94.9 40,131.6 24.7,29.5 59.8,44.9 93.7,58.2 293.6,112.9 604.2,154.2 874.7,116.5 493.9,-69.1 1014,140.6 1472.8,325.6 62.9,25.3 124.8,50.3 185.6,74.1 692.9,271.6 1406,516.7 2119.4,728.4 19.5,5.8 55.8,16.5 84.5,-2.8 23.8,-15.9 30.9,-45.5 35.1,-63.1 125.3,-523.2 218.2,-1059.7 276,-1594.8 v 0 c 1,-9.5 -2.3,-18.7 -9.4,-26 -73.2,-75.3 -871.5,-28.8 -2047.4,64.1 -173.5,13.7 -298.8,23.6 -337.2,24.8 -475.3,15.5 -1275.1,-146.4 -1531.2,-656.1 -27.1,-54.1 -59.1,-117.8 -123,-126 -43.5,-5.8 -81.9,18.5 -117.2,43.7 -112,79.9 -238.9,170.3 -319.4,296.5 -68.7,107.5 -104.9,266 -43,394.2 -39.5,-8.7 -69,-32.7 -88.2,-53.7 -46.2,-50.4 -71.2,-126.5 -63.6,-193.8 13.9,-124.4 102.2,-230.4 186.8,-317.7 111.7,-115.3 141.1,-216.8 82.8,-285.7 -26.1,-30.8 -61.6,-43.7 -100.6,-43.7"
         style="fill:#100f0d;fill-opacity:1;fill-rule:nonzero;stroke:none"
         id="path206" /><path
         d="m 33660.2,31110.1 c 233,199.4 571.2,199 878.2,188 377,-13.4 515.9,-184.6 891.1,-114.4 474.9,89 906.1,61.4 1382.6,-16.7 267,-43.8 548.7,-94.1 754.2,-270.2 502.1,-430.2 109.3,-1533.9 -127.5,-2003.9 -353.8,-702.7 -893.9,-1287.6 -1328.9,-1937.7 -39.1,-58.4 -78.7,-117.4 -130.3,-165.1 -210.6,-194.8 -1950.5,359.4 -2434.9,684.2 642.2,678.7 719.2,715.8 1343.8,1410.7 -78.1,75.1 -156.1,150.3 -234.2,225.5 33.9,-32.7 -453.9,-92.9 -547,-44.7 -166.2,85.9 -192.6,161 -251.1,326 -177.3,499.5 -136.1,1189.8 -196,1718.3"
         style="fill:#ffffff;fill-opacity:1;fill-rule:nonzero;stroke:none"
         id="path208" /><path
         d="m 33575.4,27477.9 c 538.2,-345.9 2199,-850.8 2390.8,-673.3 50.2,46.4 89.3,105 127.2,161.6 156.6,234 329.6,463.3 496.8,684.9 297.5,394.3 605.1,802.1 831,1250.7 254.7,505.7 610.1,1570.4 132.2,1979.9 -207.3,177.7 -505.2,226.5 -744.5,265.7 -547.7,89.9 -959.1,94.9 -1375.7,16.9 -221.3,-41.5 -363.6,-0.3 -514.2,43.4 -110.4,32 -224.5,65.1 -381.3,70.6 -325.1,11.6 -635.2,6.6 -856.7,-176.5 18.7,-168.5 27.2,-350 36.1,-542 19.1,-406.1 38.8,-826 157.8,-1161.4 58.4,-164.8 82.5,-232.8 241.5,-315.1 82.4,-42.5 492.9,9.9 523.9,34.1 -0.9,-0.7 -3.8,-4.1 -4.1,-9.5 l 14.9,-0.7 17,17.5 c 0,0 0,0 0,0 l 247.9,-238.7 -12.8,-14.3 c -374.9,-417 -550.8,-595.5 -773.5,-821.4 -143.9,-145.9 -306.6,-310.9 -554.3,-572.4 z m 2225.9,-746.8 c -524.1,0 -1853.5,449.2 -2267.6,726.8 l -19.4,13 16,17.1 c 257.2,271.7 424,440.9 571.2,590.1 219.8,223 393.9,399.7 759.4,805.9 l -205.5,197.9 c -87,-40.2 -472.8,-77.5 -557.2,-33.7 -172.9,89.4 -202.1,171.9 -260.4,336.3 -121.2,341.6 -141,764.5 -160.2,1173.5 -9.2,195.2 -17.8,379.7 -37.1,549.9 l -1.2,10.4 8,6.9 c 232.5,198.8 568.1,204.3 891.8,192.7 161.8,-5.7 278.3,-39.5 391,-72.2 152.2,-44.1 283.6,-82.2 495.8,-42.5 421.4,79 836.9,73.9 1389.4,-16.6 244.2,-40.1 548.1,-89.9 763.9,-274.7 496.5,-425.6 136.9,-1512.6 -122.7,-2028 -227.5,-451.7 -536.2,-860.9 -834.7,-1256.7 -166.9,-221.2 -339.5,-449.9 -495.4,-683 -39.2,-58.6 -79.7,-119.1 -133.3,-168.7 -33.2,-30.7 -100.3,-44.4 -191.8,-44.4"
         style="fill:#100f0d;fill-opacity:1;fill-rule:nonzero;stroke:none"
         id="path210" /><path
         d="m 31366.3,24456.8 c 237.7,-156.9 523.1,-220.4 801.3,-281 -143.6,29.8 -190,230.5 -119.1,358.9 70.8,128.3 611.1,143.2 743.5,206.1 -341.6,-162.1 -1347,237.7 -1782.7,515 0,0 129.8,-649.1 357,-799"
         style="fill:#ffffff;fill-opacity:1;fill-rule:nonzero;stroke:none"
         id="path212" /><path
         d="m 31377.2,24473.3 c 203.5,-134.3 449.6,-200.8 680,-252.9 -13.4,15.9 -25.1,34.2 -34.6,54.8 -38.6,84.1 -35.3,189.7 8.5,269 44.3,80.3 228.9,116.4 421.7,147.4 -437.4,48.6 -1071.3,314.7 -1414.1,522.6 34.2,-149 155,-619.9 338.5,-740.9 z m 786.4,-316.9 c -1.2,0.2 -2.4,0.5 -3.6,0.8 -263.6,57.4 -561.8,122.8 -804.6,283 v 0 c -231.5,152.8 -360.2,784.9 -365.6,811.7 l -9.1,45.5 39.2,-24.9 c 379.6,-241.6 1250.1,-599.9 1656.9,-543.6 45.9,9.1 83.7,18.8 106.7,29.8 v 0 l 17,-35.8 c -0.1,-0.1 -0.2,-0.1 -0.3,-0.2 -31.6,-14.9 -68.5,-25.3 -109.9,-31.5 -48.8,-9.9 -107,-19.1 -169.5,-28.9 -185,-29.1 -415.3,-65.4 -455,-137.2 -37.3,-67.7 -40.2,-161.5 -7.2,-233.3 23.5,-51.1 62.5,-85.1 110.1,-96 1,-0.2 2.1,-0.4 3.1,-0.7 l -8.2,-38.7"
         style="fill:#100f0d;fill-opacity:1;fill-rule:nonzero;stroke:none"
         id="path214" /><path
         d="m 31684,26267.2 c 287.2,220.7 691,315.6 1020.9,166.1 348.3,-157.8 534.9,-532.8 694.6,-880.1 -183.5,30.4 -367.1,60.9 -550.7,91.4 -70.2,11.6 -160.7,13.5 -191.6,-50.6 -11.7,-24.3 -10.9,-52.4 -9.4,-79.3 14.9,-266 119,-521.9 155.9,-769.9 -285.1,91.7 -318.1,369.4 -400.1,613.5 -131.2,390.6 -324.8,731.6 -719.6,908.9"
         style="fill:#ffffff;fill-opacity:1;fill-rule:nonzero;stroke:none"
         id="path216" /><path
         d="m 31722.4,26271.2 c 417.6,-201.8 593.4,-589.2 700,-906.6 13.2,-39.5 25.2,-79.8 37.2,-120.2 59.3,-199.5 115.4,-388.5 319.3,-469.7 -15.6,91 -39.1,182.2 -63.9,278.1 -38.4,149.1 -78.2,303.2 -87,460.8 -1.7,30.9 -2.1,61 11.4,89 28.6,59.5 100,80.2 212.7,61.5 l 513.8,-85.3 c -167,359.9 -347.3,690.6 -669.1,836.4 -292.4,132.5 -671.6,75.6 -974.4,-144 z m 1105.6,-1555.1 -30.3,9.8 c -249.2,80.2 -313.7,297.3 -376.1,507.3 -11.8,39.8 -23.7,79.7 -36.8,118.8 -106.5,317.3 -283.4,706.1 -709,897.1 l -30.2,13.6 26.3,20.2 c 318.4,244.6 727.1,310.7 1041.2,168.4 344.4,-156 529.7,-510 704.4,-889.9 l 15.7,-33.9 -587.6,97.5 c -64,10.6 -145.5,12.3 -170.5,-39.6 -9.5,-19.5 -9,-44.1 -7.5,-69.6 8.6,-153.7 47.8,-305.9 85.8,-453 26.8,-103.8 54.4,-211.2 69.9,-315.1 l 4.7,-31.6"
         style="fill:#100f0d;fill-opacity:1;fill-rule:nonzero;stroke:none"
         id="path218" /><path
         d="m 25564.2,5725 105.8,130.1 c 3.2,3.9 6.7,6.7 10.4,8.6 11.2,8.6 22.4,17.1 33.6,25.6 -290.4,864.9 -520.3,1757.9 -683.7,2655.4 l 39,7.1 c 162.2,-891.2 390.2,-1778.1 678,-2637.2 1222.8,925.1 2558.6,1695.7 3971.6,2291.1 1070.1,450.9 1905,673.2 2707.1,720.9 l 2.3,-39.5 c -797.4,-47.4 -1628.3,-268.8 -2694.1,-717.9 -1414,-595.9 -2750.5,-1367.5 -3973.5,-2294.2 3.3,-9.8 6.6,-19.6 9.9,-29.3 l 3.5,-10.3 -6.9,-8.6 c -16.6,-20.3 -41.3,-10.3 -56.1,-4.2 -3.8,1.5 -9.6,3.9 -13.1,4.7 -0.2,-0.2 -0.4,-0.3 -0.6,-0.5 L 25564.2,5725"
         style="fill:#ffffff;fill-opacity:1;fill-rule:nonzero;stroke:none"
         id="path220" /><path
         d="m 23982.9,4363.2 65.8,71 c 506.2,546.8 1073.9,1038.5 1687.3,1461.3 l 22.5,-32.7 c -584.1,-402.6 -1126.7,-867.9 -1613.8,-1383.9 l 21.8,9.7 16.2,-36.1 -199.8,-89.3"
         style="fill:#ffffff;fill-opacity:1;fill-rule:nonzero;stroke:none"
         id="path222" /><path
         d="m 27177.3,3679.6 c -30.4,0 -65.2,26.5 -82.4,53.5 l -1403,2201.4 125.9,-97.6 -9.2,-11.8 1319.7,-2070.7 c 12.8,-20.2 38.3,-36 49.9,-35.1 1.6,0.1 2.6,0.2 4,3.6 l 36.5,-15.4 c -6.9,-16.4 -20.1,-26.2 -37.1,-27.7 -1.4,-0.1 -2.8,-0.2 -4.3,-0.2"
         style="fill:#ffffff;fill-opacity:1;fill-rule:nonzero;stroke:none"
         id="path224" /><path
         d="m 24336,6370 c -0.4,-0.6 -0.8,-1.2 -1.3,-2.1 -2.2,-4 -3,-9.2 -2.5,-13.8 l 13.2,14.9 c -0.5,0.5 -2.8,1.8 -6.5,1.6 -1.1,-0.1 -2.1,-0.4 -2.9,-0.6 z M 28817.8,3879.4 C 27636,5112 26061,5965.7 24383.2,6283.4 c -23.8,4.5 -59.7,11.3 -80.2,39.3 -13,17.7 -14.2,44.1 -3,64.4 9.1,16.4 24.6,25.7 42.3,24.2 15.3,-1 27.1,-11.3 30.7,-26.6 3.9,-16.3 -2,-39.8 -18.2,-49.5 -1.1,-0.7 -2.3,-1.3 -3.5,-1.8 10.9,-5.3 24.8,-8.3 39.2,-11.1 1685.9,-319.2 3268.4,-1177 4455.9,-2415.5 l -28.6,-27.4"
         style="fill:#ffffff;fill-opacity:1;fill-rule:nonzero;stroke:none"
         id="path226" /><path
         d="m 26125.7,5261.8 -37,9.8 c -298.3,79.3 -597,171.5 -887.9,274 l -10.3,3.6 -2.4,10.7 c -76.8,336.7 54.5,705.8 326.7,918.4 l 8.2,6.4 9.9,-3.1 c 244.2,-76.9 496.5,-134.3 750,-170.6 l 17.1,-2.5 -0.1,-17.3 c -1.9,-215 -26.1,-430.5 -72,-640.5 l -38.7,8.4 c 44.1,201.8 68,408.6 70.9,615.1 -246.4,36.3 -491.5,92.3 -729.1,166.5 -252,-202.1 -374.3,-545.6 -306.6,-861.4 275.4,-96.7 557.9,-184.2 840.2,-260.2 -26.2,112.7 14.6,239.9 104.2,314 l 25.2,-30.6 c -86.5,-71.5 -120.8,-199.7 -81.7,-304.8 l 13.4,-35.9"
         style="fill:#ffffff;fill-opacity:1;fill-rule:nonzero;stroke:none"
         id="path228" /><path
         d="m 24896.7,5268.7 c 498.6,-122.8 995.9,-273.7 1478.7,-448.7 l 35.6,61.2 c 149.6,256.2 267.7,458.5 283.4,760 0.8,16 0.8,53.5 0.7,105.4 -0.4,407.4 11,834.9 95.8,957.2 -504.8,28.6 -1007.7,162.6 -1459.6,389 -146.5,-261.9 -318.2,-511.3 -510.5,-741.6 81.1,-355.4 106.6,-719.4 75.9,-1082.5 z m 1496.3,-497.3 -15.6,5.7 c -491.6,178.8 -998.5,332.7 -1506.6,457.2 l -16.5,4 1.5,17 c 32.9,367.8 7.4,736.7 -75.8,1096.6 l -2.3,9.6 6.4,7.6 c 197.4,235.3 372.9,490.9 521.8,759.6 l 9.3,16.7 17,-8.6 c 469.2,-238.3 995.2,-375.3 1520.9,-396.3 l -1.6,-39.6 v 0 0 c -4.4,0.6 -10.5,-0.6 -19.1,-8.8 -98.6,-94.9 -97.9,-712.9 -97.7,-945.5 0.1,-52.5 0.1,-90.4 -0.7,-107.5 -16.3,-311.1 -136.5,-517 -288.7,-777.8 l -52.3,-89.9"
         style="fill:#ffffff;fill-opacity:1;fill-rule:nonzero;stroke:none"
         id="path230" /><path
         d="m 24998,4831.8 c 600.6,0 1197.2,-150.2 1728.2,-440.4 24.3,29.4 89.5,95.7 260.3,266.6 136.9,137 307.3,307.5 320.1,331.5 74.2,138.6 66.9,226.3 56.8,347.8 -4.2,49.5 -8.8,105.7 -8.6,172.6 1.5,510.3 173.2,1127 484,1739.5 -863.8,38.6 -1706,227.7 -2503.8,562.5 -29.8,12.5 -61.7,35.5 -85.6,62.7 -83.8,-341.6 -232,-671.1 -432.3,-959.2 -19,-27.4 -38.6,-54.5 -58.1,-81.7 -67.6,-93.7 -137.5,-190.6 -183.3,-297.2 -108.5,-252.5 -80.6,-546.9 -53.7,-831.6 30.5,-322.8 62,-656.1 -111,-921.4 194.6,32.3 391.1,48.3 587,48.3 z M 26722.9,4348 v 0 c -0.1,0.1 -0.1,0.1 -0.2,0.1 l -3.5,1.9 c -712.9,393.3 -1546.7,530.5 -2348.3,386.3 l -49.6,-8.9 30.3,40.4 c 194.7,258.9 163.7,586.5 130.9,933.4 -27.4,289.7 -55.7,589.1 56.8,850.9 47.5,110.6 118.7,209.3 187.5,304.8 19.5,26.9 38.9,53.9 57.8,81.1 204.7,294.6 354.2,632.8 435.1,982.9 -3.9,9.6 -6.4,19.1 -7.2,28.7 -2.3,26.7 9.6,49.8 33.4,65 l 39.1,24.8 -9,-45.4 c -4.6,-22.9 -9.4,-45.7 -14.6,-68.5 16.6,-29.6 52.3,-61.7 89,-77.1 802.9,-336.9 1651,-525.5 2520.9,-560.7 l 31,-1.3 -14.2,-27.6 c -316.8,-616.1 -492.2,-1237.3 -493.7,-1749 -0.2,-65.2 4.4,-120.5 8.5,-169.2 10.2,-123.4 18.3,-220.9 -61.3,-369.8 -14.6,-27.2 -133.3,-146.9 -327.1,-340.8 -118.7,-118.8 -253.4,-253.5 -264.3,-271.9 l -14.3,8.5 -3.2,-0.8 -9.8,-17.8"
         style="fill:#ffffff;fill-opacity:1;fill-rule:nonzero;stroke:none"
         id="path232" /><path
         d="m 26928.5,4023.4 -32.5,22.7 c 198.8,284.6 445.8,526.9 734.3,720 l 13.3,8.9 c 59.8,39.8 121.7,81 156.5,140.9 38,65.5 40.5,147 42.8,225.9 l 0.2,6.2 c 34.6,1144 495.7,2171.5 1236.1,2760.7 -359.2,31.5 -725.5,30.1 -1080.4,28.8 -326.1,-1.3 -663.3,-2.6 -994.1,21.6 -857.3,62.7 -1519.1,308 -1966.8,729.3 l 27.1,28.8 c 441,-414.8 1094.5,-656.6 1942.6,-718.6 329.3,-24.1 665.8,-22.7 991.1,-21.5 372.1,1.3 757,2.9 1134,-33.5 l 50.1,-4.9 -40,-30.6 C 28388.7,7331.5 27917.6,6299.2 27882.7,5146.8 l -0.2,-6.2 c -2.5,-83.8 -5.1,-170.4 -48.2,-244.6 -39.4,-67.9 -105.1,-111.7 -168.7,-154 l -13.2,-8.8 c -284.4,-190.4 -528,-429.2 -723.9,-709.8"
         style="fill:#ffffff;fill-opacity:1;fill-rule:nonzero;stroke:none"
         id="path234" /><path
         d="m 26904.7,3948.7 c -47.6,99.6 -167.1,140 -289,168.7 -824.3,194.1 -1668.7,243 -2509.9,145.2 l -4.5,39.4 c 845.7,98.2 1694.7,49.1 2523.5,-146.1 125.2,-29.5 260.7,-75.2 315.6,-190.1 l -35.7,-17.1"
         style="fill:#ffffff;fill-opacity:1;fill-rule:nonzero;stroke:none"
         id="path236" /><path
         d="m 25969.3,6179.4 c 43,161.6 -15.4,345.7 -143.7,452.9 -59.9,50.1 -137.5,84.5 -215,75.1 -113.8,-13.9 -201.1,-125.7 -205.7,-240.3 -4.6,-114.6 61.9,-224.5 154.7,-291.8 92.8,-67.4 208.6,-96.7 323,-104.8 32.6,-2.4 66.1,-3.3 96.2,-15.9 29.5,-12.4 53.4,-35.1 75.5,-58.2 56.3,-58.7 109.3,-143.4 73.6,-216.6 -32.9,-67 -122.2,-82.6 -196.3,-73.5 -79.7,9.8 -166.3,47.4 -192,123.5 -56.2,167.1 191.8,207.5 229.7,349.6"
         style="fill:#ffffff;fill-opacity:1;fill-rule:nonzero;stroke:none"
         id="path238" /><path
         d="m 25261.7,5250.7 -15.4,52.4 c -55,186.8 -3.9,404.8 130,555.3 129.9,145.9 328,226.8 531.4,215.8 l 50.2,-2.7 -88.5,-74.1 -25.4,30.4 8.8,7.4 c -170.5,-5.6 -338,-80.8 -446.9,-203.1 -111.5,-125.3 -161.5,-300.5 -134.8,-460.3 l 0.8,1.7 36.3,-15.7 -46.5,-107.1"
         style="fill:#ffffff;fill-opacity:1;fill-rule:nonzero;stroke:none"
         id="path240" /><path
         d="m 25050.3,5858.4 -37,14.1 c 31.8,83.8 107.3,152.7 224.4,204.7 139.8,62.1 294.2,88.3 446.6,75.4 100.1,-8.4 171.9,-35.8 219.5,-83.9 l -28.2,-27.8 c -40.6,41 -104.3,64.7 -194.6,72.2 -145.8,12.1 -293.5,-12.8 -427.2,-72.1 -107.1,-47.5 -175.6,-109 -203.5,-182.6"
         style="fill:#ffffff;fill-opacity:1;fill-rule:nonzero;stroke:none"
         id="path242" /><path
         d="m 26579.8,6061.3 c -0.1,0 -0.1,0 -0.1,0 -2.1,-0.1 -5.5,-2.7 -6.4,-7 l 6.6,-1.4 6.7,2 c -1.3,4.2 -4.8,6.4 -6.8,6.4 z m -0.1,-39.7 c -14.8,0 -27.2,8.7 -31.1,22.1 l 12.1,3.5 c -178.8,107.7 -413.4,83 -620.7,51 -17.1,-2.7 -33.1,-9.8 -37.9,-16.9 -1.3,-1.8 -1.4,-3 -1.1,-4.5 l -38.7,-8.1 c -2.6,12.4 -0.1,24.6 7.2,35.2 16.8,24.3 53.6,31.7 64.4,33.4 222.9,34.6 476.9,60.5 669.9,-70.6 l 11,-7.5 -2.7,-12.9 c -2.9,-14.1 -15.3,-24 -30.8,-24.6 -0.5,-0.1 -1.1,-0.1 -1.6,-0.1"
         style="fill:#ffffff;fill-opacity:1;fill-rule:nonzero;stroke:none"
         id="path244" /><path
         d="m 26960.8,5468.8 c -12,0 -22.6,5.6 -28.8,15.4 l 33.5,21.2 c -1.3,2.1 -4.4,4.1 -4.7,3 5,7.4 1.5,17.8 -2,27.2 -71.7,192.7 -163.1,328 -279.4,413.5 -236.5,173.7 -559.6,128.5 -731.1,86 l -9.5,38.5 c 178.3,44.1 514.6,90.6 764,-92.6 122.8,-90.2 218.7,-231.4 293.2,-431.5 6.1,-16.5 11.9,-35.6 4,-54.9 -5.7,-13.9 -20.1,-24.3 -35.8,-25.7 -1.1,0 -2.3,-0.1 -3.4,-0.1"
         style="fill:#ffffff;fill-opacity:1;fill-rule:nonzero;stroke:none"
         id="path246" /><path
         d="m 25922.8,6028.6 -35.2,18.1 c 155.9,301.9 461.7,519.2 798,567.1 l 54,7.6 -83,-92.3 -29.5,26.4 8.5,9.5 c -301.7,-60.9 -571.3,-262.5 -712.8,-536.4"
         style="fill:#ffffff;fill-opacity:1;fill-rule:nonzero;stroke:none"
         id="path248" /><path
         d="m 25959.5,6070.7 -24.9,30.8 c 116.4,94.2 261.3,211.5 431.2,241.3 73.5,13 148,9.2 220,5.6 l 207.9,-10.4 c 6.2,-0.3 22.6,-1.2 31.8,-14.9 7.2,-10.7 5.2,-25.7 -4.5,-35 -9,-8.4 -21.8,-9.3 -31.4,-2.2 l 23.8,31.7 c -5.9,4.4 -14.6,4.1 -19.7,-0.7 -4.9,-4.7 -4,-11.5 -1.1,-15.9 1.4,-2 3.1,-2.9 3.6,-3 -0.3,0 -1.3,0.3 -4.5,0.5 l -207.9,10.3 c -69.8,3.5 -142,7.1 -211.1,-5 -159.9,-28 -294.4,-137 -413.2,-233.1"
         style="fill:#ffffff;fill-opacity:1;fill-rule:nonzero;stroke:none"
         id="path250" /><path
         d="m 24985.7,5405.2 40.7,126.8 c 55.4,172.6 168.7,323.3 318.9,424.5 150.2,101.1 332.6,149.3 513.2,135.9 l -2.9,-39.5 c -171.9,13 -345.3,-33.1 -488.2,-129.3 -122.4,-82.4 -219,-199.4 -277.3,-334.4 l 15.6,-10.8 -120,-173.2"
         style="fill:#ffffff;fill-opacity:1;fill-rule:nonzero;stroke:none"
         id="path252" /><path
         d="m 25958.9,6034.8 c -74.1,31.4 -144.4,72.2 -212.3,111.7 -37.5,21.8 -75.1,43.6 -113.4,64 -132,70 -240.1,101.7 -340.3,98.3 -94.5,-2.9 -207.7,-46.4 -265.3,-136.7 l 10.9,-16.2 -91.8,-62 27.8,62.9 c 48.9,110.3 176.3,187.3 317.2,191.6 141.4,3.1 273,-56.7 360.1,-102.9 38.7,-20.6 76.7,-42.7 114.7,-64.8 66.9,-38.8 136.1,-79 207.9,-109.5 l -15.5,-36.4"
         style="fill:#ffffff;fill-opacity:1;fill-rule:nonzero;stroke:none"
         id="path254" /><path
         d="m 28275.7,9409 c 0,0 134.9,-194 277.3,-39.6 142.4,154.5 55.7,297.2 55.7,297.2"
         style="fill:#ffffff;fill-opacity:1;fill-rule:nonzero;stroke:none"
         id="path256" /><path
         d="m 28436.3,9289.9 c -3.4,0 -6.8,0.1 -10.2,0.4 -95.5,6.5 -163.8,103.3 -166.7,107.4 l 32.5,22.7 c 0.6,-0.9 60.6,-85.4 137,-90.6 37.7,-3.1 74.7,15.3 109.6,53.1 129.9,140.9 56.4,268.2 53.2,273.5 l 33.9,20.5 c 1,-1.5 92.7,-157.4 -58,-320.9 -40.5,-43.9 -84.6,-66.1 -131.3,-66.1"
         style="fill:#100f0d;fill-opacity:1;fill-rule:nonzero;stroke:none"
         id="path258" /><path
         d="m 30256.5,22918.4 1669.8,-2197.4 683.4,802.9 z"
         style="fill:#587ac6;fill-opacity:1;fill-rule:nonzero;stroke:none"
         id="path260" /><path
         d="m 30333.6,22849.7 1593.6,-2097.1 652.2,766.3 z m 1591.8,-2160.3 -1745.9,2297.7 2460.5,-1458.1 -714.6,-839.6"
         style="fill:#100f0d;fill-opacity:1;fill-rule:nonzero;stroke:none"
         id="path262" /><path
         d="m 33544.7,27474.3 c 0,0 1570.6,-808.1 2361.4,-671.9 l 1307.8,-521.6 c 0,0 -1189.4,-552.4 -3669.2,1193.5"
         style="fill:#587ac6;fill-opacity:1;fill-rule:nonzero;stroke:none"
         id="path264" /><path
         d="m 33773.1,27341.4 c 2034.1,-1363.8 3149.2,-1133.6 3385,-1059.7 l -1254.1,500.2 c -612.9,-101.7 -1661.5,340.6 -2130.9,559.5 z m 2901.3,-1163.6 c -106.6,0 -229.1,7.1 -367.8,25.4 -556.3,73.4 -1489,350.7 -2773.3,1254.9 l 20.5,33.9 c 15.7,-8.1 1573.7,-803.6 2349,-670.1 l 5.5,0.9 5.2,-2 1350.4,-538.6 -41.7,-19.3 c -9.5,-4.5 -188.5,-85.1 -547.8,-85.1"
         style="fill:#100f0d;fill-opacity:1;fill-rule:nonzero;stroke:none"
         id="path266" /></g></g></svg>
