<?xml version="1.0" encoding="UTF-8"?>
<svg xmlns="http://www.w3.org/2000/svg" xmlns:xlink="http://www.w3.org/1999/xlink" width="71px" height="71px" viewBox="0 0 71 71" version="1.1">
<g id="surface1">
<path style=" stroke:none;fill-rule:nonzero;fill:rgb(0%,0%,0%);fill-opacity:1;" d="M 35.347656 3.578125 C 32.796875 4.242188 30.953125 6.363281 30.675781 8.945312 C 30.5625 9.957031 30.632812 10.914062 30.855469 11.578125 C 30.953125 11.84375 30.9375 11.84375 30.6875 11.566406 C 30.160156 10.953125 29.746094 10.832031 26.625 10.386719 C 23.1875 9.886719 22.8125 9.902344 21.925781 10.539062 C 21.023438 11.203125 20.855469 11.703125 20.078125 16.058594 C 19.707031 18.25 19.371094 20.050781 19.359375 20.066406 C 19.359375 20.078125 18.886719 19.996094 18.320312 19.871094 C 17.5 19.707031 17.179688 19.691406 16.75 19.816406 C 15.917969 20.066406 15.28125 20.71875 15.046875 21.550781 C 14.699219 22.769531 13.867188 27.277344 13.867188 27.902344 C 13.867188 28.703125 14.351562 29.523438 15.046875 29.910156 C 15.585938 30.203125 18.957031 30.757812 23.808594 31.355469 L 25.222656 31.535156 L 25.128906 31.878906 C 25.070312 32.074219 25.03125 32.710938 25.03125 33.28125 C 25.042969 34.445312 25.335938 35.25 26.027344 36.070312 C 26.320312 36.414062 26.804688 37.566406 27.777344 40.339844 L 29.121094 44.152344 L 27.984375 45.886719 C 24.585938 51.101562 23.1875 53.109375 21.964844 54.527344 C 20.496094 56.246094 20.175781 56.800781 20.371094 57.300781 C 20.566406 57.8125 20.871094 58.007812 23.769531 59.449219 L 26.542969 60.835938 L 25.222656 61.613281 L 23.921875 62.375 L 11.996094 63.871094 C 5.4375 64.691406 0.0546875 65.371094 0.0273438 65.382812 C -0.015625 65.410156 0.277344 67.589844 0.332031 67.628906 C 0.347656 67.65625 5.851562 66.976562 12.5625 66.132812 L 24.753906 64.605469 L 28.914062 62.097656 C 31.203125 60.710938 34.765625 58.574219 36.816406 57.328125 L 40.5625 55.082031 L 49.132812 51.917969 L 57.6875 48.769531 L 61.679688 45.402344 L 65.660156 42.015625 L 67.671875 41.171875 C 68.78125 40.714844 69.972656 40.199219 70.335938 40.035156 L 70.984375 39.730469 L 70.585938 38.773438 C 70.363281 38.246094 70.152344 37.789062 70.113281 37.746094 C 70.070312 37.71875 68.78125 38.203125 67.257812 38.84375 L 64.484375 39.992188 L 60.710938 43.195312 L 56.925781 46.414062 L 56.675781 45.957031 C 55.84375 44.375 53.957031 43.613281 52.210938 44.152344 C 51.558594 44.359375 51.515625 44.347656 51.226562 44.082031 C 51.046875 43.917969 50.269531 42.726562 49.492188 41.421875 L 48.078125 39.050781 L 49.699219 31.632812 C 50.601562 27.539062 51.351562 24.183594 51.351562 24.183594 C 51.363281 24.171875 51.765625 23.960938 52.25 23.726562 C 54 22.839844 54.761719 21.703125 54.554688 20.273438 C 54.441406 19.566406 53.820312 18.664062 53.167969 18.277344 C 52.777344 18.054688 52.695312 17.917969 52.75 17.695312 C 52.792969 17.527344 52.972656 16.738281 53.140625 15.933594 C 53.429688 14.519531 53.429688 14.449219 53.207031 14.089844 C 52.695312 13.3125 51.78125 13.269531 51.335938 13.992188 C 51.210938 14.199219 50.921875 15.238281 50.699219 16.28125 L 50.28125 18.195312 L 45.859375 20.414062 C 43.417969 21.617188 41.351562 22.589844 41.253906 22.5625 C 41.171875 22.519531 40.394531 21.894531 39.5625 21.175781 L 38.039062 19.84375 L 38.039062 18.761719 C 38.039062 17.804688 37.925781 17.277344 37.523438 16.347656 C 37.441406 16.167969 37.59375 16.101562 38.230469 15.960938 C 41.394531 15.253906 43.445312 12.5625 43.222656 9.402344 C 43.183594 8.765625 43.097656 8.097656 43.058594 7.902344 C 42.972656 7.570312 43.070312 7.503906 45.070312 6.515625 C 46.21875 5.949219 47.273438 5.367188 47.398438 5.226562 C 47.703125 4.882812 47.6875 4.078125 47.355469 3.742188 C 46.773438 3.1875 46.511719 3.246094 44.125 4.421875 C 42.878906 5.046875 41.835938 5.546875 41.808594 5.546875 C 41.78125 5.546875 41.433594 5.269531 41.019531 4.921875 C 39.355469 3.496094 37.425781 3.035156 35.347656 3.578125 Z M 38.730469 6.15625 C 39.160156 6.363281 39.523438 6.585938 39.523438 6.628906 C 39.523438 6.726562 33.101562 9.984375 32.921875 9.984375 C 32.769531 9.984375 33.019531 8.679688 33.296875 8.042969 C 33.738281 7.03125 34.722656 6.15625 35.792969 5.839844 C 36.609375 5.589844 37.859375 5.726562 38.730469 6.15625 Z M 40.949219 9.234375 C 41.046875 9.832031 40.867188 10.925781 40.546875 11.539062 C 40.230469 12.1875 39.410156 13.007812 38.757812 13.355469 C 37.898438 13.796875 36.304688 13.839844 35.402344 13.464844 C 34.765625 13.1875 33.695312 12.285156 33.851562 12.148438 C 33.988281 12.023438 40.574219 8.75 40.714844 8.75 C 40.796875 8.734375 40.90625 8.957031 40.949219 9.234375 Z M 26.320312 12.675781 C 27.484375 12.855469 28.46875 13.035156 28.511719 13.078125 C 28.566406 13.117188 28.371094 14.367188 28.109375 15.835938 C 27.84375 17.304688 27.234375 20.882812 26.75 23.78125 C 26.277344 26.679688 25.847656 29.105469 25.792969 29.164062 C 25.710938 29.257812 20.398438 28.636719 20.289062 28.511719 C 20.191406 28.414062 23.035156 12.6875 23.171875 12.523438 C 23.378906 12.273438 23.867188 12.300781 26.320312 12.675781 Z M 31.757812 13.480469 C 31.757812 13.519531 31.574219 13.632812 31.339844 13.714844 C 30.867188 13.867188 30.855469 13.824219 31.007812 12.855469 L 31.105469 12.328125 L 31.421875 12.855469 C 31.601562 13.144531 31.757812 13.421875 31.757812 13.480469 Z M 34.042969 16.003906 C 34.585938 16.238281 35.140625 16.777344 35.457031 17.390625 C 35.640625 17.734375 35.570312 17.707031 34.804688 17.085938 C 33.515625 16.042969 32.492188 15.863281 31.269531 16.445312 L 30.855469 16.65625 L 31.269531 16.308594 C 31.492188 16.113281 31.796875 15.933594 31.964844 15.90625 C 32.617188 15.765625 33.601562 15.824219 34.042969 16.003906 Z M 36.816406 21.867188 C 39.007812 23.769531 40.878906 25.320312 40.976562 25.347656 C 41.074219 25.375 43.542969 24.199219 46.441406 22.742188 C 50.933594 20.496094 51.78125 20.121094 52.015625 20.246094 C 52.210938 20.355469 52.28125 20.507812 52.25 20.746094 C 52.210938 21.050781 51.558594 21.425781 46.578125 23.949219 C 41.921875 26.320312 40.90625 26.777344 40.6875 26.652344 C 40.117188 26.347656 32.101562 19.316406 32.0625 19.09375 C 31.992188 18.777344 32.269531 18.441406 32.585938 18.441406 C 32.726562 18.441406 34.625 19.984375 36.816406 21.867188 Z M 30.078125 20.355469 C 30.230469 20.648438 30.894531 21.355469 31.546875 21.925781 L 32.753906 22.949219 L 31.949219 23.199219 C 31.078125 23.464844 29.289062 23.78125 29.203125 23.699219 C 29.136719 23.644531 29.703125 19.828125 29.773438 19.828125 C 29.785156 19.828125 29.925781 20.066406 30.078125 20.355469 Z M 18.222656 22.203125 C 18.679688 22.296875 18.984375 22.4375 18.957031 22.519531 C 18.929688 22.601562 18.691406 23.90625 18.429688 25.417969 L 17.957031 28.179688 L 17.125 28.082031 C 16.683594 28.039062 16.265625 27.96875 16.226562 27.941406 C 16.113281 27.875 17.222656 22.046875 17.347656 22.046875 C 17.390625 22.046875 17.777344 22.117188 18.222656 22.203125 Z M 34.375 26.929688 C 34.15625 28.179688 33.976562 29.230469 33.976562 29.289062 C 33.976562 29.355469 32.65625 29.398438 31.0625 29.398438 L 28.152344 29.398438 L 28.21875 29.078125 C 28.246094 28.914062 28.371094 28.21875 28.496094 27.539062 C 28.609375 26.859375 28.773438 26.25 28.859375 26.195312 C 28.941406 26.152344 29.398438 26.070312 29.871094 26.015625 C 30.980469 25.902344 32.65625 25.472656 33.65625 25.058594 C 34.097656 24.863281 34.53125 24.710938 34.613281 24.699219 C 34.710938 24.683594 34.640625 25.445312 34.375 26.929688 Z M 47.550781 30.648438 C 46.941406 33.433594 46.414062 35.792969 46.371094 35.902344 C 46.332031 36.027344 45.816406 35.292969 45.125 34.140625 C 44.472656 33.058594 43.804688 32.074219 43.640625 31.976562 C 43.472656 31.867188 42.085938 31.4375 40.5625 30.992188 C 39.035156 30.5625 37.457031 30.121094 37.039062 29.996094 L 36.304688 29.785156 L 36.386719 28.996094 C 36.441406 28.566406 36.566406 27.832031 36.652344 27.347656 L 36.816406 26.472656 L 38.050781 27.511719 C 39.535156 28.773438 39.964844 28.984375 40.949219 28.984375 C 41.65625 28.984375 42.003906 28.84375 45.164062 27.261719 C 47.050781 26.320312 48.617188 25.558594 48.632812 25.570312 C 48.644531 25.585938 48.160156 27.875 47.550781 30.648438 Z M 38.496094 32.824219 L 42.265625 33.90625 L 43.945312 36.707031 L 45.625 39.492188 L 45.304688 40.851562 L 45 42.210938 L 43.308594 39.492188 C 42.363281 38.011719 41.503906 36.707031 41.394531 36.609375 C 41.242188 36.484375 39.214844 36.25 35.320312 35.902344 C 32.101562 35.609375 29.273438 35.332031 29.023438 35.292969 C 28.773438 35.25 28.386719 35.054688 28.152344 34.847656 C 27.359375 34.183594 27.152344 33.40625 27.472656 32.269531 L 27.609375 31.757812 L 34.722656 31.757812 Z M 32.269531 37.941406 C 33.351562 38.023438 33.40625 38.050781 33.476562 38.398438 C 33.515625 38.59375 33.738281 39.992188 33.976562 41.492188 L 34.375 44.222656 L 31.035156 49.117188 C 29.203125 51.808594 27.679688 54.027344 27.664062 54.054688 C 27.636719 54.082031 27.277344 53.875 26.832031 53.597656 L 26.054688 53.097656 L 26.292969 52.722656 C 26.429688 52.515625 27.664062 50.644531 29.039062 48.550781 C 30.980469 45.582031 31.535156 44.652344 31.519531 44.320312 C 31.507812 44.082031 31.035156 42.558594 30.453125 40.921875 C 29.871094 39.300781 29.398438 37.898438 29.398438 37.816406 C 29.398438 37.734375 29.71875 37.71875 30.273438 37.761719 C 30.742188 37.816406 31.644531 37.898438 32.269531 37.941406 Z M 38.203125 38.480469 C 40.1875 38.648438 39.8125 38.300781 42.140625 42.03125 C 43.292969 43.863281 44.234375 45.46875 44.234375 45.59375 C 44.234375 45.71875 43.929688 47.164062 43.570312 48.785156 L 42.917969 51.753906 L 41.199219 52.390625 C 39.785156 52.902344 38.828125 53.402344 35.929688 55.164062 C 32.90625 56.992188 32.378906 57.273438 32.253906 57.078125 C 31.535156 56.023438 31.242188 55.703125 30.648438 55.316406 C 30.257812 55.066406 29.953125 54.859375 29.953125 54.832031 C 29.953125 54.816406 31.480469 52.570312 33.351562 49.839844 C 35.222656 47.105469 36.75 44.761719 36.75 44.625 C 36.75 44.375 35.957031 38.980469 35.847656 38.496094 C 35.804688 38.273438 35.859375 38.246094 36.511719 38.328125 C 36.914062 38.371094 37.675781 38.441406 38.203125 38.480469 Z M 47.898438 43.28125 C 48.175781 43.738281 48.398438 44.140625 48.398438 44.152344 C 48.398438 44.277344 46.871094 45.179688 46.828125 45.097656 C 46.773438 45 47.289062 42.433594 47.355469 42.433594 C 47.382812 42.433594 47.621094 42.808594 47.898438 43.28125 Z M 50.296875 46.453125 C 50.851562 46.941406 51.128906 46.96875 52.210938 46.59375 C 53.527344 46.136719 54.179688 46.246094 54.554688 46.996094 L 54.761719 47.382812 L 51.847656 48.464844 C 50.242188 49.046875 48.910156 49.519531 48.894531 49.492188 C 48.867188 49.464844 48.632812 48.953125 48.382812 48.339844 C 48.007812 47.441406 47.964844 47.230469 48.132812 47.132812 C 48.242188 47.078125 48.644531 46.800781 49.019531 46.539062 C 49.410156 46.273438 49.742188 46.054688 49.769531 46.054688 C 49.796875 46.039062 50.03125 46.21875 50.296875 46.453125 Z M 46.371094 49.546875 L 46.71875 50.351562 L 46.414062 50.460938 C 45.457031 50.824219 45.5 50.878906 45.734375 49.714844 C 45.84375 49.132812 45.957031 48.6875 45.984375 48.703125 C 45.996094 48.730469 46.179688 49.105469 46.371094 49.546875 Z M 26.140625 55.898438 C 27.136719 56.507812 27.707031 56.773438 28.273438 56.871094 C 29.136719 57.007812 29.59375 57.285156 30.050781 57.964844 C 30.425781 58.492188 30.371094 58.589844 29.480469 59.074219 L 28.84375 59.421875 L 26.652344 58.324219 C 25.460938 57.730469 24.210938 57.089844 23.878906 56.910156 L 23.28125 56.5625 L 23.933594 55.800781 C 24.296875 55.386719 24.613281 55.054688 24.667969 55.054688 C 24.726562 55.054688 25.378906 55.425781 26.140625 55.898438 Z M 26.140625 55.898438 "/>
</g>
</svg>
