<?xml version="1.0" encoding="UTF-8"?>
<svg xmlns="http://www.w3.org/2000/svg" xmlns:xlink="http://www.w3.org/1999/xlink" width="73px" height="73px" viewBox="0 0 73 73" version="1.1">
<g id="surface1">
<path style=" stroke:none;fill-rule:nonzero;fill:rgb(0%,0%,0%);fill-opacity:1;" d="M 50.671875 0.34375 C 47.507812 0.855469 44.742188 2.308594 42.472656 4.648438 C 39.9375 7.273438 38.582031 10.40625 38.394531 14.113281 C 38.210938 17.9375 39.195312 22.628906 40.992188 26.476562 C 41.347656 27.230469 41.632812 27.875 41.632812 27.886719 C 41.632812 27.917969 41.289062 27.945312 40.863281 27.945312 C 40.433594 27.945312 39.921875 28.003906 39.722656 28.085938 C 39.523438 28.160156 38.796875 28.984375 37.996094 30.042969 C 37.242188 31.039062 36.570312 31.867188 36.5 31.867188 C 36.429688 31.867188 35.757812 31.039062 35.003906 30.042969 C 34.203125 28.984375 33.476562 28.160156 33.277344 28.085938 C 33.0625 28.003906 29.898438 27.945312 25.578125 27.945312 L 18.25 27.945312 L 18.25 26.535156 C 18.25 25.75 18.179688 24.9375 18.09375 24.707031 C 17.878906 24.109375 17.125 23.398438 16.539062 23.238281 C 16.253906 23.15625 13.789062 23.097656 10.765625 23.097656 C 5.148438 23.097656 4.5625 23.15625 3.25 23.824219 C 2.425781 24.238281 1.253906 25.394531 0.8125 26.207031 C -0.0429688 27.761719 0 26.804688 0 47.933594 C 0 61.621094 0.0429688 67.511719 0.15625 68.039062 C 0.671875 70.460938 2.679688 72.386719 5.191406 72.84375 C 5.773438 72.957031 13.386719 73 29.941406 73 C 53.636719 73 53.867188 73 54.222656 72.714844 C 54.421875 72.558594 55.421875 71.375 56.460938 70.078125 C 57.5 68.78125 58.371094 67.726562 58.398438 67.726562 C 58.429688 67.726562 59.355469 68.851562 60.453125 70.21875 C 61.550781 71.589844 62.578125 72.773438 62.71875 72.859375 C 63.175781 73.085938 70.902344 73.042969 71.472656 72.800781 C 72.03125 72.570312 72.644531 71.929688 72.84375 71.390625 C 73.058594 70.820312 73.058594 30.125 72.84375 29.554688 C 72.628906 28.984375 72.160156 28.515625 71.503906 28.214844 C 71.003906 27.988281 70.535156 27.945312 67.554688 27.945312 L 64.175781 27.945312 L 64.886719 26.476562 C 66.796875 22.46875 67.882812 16.925781 67.453125 13.316406 C 66.699219 6.84375 62.207031 1.839844 55.960938 0.484375 C 54.566406 0.183594 52.070312 0.113281 50.671875 0.34375 Z M 55.949219 2.910156 C 58.085938 3.507812 59.570312 4.320312 61.125 5.761719 C 64.144531 8.570312 65.402344 12.019531 65.03125 16.480469 C 64.488281 22.839844 62.09375 28.03125 57.1875 33.492188 C 56.046875 34.773438 53.210938 37.355469 52.96875 37.355469 C 52.710938 37.355469 50.34375 35.214844 48.933594 33.71875 C 45.867188 30.484375 43.527344 26.761719 42.230469 23.082031 C 41.261719 20.347656 40.675781 16.566406 40.820312 14.042969 C 41.148438 8.539062 45.027344 4.007812 50.445312 2.78125 C 51.671875 2.507812 54.75 2.582031 55.949219 2.910156 Z M 7.273438 27.460938 C 7.273438 29.398438 7.355469 29.828125 7.828125 30.183594 C 8.210938 30.484375 8.953125 30.398438 9.339844 30.011719 C 9.679688 29.683594 9.695312 29.613281 9.695312 27.589844 L 9.695312 25.519531 L 15.828125 25.519531 L 15.828125 60.894531 L 14.015625 60.851562 L 12.191406 60.808594 L 12.148438 58.742188 C 12.121094 56.859375 12.089844 56.660156 11.804688 56.359375 C 11.605469 56.148438 11.335938 56.03125 11.035156 56.03125 C 9.878906 56.03125 9.695312 56.433594 9.695312 58.957031 L 9.695312 60.882812 L 7.441406 60.882812 C 5.003906 60.882812 4.148438 61.039062 3.023438 61.679688 L 2.425781 62.035156 L 2.453125 45.097656 L 2.496094 28.160156 L 2.808594 27.589844 C 3.507812 26.277344 4.832031 25.535156 6.457031 25.519531 L 7.273438 25.519531 Z M 33.734375 32.394531 C 35.773438 35.117188 35.871094 35.214844 36.5 35.214844 C 37.128906 35.214844 37.226562 35.117188 39.265625 32.394531 L 40.792969 30.367188 L 43.171875 30.367188 L 43.957031 31.46875 C 44.382812 32.078125 45.082031 33.019531 45.539062 33.5625 C 46.308594 34.503906 46.464844 34.789062 46.222656 34.789062 C 45.910156 34.789062 44.683594 36.230469 44.300781 37.054688 C 43.515625 38.710938 43.730469 40.390625 44.898438 41.847656 C 48.089844 45.796875 56.746094 46.082031 60.453125 42.34375 C 61.59375 41.203125 61.949219 40.40625 61.949219 38.996094 C 61.949219 37.984375 61.894531 37.742188 61.480469 36.886719 C 61.167969 36.242188 60.753906 35.714844 60.253906 35.273438 L 59.496094 34.605469 L 60.652344 33.148438 C 61.292969 32.363281 62.023438 31.410156 62.265625 31.039062 L 62.734375 30.367188 L 70.578125 30.367188 L 70.578125 40.632812 C 70.578125 50.316406 70.5625 50.898438 70.332031 50.898438 C 69.992188 50.886719 69.007812 50.445312 68.335938 49.988281 C 67.296875 49.273438 66.15625 49.6875 66.15625 50.757812 C 66.15625 51.714844 67.953125 52.898438 70.191406 53.382812 L 70.578125 53.46875 L 70.578125 70.578125 L 67.195312 70.5625 L 63.804688 70.5625 L 61.453125 67.609375 C 59.042969 64.585938 58.8125 64.386719 58.03125 64.585938 C 57.785156 64.644531 56.929688 65.613281 55.320312 67.625 L 52.96875 70.578125 L 25.523438 70.578125 L 25.523438 68.507812 C 25.523438 66.484375 25.507812 66.414062 25.164062 66.085938 C 24.78125 65.699219 24.039062 65.613281 23.652344 65.914062 C 23.183594 66.269531 23.097656 66.699219 23.097656 68.636719 L 23.097656 70.578125 L 14.5 70.578125 C 4.476562 70.578125 4.863281 70.617188 3.566406 69.320312 C 2.453125 68.195312 2.195312 67.238281 2.625 65.828125 C 2.894531 64.914062 3.578125 64.101562 4.449219 63.675781 L 5.191406 63.304688 L 10.679688 63.304688 C 15.726562 63.304688 16.226562 63.277344 16.753906 63.035156 C 17.410156 62.734375 17.878906 62.265625 18.09375 61.695312 C 18.191406 61.421875 18.25 59.113281 18.25 55.019531 L 18.25 48.746094 L 18.578125 48.832031 C 19.191406 49.03125 20.03125 49.445312 20.515625 49.816406 C 21.488281 50.542969 22.671875 50.085938 22.671875 49.003906 C 22.671875 48.605469 22.554688 48.40625 22.085938 47.976562 C 21.386719 47.351562 20.0625 46.695312 19.003906 46.464844 L 18.25 46.296875 L 18.25 30.367188 L 32.207031 30.367188 Z M 49.246094 37.457031 C 49.800781 37.996094 50.773438 38.808594 51.386719 39.265625 C 52.882812 40.421875 53.054688 40.40625 54.679688 39.136719 C 55.363281 38.609375 56.332031 37.796875 56.816406 37.328125 C 57.300781 36.871094 57.773438 36.5 57.828125 36.5 C 58.128906 36.5 59.027344 37.398438 59.296875 37.96875 C 59.699219 38.796875 59.667969 39.324219 59.183594 40.078125 C 57.800781 42.273438 53.082031 43.230469 49.558594 42.03125 C 47.320312 41.289062 45.980469 39.820312 46.324219 38.523438 C 46.566406 37.667969 47.578125 36.5 48.105469 36.5 C 48.175781 36.5 48.691406 36.929688 49.246094 37.457031 Z M 49.246094 37.457031 "/>
<path style=" stroke:none;fill-rule:nonzero;fill:rgb(0%,0%,0%);fill-opacity:1;" d="M 50.972656 5.0625 C 50.429688 5.191406 49.375 5.574219 48.632812 5.945312 C 47.535156 6.472656 47.066406 6.816406 46.125 7.757812 C 45.15625 8.710938 44.839844 9.140625 44.300781 10.265625 C 42.859375 13.230469 42.84375 16.039062 44.285156 18.960938 C 45.523438 21.472656 47.847656 23.339844 50.617188 24.054688 C 51.855469 24.367188 54.109375 24.351562 55.304688 24.039062 C 58.828125 23.097656 61.480469 20.445312 62.390625 16.964844 C 62.707031 15.742188 62.707031 13.488281 62.390625 12.261719 C 61.265625 8.011719 57.703125 5.117188 53.324219 4.917969 C 52.425781 4.875 51.628906 4.917969 50.972656 5.0625 Z M 54.265625 7.429688 C 55.347656 7.628906 56.917969 8.382812 57.773438 9.125 C 59.910156 10.976562 60.78125 14.242188 59.839844 16.925781 C 58.273438 21.445312 52.867188 23.296875 48.917969 20.660156 C 46.550781 19.078125 45.28125 16.195312 45.769531 13.429688 C 46.453125 9.394531 50.273438 6.703125 54.265625 7.429688 Z M 54.265625 7.429688 "/>
<path style=" stroke:none;fill-rule:nonzero;fill:rgb(0%,0%,0%);fill-opacity:1;" d="M 23.511719 34.488281 C 22.785156 35.214844 23.039062 35.871094 24.4375 36.855469 L 24.851562 37.140625 L 24.054688 37.667969 C 23.199219 38.238281 22.96875 38.710938 23.242188 39.410156 C 23.398438 39.851562 24.222656 40.265625 24.625 40.105469 C 24.765625 40.0625 25.351562 39.695312 25.921875 39.308594 C 26.503906 38.921875 27.0625 38.652344 27.175781 38.695312 C 27.289062 38.738281 27.761719 39.039062 28.230469 39.351562 C 29.414062 40.148438 29.714844 40.25 30.285156 40.007812 C 30.625 39.863281 30.8125 39.664062 30.925781 39.308594 C 31.152344 38.625 30.925781 38.183594 30.042969 37.613281 L 29.328125 37.15625 L 29.726562 36.855469 C 30.78125 36.113281 30.996094 35.84375 30.996094 35.289062 C 30.996094 34.875 30.898438 34.675781 30.597656 34.417969 C 30.011719 33.90625 29.570312 33.992188 28.257812 34.859375 L 27.089844 35.644531 L 25.921875 34.859375 C 24.550781 33.949219 24.125 33.875 23.511719 34.488281 Z M 23.511719 34.488281 "/>
<path style=" stroke:none;fill-rule:nonzero;fill:rgb(0%,0%,0%);fill-opacity:1;" d="M 38.425781 46.351562 C 37.953125 46.625 37.785156 46.9375 37.785156 47.476562 C 37.785156 48.25 38.195312 48.5625 39.421875 48.691406 C 39.980469 48.746094 40.804688 48.945312 41.261719 49.148438 C 41.777344 49.359375 42.230469 49.460938 42.445312 49.402344 C 43 49.261719 43.34375 48.820312 43.34375 48.207031 C 43.34375 47.765625 43.257812 47.578125 42.917969 47.277344 C 42.074219 46.582031 39.09375 45.96875 38.425781 46.351562 Z M 38.425781 46.351562 "/>
<path style=" stroke:none;fill-rule:nonzero;fill:rgb(0%,0%,0%);fill-opacity:1;" d="M 60.3125 46.378906 C 59.824219 46.625 59.527344 47.195312 59.65625 47.664062 C 59.8125 48.335938 60.183594 48.5625 61.222656 48.675781 C 61.75 48.734375 62.605469 48.933594 63.121094 49.117188 C 64.175781 49.515625 64.585938 49.476562 65.015625 48.945312 C 65.402344 48.460938 65.371094 47.835938 64.972656 47.421875 C 64.558594 47.007812 63.304688 46.539062 62.136719 46.335938 C 60.980469 46.152344 60.738281 46.167969 60.3125 46.378906 Z M 60.3125 46.378906 "/>
<path style=" stroke:none;fill-rule:nonzero;fill:rgb(0%,0%,0%);fill-opacity:1;" d="M 33.234375 48.476562 C 31.523438 49.902344 31.226562 50.246094 31.226562 50.785156 C 31.226562 51.429688 31.753906 51.957031 32.421875 51.957031 C 32.90625 51.957031 33.179688 51.769531 35.074219 50.085938 C 35.601562 49.601562 35.703125 49.445312 35.703125 48.976562 C 35.703125 48.5625 35.601562 48.363281 35.300781 48.105469 C 34.6875 47.578125 34.21875 47.664062 33.234375 48.476562 Z M 33.234375 48.476562 "/>
<path style=" stroke:none;fill-rule:nonzero;fill:rgb(0%,0%,0%);fill-opacity:1;" d="M 55.75 48.007812 C 55.546875 48.132812 55.007812 48.578125 54.535156 48.976562 C 54.066406 49.390625 53.308594 49.988281 52.867188 50.316406 C 51.785156 51.101562 51.628906 51.785156 52.367188 52.46875 C 53.023438 53.097656 53.996094 52.667969 56.105469 50.859375 C 57.472656 49.6875 57.601562 49.515625 57.601562 48.945312 C 57.601562 48.007812 56.546875 47.464844 55.75 48.007812 Z M 55.75 48.007812 "/>
<path style=" stroke:none;fill-rule:nonzero;fill:rgb(0%,0%,0%);fill-opacity:1;" d="M 44.628906 49.902344 C 44.257812 50.273438 44.15625 50.757812 44.328125 51.226562 C 44.597656 51.914062 47.136719 53.324219 48.121094 53.324219 C 48.691406 53.324219 49.21875 52.753906 49.21875 52.140625 C 49.21875 51.457031 48.917969 51.113281 48.035156 50.828125 C 47.648438 50.699219 47.007812 50.371094 46.625 50.101562 C 45.796875 49.53125 45.070312 49.460938 44.628906 49.902344 Z M 44.628906 49.902344 "/>
<path style=" stroke:none;fill-rule:nonzero;fill:rgb(0%,0%,0%);fill-opacity:1;" d="M 24.167969 50.5 C 23.554688 50.859375 23.339844 51.570312 23.683594 52.210938 C 23.996094 52.796875 26.035156 53.46875 27.558594 53.46875 C 28.316406 53.46875 28.574219 53.410156 28.800781 53.179688 C 29.742188 52.242188 28.957031 51.042969 27.390625 51.042969 C 27.074219 51.042969 26.378906 50.886719 25.835938 50.6875 C 24.722656 50.289062 24.566406 50.273438 24.167969 50.5 Z M 24.167969 50.5 "/>
<path style=" stroke:none;fill-rule:nonzero;fill:rgb(0%,0%,0%);fill-opacity:1;" d="M 36.914062 57.585938 C 36.101562 58.398438 36.371094 58.941406 38.296875 60.296875 C 39.109375 60.882812 39.78125 61.394531 39.78125 61.453125 C 39.78125 61.492188 39.082031 62.035156 38.226562 62.632812 C 36.644531 63.746094 36.5 63.917969 36.5 64.546875 C 36.5 65 37.226562 65.726562 37.683594 65.726562 C 37.898438 65.726562 38.796875 65.199219 39.964844 64.375 C 41.035156 63.632812 41.945312 63.019531 42.003906 63.019531 C 42.0625 63.019531 42.859375 63.5625 43.785156 64.21875 C 45.867188 65.714844 45.980469 65.769531 46.480469 65.65625 C 47.207031 65.5 47.621094 64.714844 47.351562 64.046875 C 47.25 63.816406 46.582031 63.234375 45.695312 62.59375 C 44.871094 62.007812 44.199219 61.492188 44.199219 61.4375 C 44.199219 61.394531 44.8125 60.921875 45.554688 60.394531 C 47.59375 58.957031 47.878906 58.414062 47.066406 57.585938 C 46.351562 56.890625 46.195312 56.945312 43.742188 58.683594 C 42.832031 59.339844 42.03125 59.882812 41.976562 59.882812 C 41.917969 59.882812 41.132812 59.339844 40.222656 58.683594 C 37.796875 56.945312 37.625 56.890625 36.914062 57.585938 Z M 36.914062 57.585938 "/>
</g>
</svg>
