<?xml version="1.0" standalone="no"?>
<!DOCTYPE svg PUBLIC "-//W3C//DTD SVG 20010904//EN"
 "http://www.w3.org/TR/2001/REC-SVG-20010904/DTD/svg10.dtd">
<svg version="1.0" xmlns="http://www.w3.org/2000/svg"
 width="1080.000000pt" height="1080.000000pt" viewBox="0 0 1080.000000 1080.000000"
 preserveAspectRatio="xMidYMid meet">

<g transform="translate(0.000000,1080.000000) scale(0.100000,-0.100000)"
fill="#000000" stroke="none">
<path d="M5218 8630 c-369 -39 -739 -192 -1038 -430 -96 -77 -263 -245 -331
-335 -195 -255 -333 -554 -388 -836 -11 -57 -31 -208 -46 -336 l-26 -232 -77
-79 c-174 -176 -265 -368 -298 -630 -26 -204 -6 -374 60 -524 l25 -56 -31
-289 c-28 -261 -30 -297 -20 -388 13 -114 33 -198 65 -270 22 -48 22 -53 10
-155 -22 -171 -19 -433 6 -574 26 -145 84 -323 146 -448 157 -314 431 -584
737 -728 523 -245 1164 -199 1688 120 328 201 607 508 766 845 64 137 1201
2935 1240 3052 119 362 122 769 8 1118 -159 483 -548 876 -1019 1028 -191 62
-230 68 -735 112 -460 40 -618 48 -742 35z m578 -705 c455 -39 501 -45 617
-81 367 -116 635 -428 697 -816 19 -119 8 -340 -23 -458 -24 -93 -1172 -2931
-1238 -3063 -129 -254 -367 -475 -625 -578 -248 -99 -517 -115 -748 -42 -358
112 -616 408 -681 782 -21 120 -19 213 12 494 l27 247 -36 38 c-86 90 -91 140
-49 527 34 310 41 351 73 405 13 22 16 36 9 38 -39 13 -108 73 -129 112 -22
41 -24 53 -19 150 6 132 29 192 98 254 52 47 116 71 186 70 50 -1 38 -60 98
486 25 228 54 451 65 496 115 490 516 868 1015 958 121 22 205 19 651 -19z"/>
<path d="M5020 7806 c-155 -35 -345 -151 -480 -292 -201 -211 -306 -470 -360
-889 -18 -137 -29 -477 -16 -464 13 13 59 256 76 399 59 511 198 812 467 1014
127 95 277 162 523 234 54 15 -140 14 -210 -2z"/>
<path d="M5152 7405 c-234 -51 -447 -262 -497 -492 -13 -59 -105 -853 -105
-904 0 -16 8 -19 54 -19 77 0 151 -40 191 -105 29 -46 30 -53 28 -149 -3 -178
-61 -277 -188 -322 -34 -12 -34 -10 -16 -84 11 -49 9 -88 -24 -385 -42 -380
-50 -410 -139 -492 -29 -27 -60 -53 -70 -58 -15 -9 -22 -44 -42 -220 -36 -319
-32 -388 28 -515 62 -129 211 -242 357 -270 127 -24 272 1 390 67 79 43 205
167 243 238 36 67 1181 2884 1203 2958 23 79 23 225 0 302 -56 192 -208 342
-390 384 -57 13 -834 81 -910 80 -27 0 -78 -7 -113 -14z"/>
</g>
</svg>
