<?xml version="1.0" standalone="no"?>
<!DOCTYPE svg PUBLIC "-//W3C//DTD SVG 20010904//EN"
 "http://www.w3.org/TR/2001/REC-SVG-20010904/DTD/svg10.dtd">
<svg version="1.0" xmlns="http://www.w3.org/2000/svg"
 width="1222.000000pt" height="1280.000000pt" viewBox="0 0 1222.000000 1280.000000"
 preserveAspectRatio="xMidYMid meet">
<metadata>
Created by potrace 1.15, written by Peter Selinger 2001-2017
</metadata>
<g transform="translate(0.000000,1280.000000) scale(0.100000,-0.100000)"
fill="#000000" stroke="none">
<path d="M9610 12469 c-111 -52 -139 -91 -146 -203 -6 -80 13 -163 39 -180 44
-28 89 54 123 226 14 67 33 137 44 155 11 18 16 33 12 33 -4 0 -36 -14 -72
-31z"/>
<path d="M9193 12442 l-42 -37 -2 -183 c-2 -194 2 -213 43 -191 31 17 41 83
34 234 -5 96 -3 150 5 173 6 18 10 35 8 37 -2 2 -23 -13 -46 -33z"/>
<path d="M10019 12242 c-13 -10 -81 -51 -151 -91 -71 -40 -130 -77 -133 -82
-11 -17 15 -49 41 -49 39 0 89 25 192 97 54 36 115 72 137 78 22 7 39 16 38
20 -1 6 -87 45 -99 45 -1 0 -12 -8 -25 -18z"/>
<path d="M9269 11992 c-113 -30 -226 -112 -300 -219 -44 -64 -35 -143 20 -176
58 -34 89 -19 221 109 41 40 88 78 103 83 53 20 118 13 172 -18 64 -37 83 -56
124 -120 29 -44 34 -61 34 -114 0 -100 -41 -172 -120 -208 -44 -20 -108 -25
-132 -10 -18 12 -31 89 -20 119 5 13 17 26 27 28 22 6 65 72 58 89 -3 8 -24
26 -47 42 -33 22 -51 27 -91 25 -28 -1 -55 -5 -62 -9 -6 -4 -17 -8 -23 -9 -7
-1 -19 -9 -27 -17 -8 -7 -29 -19 -48 -26 -95 -35 -221 -125 -320 -230 -115
-121 -227 -305 -313 -515 -18 -44 -40 -97 -49 -117 -8 -20 -17 -47 -20 -60
-13 -70 -67 -159 -96 -159 -27 0 -31 11 -40 115 -4 52 -11 99 -15 104 -37 61
-165 -130 -203 -305 -29 -134 9 -233 115 -300 30 -20 60 -37 67 -39 6 -1 25
-8 41 -14 93 -39 344 -79 412 -66 l32 6 -56 82 c-50 72 -81 133 -136 257 -56
129 -45 341 28 506 84 190 286 395 438 444 51 16 86 8 156 -35 31 -19 72 -40
91 -45 158 -45 374 62 476 237 82 139 53 317 -74 454 -104 113 -259 153 -423
111z"/>
<path d="M9927 11838 c-20 -6 -42 -19 -48 -29 -20 -39 22 -76 120 -104 40 -12
70 -18 194 -39 15 -3 43 -14 62 -26 41 -26 43 -20 11 52 -51 116 -114 158
-231 157 -38 -1 -87 -6 -108 -11z"/>
<path d="M8810 11483 c-99 -66 -267 -246 -371 -398 -53 -77 -106 -158 -120
-180 l-24 -40 25 16 c71 45 69 45 87 27 15 -16 15 -26 -4 -160 -18 -125 -18
-191 0 -162 5 10 36 123 43 161 9 46 68 201 106 278 44 87 138 229 197 297 37
43 131 180 131 192 0 12 -17 5 -70 -31z"/>
<path d="M9424 11145 c-15 -38 51 -148 112 -186 31 -19 45 -21 105 -16 38 3
76 10 85 15 14 8 12 11 -13 20 -17 5 -59 37 -94 70 -110 102 -180 137 -195 97z"/>
<path d="M10795 11030 c-49 -5 -71 -15 -122 -51 -34 -24 -67 -57 -74 -72 -6
-15 -21 -35 -33 -43 -21 -15 -21 -15 -2 -29 11 -8 36 -15 55 -14 42 1 134 16
109 18 -22 1 -88 33 -88 41 0 22 53 79 95 102 89 49 201 29 245 -44 27 -45 13
-58 -66 -58 -38 0 -64 -4 -64 -10 0 -14 78 -49 109 -50 13 0 22 -3 18 -6 -3
-3 -61 -6 -129 -5 -207 3 -460 -56 -618 -143 -14 -8 -63 -33 -110 -57 -136
-68 -241 -140 -238 -164 5 -35 44 -29 126 19 67 39 215 105 247 110 5 1 16 5
23 9 6 5 12 6 12 4 0 -3 39 6 88 19 306 86 628 67 877 -52 59 -28 113 -69 103
-79 -4 -4 -46 2 -95 13 -140 33 -275 46 -463 45 -254 0 -432 -34 -585 -110
-167 -84 -254 -174 -320 -334 -40 -95 -46 -226 -15 -311 28 -76 63 -130 122
-185 173 -158 484 -178 623 -38 57 57 86 135 92 251 7 119 -11 182 -69 245
-60 66 -97 82 -172 77 -114 -7 -165 -71 -166 -208 0 -74 -19 -128 -40 -115 -5
3 -11 1 -14 -4 -11 -17 -57 -4 -87 25 -77 73 -57 208 42 298 103 93 258 135
371 102 66 -19 149 -78 186 -132 62 -92 78 -237 42 -380 -35 -137 -126 -254
-246 -316 -34 -18 -61 -36 -58 -39 2 -4 37 -10 77 -14 172 -16 362 53 439 159
38 53 34 87 -32 222 -64 133 -83 202 -78 275 5 75 45 140 118 191 87 61 116
71 205 72 67 0 89 -4 137 -27 65 -32 130 -93 161 -151 40 -79 19 -205 -49
-285 -47 -54 -81 -71 -147 -71 -70 0 -99 21 -101 74 -1 39 -1 39 67 66 81 33
90 41 112 86 41 87 -45 183 -165 184 -55 0 -136 -44 -174 -92 -71 -94 -91
-226 -48 -321 54 -120 130 -173 237 -165 116 10 185 55 307 200 140 166 250
349 293 485 14 45 30 85 35 88 5 3 2 18 -6 33 -7 15 -14 32 -14 38 0 11 -13
24 -96 94 -111 94 -389 221 -599 275 -49 13 -78 24 -63 24 80 3 77 35 -12 122
-98 95 -183 124 -315 109z"/>
<path d="M8122 10673 c-87 -125 -147 -408 -123 -588 22 -159 140 -450 249
-613 59 -88 59 -97 -1 -58 -67 45 -126 60 -196 51 -109 -13 -188 -62 -226
-138 -14 -28 -25 -65 -25 -82 0 -55 30 -135 64 -173 31 -33 39 -36 97 -39 35
-2 70 0 78 6 9 5 16 38 21 87 7 86 19 118 51 134 65 35 186 -87 205 -208 6
-37 3 -42 -42 -89 -30 -31 -65 -56 -89 -63 -52 -17 -170 -15 -223 4 -135 48
-222 170 -222 310 0 80 19 144 87 289 48 103 54 121 41 133 -12 12 -21 12 -68
-2 -41 -12 -67 -28 -102 -65 -49 -50 -118 -173 -118 -210 0 -11 -6 -35 -14
-52 -8 -18 -21 -54 -30 -82 -26 -86 -118 -459 -118 -483 0 -12 -4 -25 -9 -28
-5 -3 -9 -17 -9 -32 0 -41 -54 -147 -107 -208 -51 -61 -317 -297 -339 -302 -8
-2 -14 -7 -14 -12 0 -11 -506 -390 -521 -390 -23 0 -457 -336 -534 -415 -57
-57 -72 -115 -36 -135 53 -28 224 4 334 62 43 23 69 47 101 92 54 76 177 193
212 202 14 4 30 2 36 -4 13 -13 8 -37 -35 -177 -51 -166 -57 -334 -21 -669 26
-256 20 -291 -68 -379 -97 -96 -280 -201 -350 -199 -15 0 -30 -4 -33 -9 -8
-13 -82 -11 -90 2 -4 6 -13 8 -20 5 -20 -7 -92 48 -111 86 -43 82 1 209 88
254 57 29 118 9 118 -39 0 -11 -18 -43 -41 -69 -49 -59 -44 -71 39 -89 96 -20
201 16 241 83 68 111 -1 276 -142 339 -71 32 -191 33 -260 1 -120 -54 -238
-199 -254 -312 -3 -19 -8 -38 -12 -43 -10 -10 12 -115 32 -154 39 -74 174
-164 269 -178 100 -15 258 45 396 151 41 31 89 62 108 70 31 13 35 13 41 -2 7
-20 -2 -53 -50 -185 -80 -216 -89 -397 -21 -407 34 -5 127 35 241 105 60 36
110 68 113 71 3 4 118 82 255 174 274 183 380 240 512 272 47 11 88 26 90 32
8 23 -224 59 -327 51 -205 -17 -480 -150 -480 -234 0 -25 2 -25 43 -20 23 3
87 24 142 46 167 65 172 65 103 -15 -100 -113 -264 -204 -429 -239 -89 -19
-129 -19 -156 0 -19 13 -21 20 -12 42 25 67 192 224 335 316 143 92 252 130
483 168 233 38 423 16 537 -62 99 -67 169 -191 169 -299 0 -55 -5 -72 -31
-115 -41 -67 -106 -107 -172 -107 -105 0 -201 88 -170 157 14 32 39 32 77 -1
91 -76 221 -35 221 71 0 45 -42 126 -83 162 -75 66 -150 64 -248 -6 -107 -77
-146 -175 -116 -297 23 -93 45 -135 142 -273 96 -137 127 -198 156 -307 44
-170 35 -290 -37 -478 -38 -98 -41 -127 -18 -150 29 -29 95 -18 359 60 117 35
141 39 245 39 99 0 122 -3 165 -23 60 -28 91 -55 116 -104 22 -44 24 -77 5
-121 -17 -41 -72 -97 -95 -97 -9 0 -41 20 -70 45 -29 25 -56 45 -60 45 -4 0
-31 -15 -60 -32 -67 -41 -105 -104 -96 -158 10 -58 54 -138 97 -174 122 -104
342 -80 457 50 62 71 121 243 121 354 0 47 -26 144 -53 200 -51 104 -206 222
-336 255 -121 32 -244 -11 -484 -168 -136 -88 -143 -83 -100 73 8 30 18 62 21
70 3 8 6 22 8 30 2 8 31 92 64 185 69 192 134 434 156 575 46 305 -23 553
-180 645 -144 84 -317 89 -716 20 -245 -42 -275 -43 -339 -10 -241 122 -318
637 -170 1140 34 114 137 343 197 435 70 110 222 262 332 333 86 55 179 106
209 112 9 2 61 20 116 39 278 96 613 96 910 -2 98 -32 210 -105 253 -165 51
-72 145 -96 229 -57 161 73 306 237 320 364 5 38 2 45 -22 64 -61 48 -179 16
-285 -78 -25 -22 -53 -40 -62 -40 -27 0 -48 40 -48 94 0 44 4 53 39 86 49 46
113 70 211 77 68 4 80 2 129 -24 66 -34 91 -75 91 -149 0 -119 -55 -211 -239
-399 -149 -152 -184 -197 -236 -308 -57 -118 -86 -250 -92 -413 -5 -118 -3
-150 12 -194 55 -166 248 -218 450 -120 25 12 58 36 75 53 129 138 125 135
303 221 95 46 193 91 220 101 57 21 52 31 -32 69 -129 57 -361 98 -438 77 -48
-13 -54 -31 -27 -70 22 -30 4 -44 -46 -36 -19 4 -41 7 -48 7 -7 1 -32 19 -56
40 -52 45 -79 105 -70 155 7 35 71 138 194 313 86 123 118 179 175 320 110
266 132 373 115 554 -24 245 -108 454 -235 581 -62 63 -162 128 -212 140 -10
3 -47 12 -83 21 -120 30 -250 -2 -314 -78 -36 -41 -66 -129 -66 -190 0 -52 27
-118 63 -156 35 -37 108 -78 147 -83 23 -4 25 -1 23 31 -9 139 -7 176 9 206
20 37 80 68 114 60 40 -10 92 -65 125 -132 26 -52 32 -79 37 -152 6 -111 -6
-150 -67 -215 -156 -169 -332 -193 -564 -77 -34 17 -76 43 -93 58 -26 22 -161
208 -199 272 -5 8 32 -23 82 -70 128 -121 248 -187 384 -213 146 -27 311 51
373 175 29 59 33 100 11 118 -20 16 -55 -6 -84 -54 -24 -38 -94 -89 -148 -107
-19 -6 -65 -9 -103 -7 -58 3 -75 9 -124 41 -65 43 -140 139 -157 200 -13 49
-6 114 17 160 9 17 45 70 79 117 149 203 140 218 -105 184 -130 -18 -256 -15
-312 9 -47 20 -116 90 -139 142 -57 130 -47 326 30 561 15 46 26 84 25 84 -2
0 -11 -12 -22 -27z"/>
<path d="M9752 10324 c-86 -49 -180 -145 -226 -233 -20 -39 -34 -71 -30 -71 3
0 2 -6 -3 -12 -13 -19 -18 -63 -18 -168 0 -148 13 -207 69 -319 56 -110 265
-294 416 -365 52 -25 78 -31 130 -31 75 0 146 24 181 61 29 31 34 104 8 129
-8 8 -53 22 -100 29 -104 17 -123 25 -210 81 -137 89 -279 253 -321 370 -20
57 -24 188 -7 248 15 55 93 184 145 239 40 42 56 78 37 78 -5 0 -36 -16 -71
-36z"/>
<path d="M9338 10070 c-41 -12 -128 -74 -186 -132 l-54 -53 65 -7 c36 -3 87
-16 113 -28 47 -20 124 -84 124 -103 0 -5 7 -15 15 -23 19 -19 19 -20 -6 46
-29 77 -36 185 -16 245 23 65 13 76 -55 55z"/>
<path d="M7580 9530 c-206 -103 -321 -169 -480 -276 -142 -95 -187 -130 -179
-138 3 -3 77 29 165 70 173 83 265 117 304 112 54 -6 21 -103 -87 -248 -76
-102 -262 -285 -350 -343 -138 -92 -315 -157 -425 -157 -43 0 -48 2 -48 23 1
66 177 185 350 237 148 45 245 112 292 203 27 55 19 67 -45 67 -169 0 -370
-113 -542 -306 -302 -339 -496 -698 -604 -1119 -32 -121 -47 -215 -36 -215 4
0 42 33 84 73 111 105 204 172 311 224 110 53 163 107 212 211 54 117 60 299
12 347 -34 33 -155 -28 -193 -98 -31 -55 -25 -72 33 -92 116 -40 117 -143 3
-258 -54 -53 -134 -97 -179 -97 -37 0 -84 49 -91 97 -20 116 3 201 83 322 65
96 121 153 194 196 46 27 51 28 148 22 54 -4 113 -3 130 0 32 6 38 11 224 205
122 125 239 212 376 276 l79 37 78 160 c43 88 91 189 106 225 16 36 33 67 37
70 13 9 59 142 56 160 -2 12 -8 15 -18 10z"/>
<path d="M9708 9131 c-27 -24 -32 -35 -31 -70 2 -52 16 -77 56 -101 55 -34
109 -25 132 21 32 61 11 135 -46 165 -42 21 -75 17 -111 -15z"/>
<path d="M7185 8732 c-223 -116 -428 -326 -545 -555 -27 -55 -50 -101 -50
-103 0 -5 52 27 60 36 3 4 52 38 110 78 127 86 276 216 350 306 71 87 177 278
152 275 -4 0 -39 -17 -77 -37z"/>
<path d="M10565 8644 c-79 -41 -173 -170 -161 -220 14 -55 105 -18 263 108 34
27 82 56 107 64 25 9 46 18 46 20 0 2 -31 12 -69 24 -81 24 -145 26 -186 4z"/>
<path d="M7880 8479 c-93 -8 -229 -41 -321 -80 -84 -34 -219 -107 -219 -118 0
-4 -10 -13 -22 -18 -73 -34 -286 -255 -375 -388 -93 -140 -161 -372 -170 -585
-9 -207 16 -358 88 -547 62 -159 134 -236 199 -211 38 14 90 69 90 94 0 13 4
25 8 28 4 2 4 47 -1 98 -4 51 -6 183 -4 293 5 221 17 287 82 438 47 111 91
179 163 258 82 89 263 210 333 223 13 2 51 12 84 22 73 23 273 26 351 6 29 -8
60 -15 70 -17 11 -2 19 -4 19 -5 0 -1 7 -3 15 -5 8 -2 56 -18 105 -36 147 -52
235 -39 323 49 111 111 86 240 -65 332 -207 125 -496 190 -753 169z"/>
<path d="M10915 8446 c-57 -18 -82 -33 -131 -78 -43 -40 -57 -79 -33 -93 32
-21 169 -1 279 41 25 9 72 19 104 23 l59 6 -61 45 c-91 66 -143 79 -217 56z"/>
<path d="M10199 8361 c-31 -10 -73 -30 -92 -45 -41 -31 -87 -116 -87 -158 0
-40 30 -95 89 -164 28 -32 58 -74 67 -93 16 -32 15 -35 -2 -48 -47 -35 -115
-12 -302 100 -254 153 -371 176 -501 100 -115 -67 -168 -150 -137 -212 28 -54
65 -47 128 24 16 19 49 44 74 56 87 42 235 13 464 -92 75 -34 110 -44 164 -47
87 -6 160 11 219 48 66 42 70 69 19 124 -70 76 -95 122 -96 176 -1 58 24 91
83 109 113 33 193 -19 222 -145 21 -92 8 -120 -159 -324 -52 -64 -61 -94 -36
-121 34 -38 94 -62 159 -62 81 -1 164 43 244 129 74 78 85 112 78 223 -7 116
-50 201 -145 293 -134 130 -302 177 -453 129z"/>
<path d="M11012 8075 c-131 -37 -180 -95 -111 -131 26 -13 60 -15 193 -13 89
2 176 -1 195 -5 l34 -8 -49 62 c-75 96 -155 125 -262 95z"/>
<path d="M7838 7930 c-134 -34 -314 -137 -405 -232 -49 -51 -101 -145 -128
-231 -29 -92 -34 -225 -11 -334 27 -128 36 -131 76 -23 45 128 72 173 140 242
96 97 174 128 426 173 184 33 252 56 302 104 68 65 78 110 42 181 -59 116
-252 169 -442 120z"/>
<path d="M10883 7759 c-36 -36 13 -112 141 -219 43 -35 89 -84 104 -109 25
-43 27 -44 33 -21 4 14 7 57 8 95 1 116 -41 179 -151 230 -71 32 -119 41 -135
24z"/>
<path d="M10652 7547 c-23 -27 -33 -121 -26 -242 4 -80 2 -130 -5 -149 -6 -16
-9 -31 -6 -34 3 -3 31 15 62 39 81 62 106 112 100 206 -5 93 -48 186 -88 191
-14 2 -31 -3 -37 -11z"/>
<path d="M6415 7374 c-9 -14 -15 -27 -13 -30 2 -2 12 10 22 26 21 37 15 40 -9
4z"/>
<path d="M6338 7253 c-101 -132 -277 -273 -340 -273 -39 0 -78 22 -106 59 -29
39 -50 39 -89 -1 -77 -82 -93 -209 -33 -263 19 -17 20 -17 41 10 41 52 98 85
146 85 65 0 105 -23 181 -104 15 -16 38 -41 53 -55 14 -14 52 -60 86 -101 139
-171 148 -164 117 95 -8 72 -15 158 -15 192 1 34 -3 64 -8 67 -13 9 -14 255
-1 271 6 8 10 26 8 40 -3 26 -4 25 -40 -22z"/>
<path d="M7355 6142 c-3 -3 -16 -7 -28 -9 -23 -4 -108 -42 -117 -53 -3 -3 -27
-21 -55 -40 -89 -60 -187 -144 -365 -314 -290 -278 -377 -340 -481 -340 -72
-1 -117 31 -153 108 -37 78 -45 127 -46 262 l0 121 -44 48 c-25 26 -50 45 -58
43 -22 -8 -48 -64 -105 -226 -30 -86 -56 -164 -58 -173 -2 -8 -11 -33 -22 -55
l-18 -39 -123 -29 c-67 -16 -125 -26 -128 -23 -4 3 6 20 20 38 33 39 67 105
92 179 29 85 26 237 -5 315 -34 86 -44 94 -73 60 -32 -38 -123 -98 -181 -120
-44 -17 -58 -17 -203 -5 -128 11 -184 11 -317 1 -89 -8 -169 -13 -177 -13 -66
0 -281 -63 -370 -109 -134 -68 -238 -186 -260 -296 -27 -126 27 -374 129 -600
29 -63 51 -128 51 -146 0 -43 -20 -61 -143 -127 -96 -51 -157 -94 -157 -109 0
-5 24 -12 53 -18 62 -11 70 -6 -128 -83 -71 -27 -148 -60 -169 -73 -88 -50
-107 -173 -47 -302 59 -126 145 -246 217 -301 l34 -26 64 58 c35 33 104 81
153 108 135 75 162 94 183 129 45 73 11 180 -71 226 -77 43 -178 30 -212 -28
-33 -57 -13 -92 76 -130 42 -18 47 -24 47 -51 0 -42 -44 -85 -101 -100 -60
-17 -115 2 -147 50 -20 30 -23 44 -19 91 13 152 114 247 271 257 92 6 159 -20
277 -105 107 -77 178 -113 239 -120 40 -5 56 -1 100 23 100 54 149 139 136
237 -9 68 -39 142 -141 352 -105 217 -145 326 -145 396 0 210 310 273 616 124
109 -53 196 -131 235 -210 20 -43 24 -68 27 -168 7 -230 -70 -790 -154 -1119
-8 -31 -16 -70 -18 -85 -12 -97 -141 -502 -237 -748 -92 -235 -228 -500 -362
-703 -188 -286 -445 -550 -705 -725 -177 -119 -426 -257 -491 -272 -9 -3 -81
-26 -161 -53 -486 -164 -968 -161 -1473 9 -383 129 -721 366 -915 642 -95 135
-232 456 -280 657 -49 204 -57 263 -57 460 0 312 54 530 203 825 97 192 246
387 394 517 186 163 496 321 653 333 27 2 52 5 55 5 31 6 218 -2 255 -10 101
-23 194 -79 290 -175 134 -134 194 -263 182 -392 -25 -261 -353 -443 -593
-327 -37 18 -91 60 -147 113 -90 87 -119 99 -75 34 103 -156 318 -254 489
-224 94 16 200 72 273 145 158 156 188 370 84 593 -32 68 -126 172 -222 245
-296 224 -589 274 -939 157 -109 -36 -116 -39 -319 -153 -136 -76 -359 -275
-493 -440 -156 -192 -302 -433 -360 -597 -122 -341 -150 -501 -142 -807 7
-261 33 -404 123 -670 59 -174 112 -287 214 -452 255 -416 567 -724 985 -973
153 -91 435 -216 524 -233 14 -3 29 -8 35 -12 6 -3 20 -8 30 -9 10 -2 54 -12
97 -23 347 -89 736 -92 1064 -8 66 16 130 31 143 33 13 2 29 9 37 15 8 7 15
10 15 6 0 -8 169 55 260 97 239 110 479 233 500 256 3 4 70 49 150 102 366
242 705 562 977 924 107 142 267 381 347 517 107 183 366 725 366 766 0 7 4
20 10 30 37 69 230 638 242 717 2 11 7 26 11 33 5 6 6 12 3 12 -2 0 4 33 16
73 67 241 204 893 221 1055 2 17 7 35 10 39 4 3 7 28 7 54 0 26 5 51 10 54 6
4 8 10 6 14 -17 26 69 206 136 288 87 105 227 193 363 228 86 23 232 30 305
16 34 -7 64 -10 67 -8 2 3 -17 28 -42 57 -42 47 -59 76 -73 120 -10 34 -3 235
8 235 1 0 4 14 6 32 5 30 3 32 -25 31 -17 -1 -33 -3 -36 -6z m-2219 -362 c232
-58 401 -216 308 -289 -39 -31 -104 -36 -203 -17 -125 24 -297 114 -270 141 4
3 56 6 117 8 90 2 115 5 129 19 23 23 11 34 -57 51 -119 31 -320 29 -433 -3
-40 -12 -77 -41 -77 -62 0 -42 166 -139 357 -209 51 -19 93 -36 93 -39 0 -10
-129 0 -220 16 -47 8 -128 28 -181 45 -153 46 -198 38 -242 -44 -21 -41 -22
-49 -18 -262 9 -437 7 -545 -9 -555 -36 -23 -48 -12 -55 48 -7 66 -27 226 -56
432 -25 183 -28 454 -5 497 35 68 168 157 294 198 150 48 390 60 528 25z m364
-384 c-28 -27 -111 -41 -210 -36 -115 6 -101 16 35 25 55 3 116 10 135 14 51
13 56 12 40 -3z m-1130 -854 c0 -29 -54 -52 -146 -63 -77 -8 -106 -7 -93 5 5
4 221 75 232 76 4 0 7 -8 7 -18z"/>
<path d="M8790 5286 c-60 -16 -104 -44 -163 -104 -55 -56 -60 -88 -16 -109 32
-16 120 4 274 62 61 23 118 38 147 38 26 0 48 5 48 9 0 16 -138 97 -181 107
-53 13 -53 13 -109 -3z"/>
<path d="M9030 4954 c-114 -36 -162 -93 -108 -128 39 -25 154 -39 265 -33 77
4 116 2 154 -9 28 -9 52 -14 54 -12 2 2 -21 36 -52 77 -43 56 -67 78 -107 97
-59 28 -135 31 -206 8z"/>
<path d="M3550 4847 c-123 -52 -128 -58 -50 -71 19 -4 79 -32 133 -62 169 -97
248 -122 281 -88 31 31 18 62 -63 148 -89 93 -191 118 -301 73z"/>
<path d="M3249 4577 c-20 -8 -49 -23 -65 -35 -40 -29 -119 -110 -113 -117 3
-3 26 -1 51 3 29 6 70 4 119 -5 117 -21 279 -27 309 -11 39 21 38 61 -2 92
-90 68 -224 101 -299 73z"/>
<path d="M8948 4504 c-15 -15 -8 -51 15 -72 36 -34 144 -71 252 -87 70 -11
109 -24 147 -50 20 -14 39 -25 42 -25 8 0 -34 103 -47 117 -14 13 -313 111
-367 119 -19 3 -38 2 -42 -2z"/>
<path d="M8883 4240 c-52 -21 -23 -113 92 -293 30 -48 61 -111 69 -139 15 -59
15 -59 60 51 15 37 26 84 26 110 0 87 -66 182 -175 255 -44 29 -41 28 -72 16z"/>
<path d="M3170 4145 c-50 -23 -96 -71 -136 -141 -19 -33 -34 -64 -34 -67 0 -3
19 3 43 13 24 11 80 21 132 25 98 8 215 27 256 43 74 29 72 79 -5 113 -67 29
-204 37 -256 14z"/>
<path d="M8561 4081 c-35 -35 -59 -94 -92 -230 -22 -89 -42 -147 -60 -174 -15
-23 -26 -43 -24 -45 8 -8 161 64 192 91 62 54 78 98 78 214 0 88 -3 105 -21
130 -27 36 -47 40 -73 14z"/>
<path d="M3420 3814 c-122 -56 -192 -148 -191 -248 0 -28 9 -82 19 -121 l18
-70 26 55 c14 30 62 98 106 150 114 134 147 205 113 239 -26 26 -25 26 -91 -5z"/>
<path d="M3736 3635 c-18 -19 -43 -97 -52 -165 -8 -62 17 -149 57 -194 27 -31
167 -121 175 -113 2 2 -5 21 -16 43 -13 25 -25 87 -35 174 -16 150 -26 190
-55 238 -21 35 -49 41 -74 17z"/>
</g>
</svg>
